<?xml version="1.0" encoding="utf-8"?>
<!-- Generator: Adobe Illustrator 28.0.0, SVG Export Plug-In . SVG Version: 6.00 Build 0)  -->
<svg version="1.1" id="Layer_1" xmlns="http://www.w3.org/2000/svg" xmlns:xlink="http://www.w3.org/1999/xlink" x="0px" y="0px"
	 viewBox="0 0 576 512" style="enable-background:new 0 0 576 512;" xml:space="preserve">
<style type="text/css">
	.st0{fill:#8760FB;}
</style>
<path class="st0" d="M334.5,200.2c0-22.6-16-35.1-44-35.1H239v72.8h43.5C316,237.8,334.5,224.3,334.5,200.2z M522.2,187.1
	c-9.7-31.6-11.1-70.4-10-100.3c1.1-31.2-23.2-59.8-55.9-59.8H120c-32.8,0-57.1,28.7-55.9,59.8c1,30-0.3,68.7-10,100.3
	c-9.8,31.7-26.3,51.8-53.4,54.3v29.1c27,2.6,43.6,22.6,53.4,54.3c9.7,31.6,11.1,70.4,10,100.3C62.9,456.4,87.2,485,120,485h336.2
	c32.8,0,57.1-28.7,55.9-59.8c-1-30,0.3-68.7,10-100.3c9.8-31.7,26.3-51.8,53.3-54.3v-29.1C548.5,238.8,531.9,218.8,522.2,187.1z
	 M300.5,377.8H200.3V134.1H300c44.3,0,73.3,23.9,73.3,60.8c0,25.9-19.5,49-44.5,53v1.3c34,3.7,56.8,27.2,56.8,59.6
	C385.6,351.8,353.6,377.8,300.5,377.8z M290.3,266.6H239v80.2h53.5c35,0,53.5-14,53.5-40.4C346,280.1,327,266.6,290.3,266.6z"/>
</svg>
