<?xml version="1.0" encoding="UTF-8"?>
<svg id="Layer_2" data-name="Layer 2" xmlns="http://www.w3.org/2000/svg" viewBox="0 0 217.82 53.25">
  <defs>
    <style>
      .cls-1 {
        fill: #fff;
      }

      .cls-1, .cls-2, .cls-3 {
        stroke-width: 0px;
      }

      .cls-2 {
        fill: #101011;
      }

      .cls-3 {
        fill: #425eab;
      }
    </style>
  </defs>
  <g id="Layer_1-2" data-name="Layer 1">
    <g>
      <g>
        <path class="cls-2" d="m57.09,36.95c.83-.18,1.66-.4,2.48-.65v4.52c-.82.27-1.67.49-2.54.68-2.01.44-4.02.66-6.02.66-4.13,0-7.29-1.04-9.48-3.12-2.19-2.08-3.28-5.09-3.28-9.04v-7.48h0c2.92,0,5.28,2.36,5.28,5.28v1.8c0,2.59.72,4.55,2.16,5.9s3.56,2.02,6.36,2.02c1.6,0,3.28-.2,5.04-.58Z"/>
        <path class="cls-2" d="m66.81,27.81v24.72h0c-2.92,0-5.28-2.36-5.28-5.28v-24.72h0c2.92,0,5.28,2.36,5.28,5.28Z"/>
        <path class="cls-2" d="m78.82,22.53h0v4.68h0v20.04c0,2.92-2.36,5.28-5.28,5.28h0v-24.71c0-2.92,2.37-5.29,5.29-5.29h0Z"/>
        <path class="cls-2" d="m142.87,31.23c1.08-.52,2.36-.78,3.82-.78h2.08c2.36,0,4.28-1.92,4.28-4.28h-6.56c-2.48,0-4.65.44-6.5,1.34s-3.29,2.13-4.32,3.7-1.54,3.41-1.54,5.52.51,3.95,1.54,5.54c1.03,1.59,2.47,2.83,4.32,3.72s4.02,1.34,6.5,1.34h6.56c0-2.36-1.92-4.28-4.28-4.28h-2.08c-1.47,0-2.74-.26-3.82-.78-1.08-.52-1.91-1.25-2.5-2.2s-.88-2.06-.88-3.34.29-2.39.88-3.32,1.42-1.66,2.5-2.18Zm36.76-.02c-1.03-1.57-2.46-2.81-4.3-3.7-1.84-.89-4.02-1.34-6.52-1.34h-6.56c0,2.36,1.92,4.28,4.28,4.28h2.04c1.49,0,2.78.26,3.86.78s1.92,1.25,2.5,2.18.88,2.04.88,3.32-.29,2.39-.88,3.34c-.59.95-1.42,1.68-2.5,2.2s-2.36.78-3.86.78h-2.04c-2.36,0-4.28,1.92-4.28,4.28h6.56c2.5,0,4.68-.45,6.52-1.34,1.84-.89,3.27-2.13,4.3-3.72,1.03-1.59,1.54-3.43,1.54-5.54s-.52-3.95-1.54-5.52Zm-19.34,22.04h0v-26.16c0-2.92-2.36-5.28-5.28-5.28h0v26.16c0,2.92,2.36,5.28,5.28,5.28Z"/>
        <path class="cls-2" d="m217.39,22.53l-10.53,12.77-3.41,4.13-8.33,10.1v-6.74l12.93-15.83c2.29-2.8,5.72-4.43,9.34-4.43h0Z"/>
        <path class="cls-2" d="m217.82,52.53h0c-3.76,0-7.26-1.92-9.29-5.09l-3.77-5.93,3.53-3.94s9.53,14.97,9.53,14.97Z"/>
        <path class="cls-3" d="m105.65,22.53h21.77c0,2.42-1.97,4.39-4.39,4.39h-21.77c0-2.42,1.97-4.39,4.39-4.39h0Z"/>
        <path class="cls-3" d="m96.75,35.34h28.49c1.2,0,2.18.98,2.18,2.18h0c0,1.22-.99,2.21-2.21,2.21h-28.49c-1.2,0-2.18-.98-2.18-2.18h0c0-1.22.99-2.21,2.21-2.21h0Z"/>
        <path class="cls-3" d="m101.26,48.15h21.77c2.42,0,4.39,1.97,4.39,4.39h-21.77c-2.42,0-4.39-1.97-4.39-4.39h0Z"/>
        <path class="cls-2" d="m193.19,27.82v24.72h0c-2.92,0-5.29-2.36-5.29-5.29v-24.72h0c2.92,0,5.29,2.36,5.29,5.29Z"/>
        <path class="cls-2" d="m80.78,22.53h9.36c2.42,0,4.39,1.97,4.39,4.39h-9.36c-2.42,0-4.39-1.97-4.39-4.39h0Z"/>
        <g>
          <path class="cls-3" d="m29.89,2.09c-2.82,1.13-5.67,2.28-6.32,2.54-.66.26-1.2.52-1.2.57,0,.06.78.4,1.73.76,1.84.72,4.68,1.9,7.39,3.08.93.41,2.24.96,2.93,1.26.68.28,1.26.57,1.27.64s-.68.46-1.55.86c-.88.4-3.07,1.4-4.88,2.22-5.44,2.47-12.52,5.61-14.97,6.67l-.78.34-.06.86c-.03.49-.04.89-.03.92,0,.01.46-.17,1-.41s1.13-.49,1.32-.55l.34-.09.04,7.33.04,7.33.35.69c.54,1.03,2.25,2.57,3.68,3.34,2.97,1.58,8.78,2.99,12.9,3.12l1.15.04.04-10.97.03-10.97-.41-.18c-.23-.11-1.9-.81-3.71-1.58-3.89-1.63-4.86-2.1-4.68-2.27.17-.15,1.96-.61,2.39-.61.17,0,.95.28,1.72.6,2.27,1,4.57,1.95,5.16,2.16.52.18.64.17,1.84-.35.71-.31,2.12-.89,3.12-1.3,1.01-.41,2.77-1.15,3.89-1.63,1.13-.48,2.16-.86,2.28-.86s1.92.71,4,1.55c2.07.86,4.83,1.99,6.13,2.53l2.36.98,1.55-.68c.86-.38,2.07-.92,2.7-1.21.63-.28,3.04-1.33,5.33-2.33,2.28-1,4.17-1.87,4.17-1.93s-.15-.17-.34-.23c-.2-.04-2.73-1.04-5.64-2.21-2.91-1.15-6.36-2.52-7.66-3.04-2.45-.95-8.16-3.22-15.41-6.09-2.27-.9-4.24-1.65-4.37-1.67-.12,0-.26-.06-.31-.12-.11-.14-2.94-1.2-3.22-1.2-.12.01-2.54.95-5.37,2.08h0Zm-5.03,20.75c2.3.92,5.04,2.04,6.1,2.5l1.92.81.04.81c.03.46-.01.89-.09.96-.14.14-1.7-.48-8.23-3.17-1.76-.72-3.4-1.4-3.63-1.47-.37-.15-.41-.23-.46-1.15-.03-.54,0-.98.06-.98.08,0,2.01.75,4.29,1.68h0Z"/>
          <path class="cls-3" d="m17.78,7.08c-1.75.71-15.59,6.47-17.12,7.14-.37.15-.66.31-.66.35.01.11,10.91,4.61,11.14,4.6.14,0,.14.12.04.41-.08.24-.21.95-.31,1.58-.24,1.63-.26,1.65-.89,1.98-.54.28-1.27.93-1.06.93.06,0-.03.14-.18.29-.69.69-.51,2.48.32,3.26.26.24.44.46.41.48-.03.03-.4.14-.83.23-.81.21-1.2.44-1.06.66.04.08-.01.14-.14.14-.37,0-.68.51-1.03,1.68-.18.63-.68,2.25-1.1,3.6-1.55,4.89-1.65,5.3-1.41,5.4s.74-.28,1.87-1.36c.78-.76.83-.78,1.32-.61.28.11.64.18.81.18.24,0,.35.15.49.71.28,1.1,1.06,2.7,1.27,2.64.2-.06,2.45-8.78,2.67-10.27.08-.61.03-.83-.29-1.38-.21-.37-.52-.8-.71-.95-.46-.41-.41-.49.35-.69,1.12-.28,2.13-1.82,1.85-2.82-.29-.98-1-1.92-1.61-2.13-.12-.03-.09-.57.09-1.82l.26-1.78,1.16-.51c1.12-.48,2.48-1.07,9.52-4.18,6.5-2.87,7.59-3.34,7.66-3.45.04-.06.18-.12.31-.15.12-.03.32-.11.46-.18.2-.12.2-.14,0-.15-.12,0-.98-.32-1.92-.71-.92-.38-2.4-1-3.29-1.36-4.81-1.99-6.16-2.53-6.33-2.53-.11.01-1.04.37-2.1.78h0Z"/>
        </g>
      </g>
      <rect class="cls-3" x="80.78" y="7.37" width="137.04" height="10.4" rx="4.68" ry="4.68"/>
      <g>
        <path class="cls-1" d="m91.36,13.16c-.04.36-.17.68-.39.96-.22.28-.5.49-.85.65-.35.16-.75.23-1.2.23-.51,0-.96-.1-1.35-.31-.39-.21-.69-.49-.9-.86-.21-.37-.32-.79-.32-1.27s.11-.91.32-1.27c.21-.37.51-.65.9-.86.39-.21.84-.31,1.35-.31.45,0,.84.08,1.2.23s.64.37.85.65.35.6.39.96h-.37c-.05-.31-.17-.57-.35-.8-.18-.23-.42-.4-.72-.53s-.63-.19-1.01-.19c-.44,0-.83.09-1.16.26s-.59.42-.77.73c-.18.32-.27.69-.27,1.12s.09.8.27,1.11.44.56.77.74c.33.17.72.26,1.16.26.38,0,.71-.06,1.01-.19.29-.12.53-.3.72-.53.19-.23.3-.49.35-.8h.37Z"/>
        <path class="cls-1" d="m91.43,10.2h4.57v.32h-4.57v-.32Zm2.11.19h.35v4.54h-.35v-4.54Z"/>
        <path class="cls-1" d="m99.24,12.55l.06-.12c.39,0,.7.06.93.17.23.12.4.27.51.45.11.19.16.39.16.62,0,.25-.06.47-.18.66-.12.19-.3.34-.53.44-.23.11-.52.16-.85.16h-2.81l.38-2.43-.38-2.3h2.71c.44,0,.77.1,1,.31s.34.48.34.84c0,.18-.04.36-.13.54-.09.18-.23.33-.43.45-.2.12-.46.2-.79.22Zm-2.34,2.22l-.13-.16h2.61c.36,0,.64-.08.85-.24.2-.16.31-.39.31-.7,0-.33-.12-.58-.36-.75-.24-.17-.6-.26-1.08-.26h-2.04v-.32h2.06c.32,0,.58-.08.79-.25.21-.17.32-.42.32-.75,0-.24-.08-.44-.26-.59s-.42-.23-.75-.23h-2.44l.13-.16.35,2.15-.35,2.27Z"/>
        <path class="cls-1" d="m104.13,15.01c-.51,0-.97-.1-1.36-.31-.39-.21-.7-.49-.92-.86-.22-.37-.33-.79-.33-1.28s.11-.9.33-1.27.52-.65.92-.86c.39-.21.85-.31,1.37-.31s.97.1,1.36.31c.39.21.7.49.91.86s.33.79.33,1.27-.11.91-.33,1.28c-.22.37-.52.66-.91.86-.39.21-.85.31-1.36.31Zm0-.33c.45,0,.85-.09,1.19-.26.34-.17.6-.42.78-.74.18-.32.27-.69.27-1.12s-.09-.8-.27-1.11c-.18-.32-.44-.56-.78-.73s-.73-.26-1.19-.26-.85.09-1.18.26c-.33.17-.59.42-.78.73-.19.32-.28.69-.28,1.12s.09.8.28,1.11c.18.32.44.56.78.74.33.17.73.26,1.18.26Z"/>
        <path class="cls-1" d="m110.02,10.2c.31,0,.58.06.8.17.23.11.41.27.54.47s.2.43.2.69-.07.49-.2.69c-.13.2-.31.36-.54.47-.23.11-.5.17-.8.17h-2.2v-.32h2.2c.35,0,.64-.09.85-.27.21-.18.32-.43.32-.73s-.11-.55-.32-.73c-.21-.18-.5-.27-.85-.27h-2.16l.16-.16v4.57h-.35v-4.73h2.35Z"/>
        <path class="cls-1" d="m112.35,14.93v-4.73h.35v4.64h-.23l3.92-4.64h.46v4.73h-.35v-4.64h.23l-3.92,4.64h-.46Z"/>
        <path class="cls-1" d="m122.43,12.55l.06-.12c.39,0,.7.06.93.17.23.12.4.27.51.45.11.19.16.39.16.62,0,.25-.06.47-.18.66-.12.19-.3.34-.53.44-.23.11-.52.16-.85.16h-2.81l.38-2.43-.38-2.3h2.71c.44,0,.77.1,1,.31s.34.48.34.84c0,.18-.04.36-.13.54-.09.18-.23.33-.43.45-.2.12-.46.2-.79.22Zm-2.34,2.22l-.13-.16h2.61c.36,0,.64-.08.85-.24.2-.16.31-.39.31-.7,0-.33-.12-.58-.36-.75-.24-.17-.6-.26-1.08-.26h-2.04v-.32h2.06c.32,0,.58-.08.79-.25.21-.17.32-.42.32-.75,0-.24-.08-.44-.26-.59s-.42-.23-.75-.23h-2.44l.13-.16.35,2.15-.35,2.27Z"/>
        <path class="cls-1" d="m125.64,10.2h3.91v4.73h-.35v-4.57l.16.16h-3.51l.14-.13c.04.42.07.81.09,1.17.02.36.03.69.03,1,0,.57-.04,1.03-.14,1.39-.09.36-.23.62-.42.8-.19.17-.44.26-.74.26-.1,0-.2,0-.29-.03s-.18-.05-.25-.09v-.32c.17.07.33.11.49.11.35,0,.61-.17.77-.51.16-.34.25-.89.25-1.65,0-.3-.01-.64-.03-1.04-.02-.39-.05-.81-.09-1.26Z"/>
        <path class="cls-1" d="m133,10.2l2.39,4.73h-.4l-2.32-4.64h.31l-2.33,4.64h-.4l2.39-4.73h.35Zm-1.88,3.47v-.32h3.36v.32h-3.36Z"/>
        <path class="cls-1" d="m140.59,13.16c-.04.36-.17.68-.39.96-.22.28-.5.49-.85.65-.35.16-.75.23-1.2.23-.51,0-.96-.1-1.35-.31-.39-.21-.69-.49-.9-.86-.21-.37-.32-.79-.32-1.27s.11-.91.32-1.27c.21-.37.52-.65.9-.86.39-.21.84-.31,1.35-.31.45,0,.84.08,1.2.23s.64.37.85.65c.22.28.35.6.39.96h-.37c-.05-.31-.17-.57-.35-.8-.19-.23-.42-.4-.72-.53s-.63-.19-1.01-.19c-.44,0-.83.09-1.16.26-.33.17-.59.42-.77.73-.18.32-.27.69-.27,1.12s.09.8.27,1.11.44.56.77.74c.33.17.72.26,1.16.26.38,0,.72-.06,1.01-.19.29-.12.53-.3.72-.53.18-.23.3-.49.35-.8h.37Z"/>
        <path class="cls-1" d="m141.49,10.2h.35v4.73h-.35v-4.73Zm.16,2.21h4.06v.32h-4.06v-.32Zm3.81-2.21h.35v4.73h-.35v-4.73Z"/>
        <path class="cls-1" d="m148.9,14.1l-2.33-3.91h.4l2.11,3.53-.18.37Zm-.76.83l.69-1.17h0l2.11-3.56h.4l-2.81,4.73h-.4Z"/>
        <path class="cls-1" d="m153.63,10.2h.35v4.73h-.35v-4.73Z"/>
        <path class="cls-1" d="m159.94,13.16c-.04.36-.17.68-.39.96-.22.28-.5.49-.85.65-.35.16-.75.23-1.2.23-.51,0-.96-.1-1.35-.31-.39-.21-.69-.49-.9-.86-.21-.37-.32-.79-.32-1.27s.11-.91.32-1.27c.21-.37.51-.65.9-.86.39-.21.84-.31,1.35-.31.45,0,.84.08,1.2.23s.64.37.85.65.35.6.39.96h-.37c-.05-.31-.17-.57-.35-.8-.18-.23-.42-.4-.72-.53s-.63-.19-1.01-.19c-.44,0-.83.09-1.16.26s-.59.42-.77.73c-.18.32-.27.69-.27,1.12s.09.8.27,1.11.44.56.77.74c.33.17.72.26,1.16.26.38,0,.71-.06,1.01-.19.29-.12.53-.3.72-.53.19-.23.3-.49.35-.8h.37Z"/>
        <path class="cls-1" d="m160,10.2h4.57v.32h-4.57v-.32Zm2.11.19h.35v4.54h-.35v-4.54Z"/>
        <path class="cls-1" d="m167.19,15.01c-.51,0-.97-.1-1.36-.31-.39-.21-.7-.49-.92-.86-.22-.37-.33-.79-.33-1.28s.11-.9.33-1.27c.22-.37.52-.65.92-.86.39-.21.85-.31,1.37-.31s.97.1,1.36.31c.39.21.7.49.91.86.22.37.33.79.33,1.27s-.11.91-.33,1.28c-.22.37-.52.66-.91.86-.39.21-.85.31-1.36.31Zm0-.33c.45,0,.85-.09,1.19-.26.34-.17.6-.42.78-.74s.27-.69.27-1.12-.09-.8-.27-1.11c-.18-.32-.44-.56-.78-.73-.34-.17-.73-.26-1.19-.26s-.85.09-1.18.26-.59.42-.78.73c-.18.32-.28.69-.28,1.12s.09.8.28,1.11c.19.32.44.56.78.74.33.17.73.26,1.18.26Z"/>
        <path class="cls-1" d="m173.08,10.2c.31,0,.58.06.8.17.23.11.41.27.54.47s.2.43.2.69-.07.49-.2.69c-.13.2-.31.36-.54.47-.23.11-.5.17-.8.17h-2.2v-.32h2.2c.35,0,.64-.09.85-.27.21-.18.32-.43.32-.73s-.11-.55-.32-.73c-.21-.18-.5-.27-.85-.27h-2.16l.16-.16v4.57h-.35v-4.73h2.35Z"/>
        <path class="cls-1" d="m175.41,10.2h.35v4.73h-.35v-4.73Z"/>
        <path class="cls-1" d="m176.99,14.93v-4.73h.35v4.73h-.35Zm.16-2.21v-.32h1.39v.32h-1.39Zm3.78,2.28c-.51,0-.96-.1-1.35-.31-.39-.21-.69-.49-.91-.86-.22-.37-.32-.79-.32-1.28s.11-.9.32-1.27c.22-.37.52-.65.91-.86.39-.21.84-.31,1.35-.31s.96.1,1.34.31c.39.21.69.49.91.86s.32.79.32,1.27-.11.91-.32,1.28c-.22.37-.52.66-.91.86-.39.21-.84.31-1.35.31Zm0-.33c.45,0,.84-.09,1.17-.26.33-.17.59-.42.77-.74.18-.32.27-.69.27-1.11s-.09-.8-.27-1.12c-.18-.32-.44-.56-.77-.73-.33-.17-.72-.26-1.17-.26s-.84.09-1.17.26-.59.42-.77.73c-.18.32-.27.69-.27,1.12s.09.8.27,1.11.44.56.77.74c.33.17.72.26,1.17.26Z"/>
        <path class="cls-1" d="m187.85,14.1l-2.33-3.91h.4l2.11,3.53-.18.37Zm-.76.83l.69-1.17h0l2.11-3.56h.4l-2.81,4.73h-.4Z"/>
        <path class="cls-1" d="m195.43,13.16c-.04.36-.17.68-.39.96-.22.28-.5.49-.85.65-.35.16-.75.23-1.2.23-.51,0-.96-.1-1.35-.31-.39-.21-.69-.49-.9-.86-.21-.37-.32-.79-.32-1.27s.11-.91.32-1.27c.21-.37.51-.65.9-.86.39-.21.84-.31,1.35-.31.45,0,.84.08,1.2.23s.64.37.85.65.35.6.39.96h-.37c-.05-.31-.17-.57-.35-.8-.18-.23-.42-.4-.72-.53s-.63-.19-1.01-.19c-.44,0-.83.09-1.16.26s-.59.42-.77.73c-.18.32-.27.69-.27,1.12s.09.8.27,1.11.44.56.77.74c.33.17.72.26,1.16.26.38,0,.71-.06,1.01-.19.29-.12.53-.3.72-.53.19-.23.3-.49.35-.8h.37Z"/>
        <path class="cls-1" d="m200.62,10.2v4.73h-.35v-4.57l.16.16h-3.91l.16-.16v4.57h-.35v-4.73h4.3Z"/>
        <path class="cls-1" d="m201.85,10.2h.35v4.73h-.35v-4.73Z"/>
        <path class="cls-1" d="m205.24,12.54v-.16l2.09,2.56h-.44l-1.89-2.32h.15l-1.89,2.32h-.44l2.09-2.54v.13l-1.91-2.32h.42l1.73,2.11h-.16l1.73-2.11h.42l-1.91,2.34Z"/>
        <path class="cls-1" d="m209.8,14.1l-2.33-3.91h.4l2.11,3.53-.18.37Zm-.76.83l.69-1.17h0l2.11-3.56h.4l-2.81,4.73h-.4Z"/>
      </g>
    </g>
  </g>
</svg>