<svg width="975" height="415" viewBox="0 0 975 415" fill="none" xmlns="http://www.w3.org/2000/svg">
<g clip-path="url(#clip0_506_179)">
<path d="M312.973 331.077H268.503V409.125H160.682V331.077H0V251.35L167.814 5.87451H268.503V249.671H312.973V331.077ZM160.682 249.671V202.674C160.682 193.862 161.102 182.113 161.521 167.007C162.36 151.901 162.78 144.348 163.199 143.508H160.262C153.969 157.775 146.837 170.783 138.866 183.372L94.3954 249.671H160.682Z" fill="#A6B1E1"/>
<path d="M632.659 208.129C632.659 279.464 620.493 331.916 596.999 365.066C573.085 398.215 536.586 415 487.08 415C438.834 415 402.754 397.796 378.001 362.968C353.668 328.14 341.502 276.527 341.502 208.129C341.502 136.375 353.249 83.9231 377.582 50.3539C401.495 16.7846 437.995 0 487.5 0C535.327 0 571.827 17.6239 596.16 52.452C620.493 87.2801 632.659 138.893 632.659 208.129ZM449.742 208.129C449.742 253.868 452.679 285.339 458.133 302.123C464.006 319.328 473.236 327.72 486.661 327.72C500.086 327.72 509.735 318.908 515.609 301.284C521.063 283.66 524 252.609 524 208.129C524 163.231 521.063 132.179 515.609 114.135C509.735 96.092 500.506 87.2801 487.08 87.2801C473.655 87.2801 464.006 96.092 458.552 113.296C452.679 130.5 449.742 161.972 449.742 208.129Z" fill="#A6B1E1"/>
<path d="M975 331.077H930.529V409.125H822.709V331.077H662.027V251.35L829.841 5.87451H930.529V249.671H975V331.077ZM823.128 249.671V202.674C823.128 193.862 823.548 182.113 823.967 167.007C824.806 151.901 825.226 144.348 825.646 143.508H822.709C816.416 157.775 809.284 170.783 801.313 183.372L756.422 250.091H823.128V249.671Z" fill="#A6B1E1"/>
</g>
<g clip-path="url(#clip1_506_179)">
<path d="M593.274 219.139C626.336 219.139 653.138 192.334 653.138 159.267C653.138 126.2 626.336 99.3943 593.274 99.3943C560.211 99.3943 533.409 126.2 533.409 159.267C533.409 192.334 560.211 219.139 593.274 219.139Z" fill="white"/>
<path d="M396.318 219.139C429.38 219.139 456.182 192.334 456.182 159.267C456.182 126.2 429.38 99.3943 396.318 99.3943C363.255 99.3943 336.453 126.2 336.453 159.267C336.453 192.334 363.255 219.139 396.318 219.139Z" fill="white"/>
<path d="M431.592 110.945C437.72 120.373 441.255 131.531 441.255 143.631C441.255 176.71 414.466 203.504 381.391 203.504C368.192 203.504 356.015 199.182 346.116 191.953C356.801 208.375 375.263 219.14 396.318 219.14C429.392 219.14 456.182 192.346 456.182 159.267C456.104 139.467 446.44 121.866 431.592 110.945Z" fill="#EFEFEF"/>
<path d="M628.47 110.945C634.598 120.373 638.133 131.531 638.133 143.631C638.133 176.71 611.343 203.504 578.268 203.504C565.07 203.504 552.893 199.182 542.994 191.953C553.678 208.375 572.141 219.14 593.195 219.14C626.27 219.14 653.06 192.346 653.06 159.267C653.06 139.467 643.397 121.866 628.47 110.945Z" fill="#EFEFEF"/>
<path d="M396.318 221.89C361.829 221.89 333.703 193.76 333.703 159.267C333.703 124.773 361.829 96.6443 396.318 96.6443C430.807 96.6443 458.932 124.773 458.932 159.267C458.932 193.76 430.885 221.89 396.318 221.89ZM396.318 102.144C364.814 102.144 339.203 127.759 339.203 159.267C339.203 190.775 364.814 216.389 396.318 216.389C427.821 216.389 453.433 190.775 453.433 159.267C453.433 127.759 427.821 102.144 396.318 102.144Z" fill="#231F20"/>
<path d="M394.746 175.139C405.724 175.139 414.623 166.239 414.623 155.26C414.623 144.281 405.724 135.381 394.746 135.381C383.769 135.381 374.87 144.281 374.87 155.26C374.87 166.239 383.769 175.139 394.746 175.139Z" fill="#231F20"/>
<path d="M389.876 159.817C394.388 159.817 398.046 156.159 398.046 151.645C398.046 147.132 394.388 143.474 389.876 143.474C385.363 143.474 381.705 147.132 381.705 151.645C381.705 156.159 385.363 159.817 389.876 159.817Z" fill="white"/>
<path d="M593.274 175.139C604.251 175.139 613.15 166.239 613.15 155.26C613.15 144.281 604.251 135.381 593.274 135.381C582.296 135.381 573.397 144.281 573.397 155.26C573.397 166.239 582.296 175.139 593.274 175.139Z" fill="#231F20"/>
<path d="M588.403 159.817C592.915 159.817 596.573 156.159 596.573 151.645C596.573 147.132 592.915 143.474 588.403 143.474C583.89 143.474 580.232 147.132 580.232 151.645C580.232 156.159 583.89 159.817 588.403 159.817Z" fill="white"/>
<path d="M593.274 221.89C558.785 221.89 530.659 193.76 530.659 159.267C530.659 124.773 558.785 96.6443 593.274 96.6443C627.763 96.6443 655.888 124.773 655.888 159.267C655.888 193.76 627.841 221.89 593.274 221.89ZM593.274 102.144C561.77 102.144 536.159 127.759 536.159 159.267C536.159 190.775 561.77 216.389 593.274 216.389C624.777 216.389 650.389 190.775 650.389 159.267C650.389 127.759 624.777 102.144 593.274 102.144Z" fill="#231F20"/>
<path d="M305.657 86.4298C317.755 94.2871 317.441 71.8938 339.831 56.4149C358.451 43.529 375.97 50.9148 376.049 40.3075C376.127 29.7001 354.837 22.9428 326.711 40.0718C305.735 52.8006 291.594 77.2368 305.657 86.4298Z" fill="#231F20"/>
<path d="M670.029 80.4583C657.695 87.9227 658.716 65.608 636.876 49.3434C618.65 35.8288 600.973 42.6647 601.209 32.0573C601.444 21.45 622.97 15.3999 650.546 33.3931C671.051 46.9076 684.328 71.7367 670.029 80.4583Z" fill="#231F20"/>
<path d="M502.927 359.549C457.518 359.628 405.824 357.899 406.688 331.499C407.552 305.098 452.568 243.497 502.927 246.404C553.286 249.39 607.965 302.898 598.066 332.599C588.167 362.378 527.596 359.549 502.927 359.549Z" fill="#231F20"/>
<path d="M460.817 390.586C478.808 384.771 498.292 383.75 516.832 387.521C522.175 388.621 527.36 390.114 532.466 391.921C533.409 392.236 534.509 391.529 534.745 390.664C535.059 389.643 534.43 388.779 533.488 388.386C515.104 381.707 495.149 380.057 475.901 383.2C470.481 384.064 465.138 385.4 459.953 387.05C457.596 387.757 458.539 391.293 460.817 390.586Z" fill="#231F20"/>
</g>
<defs>
<clipPath id="clip0_506_179">
<rect width="975" height="415" fill="white"/>
</clipPath>
<clipPath id="clip1_506_179">
<rect width="376" height="370" fill="white" transform="translate(300 22)"/>
</clipPath>
</defs>
</svg>
