<?xml version="1.0" encoding="utf-8"?>
<!-- Generator: Adobe Illustrator 28.0.0, SVG Export Plug-In . SVG Version: 6.00 Build 0)  -->
<svg version="1.1" id="Layer_1" xmlns="http://www.w3.org/2000/svg" xmlns:xlink="http://www.w3.org/1999/xlink" x="0px" y="0px"
	 viewBox="0 0 128 128" style="enable-background:new 0 0 128 128;" xml:space="preserve">
<style type="text/css">
	.st0{fill:#539E43;}
</style>
<path class="st0" d="M128,99.1c-4.7,1.2-7.6,0.1-10.1-3.9c-5.8-8.7-12.1-16.9-18.4-25.4c-0.8-1.1-1.6-2.1-2.7-3.5
	c-7.3,9.9-14.7,19.3-21.5,29.1c-2.4,3.5-5,5-9.6,3.8l27.5-36.8L67.7,29c4.4-0.8,7.5-0.4,10.1,3.6c5.9,8.7,12.6,16.9,19.1,25.7
	c6.5-8.7,13.1-17,19.2-25.6c2.4-3.5,5.1-4.8,9.5-3.6c-3.4,4.4-6.6,8.8-9.9,13.2c-4.5,5.8-8.8,11.7-13.5,17.5c-1.6,2-1.3,3.4,0.1,5.3
	C110.9,76.2,119.3,87.6,128,99.1z M0,61.7c0.7-3.7,1.2-7.5,2.2-11c6.1-21.8,31.2-30.9,48.5-17.5c10.1,8,12.7,19.2,12.1,31.7h-57
	c-0.8,22.7,15.4,36.3,36.2,29.4c7.3-2.4,11.6-8.2,13.8-15.3c1.1-3.6,2.9-4.2,6.2-3.2c-1.7,9-5.6,16.4-13.8,21.1
	c-12.2,7-29.7,4.7-38.9-5c-5.4-5.6-7.8-12.8-8.8-20.4c-0.1-1.2-0.5-2.4-0.7-3.7C0,65.8,0,63.8,0,61.7z M6,60.2h51.4
	C57.2,43.8,47,32.2,33,32.1C17.7,32,6.7,43.3,6,60.2z"/>
<g id="Layer_1_00000000902583822432630610000015516377217544927369_">
</g>
</svg>
