<?xml version="1.0" encoding="utf-8"?>
<!-- Generator: Adobe Illustrator 28.0.0, SVG Export Plug-In . SVG Version: 6.00 Build 0)  -->
<svg version="1.1" id="Layer_1" xmlns="http://www.w3.org/2000/svg" xmlns:xlink="http://www.w3.org/1999/xlink" x="0px" y="0px"
	 viewBox="0 0 394.2 289.6" style="enable-background:new 0 0 394.2 289.6;" xml:space="preserve">
<style type="text/css">
	.st0{fill:#FFB8B8;}
	.st1{fill:#F0F0F0;}
	.st2{fill:#3F3D56;}
	.st3{fill:#E6E6E6;}
	.st4{fill:#A6B1E1;}
	.st5{fill:#CCCCCC;}
	.st6{fill:#2F2E41;}
	.st7{fill:#FFFFFF;}
	.st8{fill:#CACACA;}
</style>
<g>
	<path class="st0" d="M316.3,150.8l5.2-55.1l15.5,0.5l-12.3,54.4c2.7,2.3,3.1,6.3,0.7,9.1c-2.3,2.7-6.3,3.1-9.1,0.7
		c-2.7-2.3-3.1-6.3-0.7-9.1C315.8,151.2,316.1,151,316.3,150.8L316.3,150.8z"/>
	<path id="fe9c178f-ba3b-4efa-8f02-91d714d1abd5-2857" class="st1" d="M21.9,273.5c0.2,5.3,1,10.6,2.6,15.7c0,0.1,0.1,0.3,0.1,0.4
		h9.9c0-0.1,0-0.3,0-0.4c-0.6-7.6-4.5-53.8,0.1-61.7C34.3,228.1,21.1,249.4,21.9,273.5z"/>
	<path id="f50bd4c5-ec05-4fbf-a485-473f9149da92-2858" class="st1" d="M23.5,288.8c0.2,0.3,0.4,0.5,0.5,0.7h15.5
		c-0.1-0.2-0.3-0.5-0.5-0.7c-2.5-4.6-10.1-18.5-17.2-32.9c-7.5-15.4-14.5-31.4-14-37.2C7.8,220.1,2.5,259.9,23.5,288.8z"/>
	<path id="b6259e39-7a62-4774-8afe-aeda515ec4c0-2859" class="st1" d="M364.7,265.4c-0.3,8-1.5,15.9-4,23.4
		c-0.1,0.2-0.1,0.4-0.2,0.5h-14.8c0-0.2,0-0.4,0.1-0.5c1-11.2,6.7-80-0.1-91.8C346.3,197.9,365.8,229.4,364.7,265.4z"/>
	<path id="f2d2e7cd-3eee-4477-b585-9c3536763a3f-2860" class="st1" d="M363.6,288.8c-0.1,0.2-0.3,0.4-0.5,0.5H352
		c0.1-0.2,0.2-0.4,0.3-0.5c1.9-3.3,7.2-13.1,12.3-23.4c5.4-11,10.3-22.4,9.9-26.6C374.7,239.7,378.4,268.2,363.6,288.8z"/>
	<path id="b281e673-bc66-4b3c-8141-26a0e4a40fd7-2861" class="st2" d="M44.1,231.8h154c1.6,0,2.9-1.3,2.9-2.9v-38.2
		c0-1.6-1.3-2.9-2.9-2.9h-154c-1.6,0-2.9,1.3-2.9,2.9v38.2C41.3,230.5,42.6,231.8,44.1,231.8z M198.1,189c0.9,0,1.7,0.7,1.7,1.7
		v38.2c0,0.9-0.7,1.7-1.7,1.7h-154c-0.9,0-1.7-0.7-1.7-1.7v-38.2c0-0.9,0.7-1.7,1.7-1.7H198.1z"/>
	<circle id="b3fc6bd5-ca87-44d7-abba-b33fcf0fce6e" class="st3" cx="212.6" cy="266.3" r="11.6"/>
	<path id="a4c0ef2a-4063-4b4c-b7a5-712e67abf83e-2862" class="st3" d="M185.8,259c1.1,0,1.9,0.8,1.9,1.9s-0.8,1.9-1.9,1.9H94.5
		c-1.1,0-1.9-0.8-1.9-1.9s0.8-1.9,1.9-1.9H185.8z"/>
	<path id="b6aac15c-fc94-4bcf-bd22-2b2a2d48a317-2863" class="st3" d="M185.8,270.6c1.1,0,1.9,0.8,1.9,1.9s-0.8,1.9-1.9,1.9h-39.2
		c-1.1,0-1.9-0.8-1.9-1.9s0.8-1.9,1.9-1.9H185.8z"/>
	<circle id="b30606c0-bedc-4458-8bc1-74f9b5197cfe" class="st3" cx="174.1" cy="209.7" r="11.6"/>
	<path id="b0251ef9-ec49-4884-8989-e65898cec086-2864" class="st3" d="M147.4,202.3c1.1,0,1.9,0.8,1.9,1.9s-0.8,1.9-1.9,1.9H56.1
		c-1.1,0-1.9-0.8-1.9-1.9s0.8-1.9,1.9-1.9H147.4z"/>
	<path id="f3fbb845-d219-495e-9ae9-9928c3e8cc79-2865" class="st3" d="M147.4,213.9c1.1,0,1.9,0.8,1.9,1.9s-0.8,1.9-1.9,1.9h-39.2
		c-1.1,0-1.9-0.8-1.9-1.9s0.8-1.9,1.9-1.9H147.4z"/>
	<path id="e4b1ee1b-a1a6-4c2a-970c-d47d8b3fd870-2866" class="st2" d="M74,137.3h154c1.6,0,2.9-1.3,2.9-2.9V2.9
		c0-1.6-1.3-2.9-2.9-2.9H74c-1.6,0-2.9,1.3-2.9,2.9v131.6C71.2,136,72.5,137.3,74,137.3L74,137.3z M228,1.1c0.9,0,1.7,0.7,1.7,1.7
		v131.7c0,0.9-0.7,1.7-1.7,1.7H74c-0.9,0-1.7-0.7-1.7-1.7V2.9C72.3,2,73,1.2,74,1.2L228,1.1L228,1.1z"/>
	<circle id="b10e3043-e731-4e82-8fca-75f9298f00b8" class="st4" cx="204" cy="23.2" r="11.6"/>
	<path id="b8c117d2-374b-429b-9a52-be2e8d6b8684-2867" class="st5" d="M177.3,15.4c1.1,0,1.9,0.8,1.9,1.9c0,1.1-0.8,1.9-1.9,1.9H86
		c-1.1,0-1.9-0.8-1.9-1.9c0-1.1,0.8-1.9,1.9-1.9H177.3z"/>
	<path id="b1daea5a-aca4-46bb-ab1c-9e5888030a38-2868" class="st5" d="M177.3,27c1.1,0,1.9,0.8,1.9,1.9s-0.8,1.9-1.9,1.9H138
		c-1.1,0-1.9-0.8-1.9-1.9c0-1.1,0.8-1.9,1.9-1.9H177.3z"/>
	<path id="a9f6ff6a-7451-4bea-bc5a-628f4bebd58b-2869" class="st6" d="M269.7,278.4h11.8l7-97.7l0.3,24.8l25.6,68.3l10.1-8.1
		l-16.9-68.2l8.1-38h-52.4L269.7,278.4z"/>
	<circle id="a663db6f-60a1-421c-a7e7-5d04aff0cacb" class="st0" cx="288.4" cy="25.2" r="13.9"/>
	<path id="f3cb7545-9624-45d8-a11d-440f1a34aab0-2870" class="st2" d="M261.7,167.3c22.7-5.8,43.9-9.7,57.1-2.7
		c-2.3-24.2,0.4-55.2,8.3-87.5c2.5-10.5,0.8-20-8.5-25.4l-12.5-7.2L286.9,45l-10,5.5c-10.1,5-15.6,16.2-13.5,27.2
		C268.7,106.1,265.8,136.8,261.7,167.3z"/>
	<path id="f6231dd0-d8a8-465e-b214-b8e5de78c90d-2871" class="st2" d="M313.5,99.5l25.1-1.6c-1.9-24.6-7.5-38.2-16-42.7l-9.1,10.7
		V99.5z"/>
	<path id="b1bce2c7-12e1-4551-8863-d6d142670d08-2872" class="st4" d="M37.5,120.2h154c1.6,0,2.9-1.3,2.9-2.9V49.8
		c0-1.6-1.3-2.9-2.9-2.9h-154c-1.6,0-2.9,1.3-2.9,2.9v67.5C34.6,119,36,120.2,37.5,120.2z"/>
	<path id="b8b7ef86-e6be-48b5-b7f8-365881aa5bd2-2873" class="st7" d="M160,70.6c1.1,0,1.9,0.8,1.9,1.9s-0.8,1.9-1.9,1.9H68.7
		c-1.1,0-1.9-0.8-1.9-1.9s0.8-1.9,1.9-1.9H160z"/>
	<path id="a9b62e3b-06cf-4a55-8c8f-4aeba6e5e4c7-2874" class="st7" d="M160,81.7c1.1,0,1.9,0.8,1.9,1.9s-0.8,1.9-1.9,1.9H68.7
		c-1.1,0-1.9-0.8-1.9-1.9s0.8-1.9,1.9-1.9H160z"/>
	<path id="a12f9c39-a43a-4056-b48c-3363dc06a37f-2875" class="st7" d="M160,92.8c1.1,0,1.9,0.8,1.9,1.9s-0.8,1.9-1.9,1.9h-39.2
		c-1.1,0-1.9-0.8-1.9-1.9s0.8-1.9,1.9-1.9H160z"/>
	<path id="e7c770ea-313c-4db5-898e-f0c92c7afc68-2876" class="st6" d="M283.6,7c1.3-0.2,2.5,0.6,3.8,0.8c2.6,0.6,5.3-0.6,8-0.6
		c2.3,0.2,4.5,0.7,6.6,1.9c1.6,0.7,3.2,1.8,4.4,3.1s2,3,2.1,4.8c-0.2,1-0.2,2.1,0.1,3.2c0.3,0.5,0.6,1,0.9,1.5
		c0.7,1.1,0.8,2.4,0.5,3.6c-0.5,1.2-1.3,2.3-2.1,3.2c-1.7,2.2-2.8,4.9-4.4,7.2c-0.6,1-1.5,1.9-2.3,2.9c-0.2,0.2-0.4,0.3-0.5,0.5
		c-0.2,0.1-0.4,0.1-0.6,0.1c-3.3,0.1-6.7,0.2-9.7-1.1c-0.9-0.4-1.8-1-2.4-1.9c-0.5-1.2-0.5-2.5-0.3-3.7c0.2-1.4,0.1-2.8-0.1-4.2
		c0-0.5-0.2-0.9-0.5-1.3c-0.5-0.4-1.1-0.4-1.7-0.1c-0.5,0.3-1.1,0.5-1.7,0.5c-1.1,0-1.9-1.3-2.1-2.4c0.3-2-0.6-4.1-2.3-5.3
		c-1.6-2-2.1-4.6-1.5-7.1C278.8,10.2,281,7.2,283.6,7z"/>
	<path id="a71493d8-729a-4860-baf4-314f557d0142-2877" class="st2" d="M82.7,288.4h154c1.6,0,2.9-1.3,2.9-2.9v-38.2
		c0-1.6-1.3-2.9-2.9-2.9h-154c-1.6,0-2.9,1.3-2.9,2.9v38.2C79.7,287.1,81,288.4,82.7,288.4L82.7,288.4z M236.5,245.6
		c0.9,0,1.7,0.7,1.7,1.7v38.2c0,0.9-0.7,1.7-1.7,1.7H82.7c-0.9,0-1.7-0.7-1.7-1.7v-38.2c0-0.9,0.7-1.7,1.7-1.7H236.5z"/>
	<path class="st0" d="M257.1,148.6l5.2-55.1l15.5,0.5l-12.3,54.5c2.7,2.3,3.1,6.3,0.7,9.1c-2.3,2.7-6.3,3.1-9.1,0.7
		c-2.8-2.3-3.1-6.3-0.7-9.1C256.6,149,256.8,148.8,257.1,148.6L257.1,148.6z"/>
	<path id="e519ab1a-c4cc-4940-8e12-0133c9949239-2878" class="st2" d="M256.9,94.7l23.5,5.3l1.1-38.4l-13.4,0.5L256.9,94.7z"/>
	<path class="st6" d="M281.8,277.4h-17l0,0c-6,0-10.9,4.8-10.9,10.9v0.4h27.9V277.4z"/>
	<path class="st6" d="M324.6,263.9l-14.3,9.2l0,0c-5.1,3.2-6.5,10-3.2,14.9l0.2,0.4l23.5-15L324.6,263.9z"/>
	<rect id="f8d1573e-a821-470f-abec-777083782890" x="0" y="288.4" class="st8" width="394.2" height="1.1"/>
</g>
</svg>
