<?xml version="1.0" encoding="utf-8"?>
<!-- Generator: Adobe Illustrator 28.0.0, SVG Export Plug-In . SVG Version: 6.00 Build 0)  -->
<svg version="1.1" id="Layer_1" xmlns="http://www.w3.org/2000/svg" xmlns:xlink="http://www.w3.org/1999/xlink" x="0px" y="0px"
	 viewBox="0 0 540.1 617.3" style="enable-background:new 0 0 540.1 617.3;" xml:space="preserve">
<style type="text/css">
	.st0{fill:#FFD43B;}
</style>
<path class="st0" d="M539.7,116c0-42.5-34.6-77.1-77.1-77.1H77.4C34.9,38.9,0.4,73.5,0.4,116v385.3c0,42.5,34.6,77.1,77.1,77.1
	h385.3c42.5,0,77.1-34.6,77.1-77.1V116z M218.2,536.1c-40.6,0-64.1-20.9-76.1-46.4l41.3-24.9c7.9,14.1,15.2,26,32.6,26
	c16.6,0,27.2-6.5,27.2-31.9V286.6h50.7v173C293.9,512.1,263.1,536.1,218.2,536.1L218.2,536.1z M321.5,484.3l41.3-23.8
	c10.8,17.7,25,30.8,50,30.8c20.9,0,34.4-10.5,34.4-25c0-17.3-13.7-23.5-37-33.7l-12.6-5.4c-36.6-15.5-60.8-35.2-60.8-76.5
	c0-38,29-66.9,74.2-66.9c32.3,0,55.4,11.2,72,40.6l-39.5,25.3c-8.7-15.5-18.1-21.7-32.6-21.7c-14.8,0-24.2,9.4-24.2,21.7
	c0,15.2,9.4,21.3,31.2,30.8l12.6,5.4c43.1,18.4,67.3,37.3,67.3,79.7c0,45.5-35.9,70.6-83.9,70.6
	C366.7,536.1,336.3,513.7,321.5,484.3L321.5,484.3z"/>
</svg>
