<?xml version="1.0" encoding="utf-8"?>
<!-- Generator: Adobe Illustrator 28.0.0, SVG Export Plug-In . SVG Version: 6.00 Build 0)  -->
<svg version="1.1" id="Layer_1" xmlns="http://www.w3.org/2000/svg" xmlns:xlink="http://www.w3.org/1999/xlink" x="0px" y="0px"
	 viewBox="0 0 64 64" style="enable-background:new 0 0 64 64;" xml:space="preserve">
<style type="text/css">
	.st0{fill-rule:evenodd;clip-rule:evenodd;fill:#00678C;}
</style>
<path class="st0" d="M53.6,46.4c-2.8-0.1-4.9,0.2-6.8,1c-0.5,0.2-1.4,0.2-1.4,0.9c0.3,0.3,0.3,0.7,0.6,1.1c0.4,0.7,1.2,1.6,1.8,2.1
	l2.2,1.6c1.4,0.8,2.9,1.3,4.2,2.1c0.8,0.5,1.5,1.1,2.3,1.6c0.4,0.3,0.6,0.7,1.1,0.9v-0.1c-0.2-0.3-0.3-0.8-0.6-1.1l-1-1
	c-1-1.4-2.3-2.5-3.6-3.5c-1.1-0.8-3.6-1.8-4-3.1l-0.1-0.1c0.8-0.1,1.7-0.3,2.4-0.6c1.2-0.3,2.3-0.2,3.5-0.6l1.7-0.5V47
	c-0.6-0.6-1.1-1.5-1.7-2c-1.8-1.5-3.7-3-5.8-4.3c-1.1-0.7-2.5-1.1-3.6-1.7c-0.4-0.2-1.1-0.3-1.4-0.7c-0.6-0.8-1-1.8-1.4-2.7l-2.9-6
	c-0.6-1.4-1-2.7-1.8-3.9c-3.6-5.9-7.5-9.5-13.5-13c-1.3-0.7-2.8-1-4.5-1.4l-2.6-0.1c-0.6-0.2-1.1-0.9-1.6-1.2
	c-2-1.2-7.1-3.9-8.6-0.4C5.7,11.8,8,14,8.8,15.2c0.6,0.8,1.4,1.7,1.8,2.6c0.2,0.6,0.3,1.2,0.6,1.8c0.6,1.5,1.1,3.2,1.8,4.6
	c0.4,0.7,0.8,1.5,1.3,2.1c0.3,0.4,0.8,0.6,0.9,1.2c-0.5,0.7-0.5,1.7-0.8,2.6c-1.3,3.9-0.8,8.8,1,11.6c0.6,0.9,1.9,2.8,3.7,2
	c1.6-0.6,1.2-2.6,1.7-4.3c0.1-0.4,0-0.7,0.2-1v0.1l1.4,2.9c1.1,1.7,3,3.5,4.5,4.6c0.8,0.6,1.5,1.7,2.5,2.1v-0.1h-0.1
	c-0.2-0.3-0.5-0.5-0.8-0.7c-0.6-0.6-1.3-1.4-1.8-2.1c-1.5-1.9-2.8-4.1-3.9-6.3c-0.6-1.1-1-2.3-1.5-3.3c-0.2-0.4-0.2-1-0.6-1.2
	c-0.5,0.8-1.3,1.4-1.7,2.4c-0.7,1.5-0.7,3.3-1,5.2c-0.1,0-0.1,0-0.1,0.1c-1.1-0.3-1.5-1.4-1.9-2.4c-1-2.5-1.2-6.4-0.3-9.2
	c0.2-0.7,1.3-3,0.9-3.7c-0.2-0.7-0.9-1-1.3-1.6c-0.5-0.7-0.9-1.5-1.3-2.2c-0.8-1.9-1.3-4.1-2.2-6c-0.4-0.9-1.2-1.8-1.7-2.7
	c-0.7-0.9-1.4-1.6-1.9-2.7c-0.2-0.4-0.4-1-0.1-1.4c0.1-0.3,0.2-0.4,0.5-0.5c0.5-0.4,1.7,0.1,2.2,0.3c1.3,0.5,2.4,1,3.4,1.7
	c0.5,0.3,1,1,1.6,1.2h0.7c1.1,0.2,2.4,0.1,3.4,0.4c1.8,0.6,3.5,1.5,5,2.4c4.6,2.9,8.3,7,10.9,11.8c0.4,0.8,0.6,1.5,1,2.4
	c0.7,1.7,1.6,3.4,2.4,5.1c0.7,1.6,1.4,3.3,2.5,4.6c0.5,0.7,2.6,1.1,3.6,1.5c0.7,0.3,1.8,0.6,2.4,1c1.2,0.7,2.4,1.6,3.5,2.4
	C51.7,44.9,53.5,45.8,53.6,46.4L53.6,46.4z M18,16.4c-0.5,0-1,0.1-1.4,0.2v0.1h0.1c0.3,0.6,0.8,0.9,1.1,1.4l0.8,1.7l0.1-0.1
	c0.5-0.3,0.7-0.9,0.7-1.7c-0.2-0.2-0.2-0.5-0.4-0.7C18.8,16.8,18.3,16.6,18,16.4L18,16.4z"/>
</svg>
