<?xml version="1.0" encoding="utf-8"?>
<!-- Generator: Adobe Illustrator 28.0.0, SVG Export Plug-In . SVG Version: 6.00 Build 0)  -->
<svg version="1.1" id="Layer_1" xmlns="http://www.w3.org/2000/svg" xmlns:xlink="http://www.w3.org/1999/xlink" x="0px" y="0px"
	 viewBox="0 0 202 202" style="enable-background:new 0 0 202 202;" xml:space="preserve">
<style type="text/css">
	.st0{opacity:0.2027;fill:#A6B1E1;enable-background:new    ;}
	.st1{fill:#231F20;}
	.st2{fill-rule:evenodd;clip-rule:evenodd;fill:#231F20;}
	.st3{fill:#FFFFFF;}
	.st4{fill:#A6B1E1;}
	.st5{fill-rule:evenodd;clip-rule:evenodd;fill:#D1D3D4;}
	.st6{fill-rule:evenodd;clip-rule:evenodd;fill:#FFFFFF;}
</style>
<g>
	<circle id="Oval" class="st0" cx="101" cy="101" r="101"/>
	<path id="Path" class="st1" d="M164.8,138.1c0,0,22.6-59,10.9-68c-11.7-9-60.8-5.4-63.5-2.1c-2.7,3.2-18.5,74.2-18.5,74.2
		L164.8,138.1z"/>
	<path id="Shape" class="st2" d="M93.4,142.5c0.1,0.1,0.2,0.1,0.3,0.1l0,0l71.2-4.1c0.1,0,0.3-0.1,0.3-0.2l0,0
		c0.2-0.4,5.8-15.1,9.8-30.6c5.6-21.2,5.9-33.9,0.9-37.7c-7.1-5.5-27.1-5.8-35.3-5.7c-14,0.2-27.1,1.8-28.6,3.6
		c-2.7,3.2-18,71.4-18.6,74.3C93.3,142.3,93.4,142.4,93.4,142.5z M140.6,64.9h2.6c16,0,27.7,2,32.3,5.6c11,8.5-9.5,63.5-10.9,67.3
		l-70.5,4.1c5.5-24.6,16.3-71.1,18.4-73.6C113.7,66.8,126.2,65.1,140.6,64.9z"/>
	<path id="Path_2" class="st3" d="M73.1,87.2l-10.2,34.2c0,0,21,2.7,21,1.9c0-0.8,4.1-37.6,4.1-37.6L73.1,87.2z"/>
	<path id="Shape_2" class="st2" d="M62.9,121.7c6.4,0.8,16.4,2.1,20,2.1c0.4,0,0.9,0,1.3-0.2c0.1-0.1,0.1-0.2,0.1-0.3
		c0-0.7,2.7-24.9,4.1-37.6c0-0.1,0-0.2-0.1-0.3c-0.1-0.1-0.2-0.1-0.3-0.1l-14.9,1.5c-0.1,0-0.3,0.1-0.3,0.2l-10.2,34.2
		c0,0.1,0,0.2,0,0.3C62.7,121.6,62.8,121.7,62.9,121.7z M83.6,123.1c-1.6,0.2-12.9-1.1-20.2-2l10-33.6l14.3-1.4c0,0.2-0.1,0.6-0.1,1
		C86.8,93.7,83.8,120.3,83.6,123.1z"/>
	<path id="Path_3" class="st3" d="M53.8,78.7c0.1,0.1,3.7-0.9,5.6,1.4c1.9,2.2-0.6,4.2-6.4,3.1C47,82,53.8,78.7,53.8,78.7z"/>
	<path id="Shape_3" class="st2" d="M52.9,83.5c1,0.2,2.1,0.3,3.2,0.3c2,0,3.5-0.5,4.1-1.4c0.4-0.8,0.3-1.7-0.5-2.5
		c-1.6-2-4.5-1.6-5.5-1.5c0,0,0,0,0,0h-0.2c-0.1,0-0.1,0-0.2,0c-0.6,0.3-3.7,1.9-3.5,3.4C50.3,82.6,51.2,83.2,52.9,83.5z M50.9,81.7
		c-0.1-0.8,1.7-2,3-2.7c0.1,0,0.2,0,0.3,0c1-0.1,3.5-0.4,4.9,1.2c0.5,0.4,0.6,1.1,0.4,1.7C59,82.8,57,83.6,53,82.8
		C51.2,82.4,50.9,81.9,50.9,81.7z"/>
	<path id="Path_4" class="st3" d="M44.7,71.5c0,0-0.7-0.9-0.3-1.4c0.2-0.2,0.5-0.4,0.9-0.3c0.3,0,0.6,0.2,0.8,0.5
		C46.1,70.2,44.9,70.6,44.7,71.5z"/>
	<path id="Shape_4" class="st2" d="M44.5,71.8c0.1,0.1,0.2,0.1,0.3,0.1l0.1,0c0.1,0,0.2-0.1,0.3-0.3c0.1-0.6,0.9-0.9,1.1-1
		c0.1,0,0.2-0.1,0.2-0.2c0-0.1,0-0.2-0.1-0.3c-0.3-0.4-0.7-0.6-1.2-0.6c-0.4,0-0.7,0.2-1,0.5C43.7,70.5,44.1,71.4,44.5,71.8z
		 M44.8,70.3c0.1-0.1,0.3-0.2,0.4-0.2l0,0c0.1,0,0.2,0,0.3,0c-0.3,0.2-0.5,0.4-0.7,0.6C44.7,70.6,44.7,70.4,44.8,70.3z"/>
	<path id="Path_5" class="st3" d="M46.4,70.2c-0.8,0.1-1.5,0.7-1.7,1.5l14.7,19.2c0.2-1.9,1.6-3.4,3.5-3.7L46.4,70.2z"/>
	<path id="Shape_5" class="st2" d="M59.1,91.1c0.1,0.1,0.2,0.1,0.3,0.1l0.1,0c0.1,0,0.2-0.2,0.3-0.3c0.2-1.7,1.5-3.1,3.2-3.3
		c0.1,0,0.2-0.1,0.3-0.2c0-0.1,0-0.3-0.1-0.4l-16.6-17c-0.1-0.1-0.2-0.1-0.3-0.1c-1,0.1-1.8,0.8-2,1.8c0,0.1,0,0.2,0.1,0.3
		L59.1,91.1z M59.2,90.1L45.1,71.6c0.1-0.6,0.6-1,1.2-1.1l16,16.4C60.8,87.4,59.6,88.6,59.2,90.1z"/>
	<path id="Path_6" class="st3" d="M59.4,90.9l5,2.6l0.6-0.6l-2.1-5.7C62.9,87.2,59,86.8,59.4,90.9z"/>
	<path id="Shape_6" class="st2" d="M64.3,93.8c0.1,0,0.1,0,0.2,0c0.1,0,0.2,0,0.2-0.1l0.6-0.6c0.1-0.1,0.1-0.3,0.1-0.4l-2.1-5.7
		c0-0.1-0.2-0.2-0.3-0.2c-1.1-0.1-2.2,0.3-3,1c-0.8,0.8-1.1,2-0.9,3.1c0,0.1,0.1,0.2,0.2,0.3L64.3,93.8z M64.4,93.1l-4.6-2.4
		c-0.1-0.8,0.1-1.7,0.7-2.3c0.6-0.5,1.4-0.8,2.3-0.8l2,5.3L64.4,93.1z"/>
	<path id="Path_7" class="st3" d="M64.4,93.5l1,1l0.5-0.5L65,92.9L64.4,93.5z"/>
	<path id="Shape_7" class="st2" d="M65.1,94.8c0.1,0.1,0.2,0.1,0.3,0.1h0c0.1,0,0.2,0,0.3-0.1l0.5-0.5c0.1-0.1,0.1-0.3,0-0.4
		l-0.8-1.1c-0.1-0.1-0.2-0.1-0.3-0.1c-0.1,0-0.2,0-0.3,0.1l-0.6,0.6c-0.1,0.1-0.1,0.2-0.1,0.2c0,0.1,0,0.2,0.1,0.3L65.1,94.8z
		 M65.4,94l-0.5-0.5l0.1-0.1L65.4,94z"/>
	<path id="Path_8" class="st3" d="M54.7,92.4c0.8-1.6,2.8-5.1,3.3-6.6c1.3-4.1-6.3-8-8.7-8s-7.5,8.5-7.5,13.1
		c0,4.6,16.9,39.5,16.9,39.5l16.2-7.4L54.7,92.4z"/>
	<path id="Shape_8" class="st2" d="M58.4,130.6c0.1,0.1,0.2,0.2,0.3,0.2c0.1,0,0.1,0,0.2,0l16.2-7.4c0.1,0,0.2-0.1,0.2-0.2
		c0-0.1,0-0.2,0-0.3L55.2,92.4c0.2-0.3,0.3-0.6,0.5-1c0.1-0.3,0.3-0.5,0.4-0.8c0.9-1.5,1.6-3.1,2.3-4.7c0.4-1.3,0-2.7-0.8-3.8
		c-2-2.7-6.4-4.7-8.2-4.7c-2.7,0-7.9,8.9-7.9,13.5c0,4.5,15.5,36.6,16.9,39.5C58.4,130.5,58.4,130.5,58.4,130.6z M42.2,90.9
		c0-4.5,5-12.8,7.2-12.8c1.6,0,5.7,1.8,7.7,4.4c0.8,0.9,1,2,0.7,3.1c-0.6,1.6-1.4,3.1-2.2,4.6c-0.4,0.8-0.8,1.5-1,2
		c-0.1,0.1-0.1,0.2,0,0.4l20,30.2l-15.5,7.1l0-0.1C57,125.9,42.2,95,42.2,90.9z"/>
	<path id="Path_9" class="st4" d="M141.1,99.3l20-5.1c-0.7-1-8.8-26.6-17.3-30.8c-7.4-4.9-25.1-8.2-40.7-7.1c0,0-4.1-0.2-11.3,2.7
		c-17.6,7-21,31.3-21,31.3l13.7,4.7c0,0-2.6,31.5-5.1,47.9c0,0,30.3,5.9,74.5-1.4C154,141.6,141.2,104,141.1,99.3z"/>
	<path id="Path_10" class="st4" d="M139.4,64.1c-2.6,2.7-4.7,6-7.6,8.6c-6.3,5.6-14.5,10-23.2,9.5c-10.2-0.6-19-7.6-21.2-17.7
		c-1.4-6.4,0.1-12.3,5-16.7c3.4-3.1,7.7-5,12.2-6.2c11.8-3.2,25.1-1.5,35.1,5.5c1.6,1,3,2.4,4.1,4c2.5,4.6-0.4,9.3-3.6,12.4
		C139.9,63.6,139.7,63.9,139.4,64.1z"/>
	<path id="Path_11" class="st1" d="M104.7,71.3c-0.1,0-2,2.3-2.1,2.3c1.1,4.1,2.2,9.4,6.8,9.9c9.3,1.1,10.7-11.4,12.5-17.2
		C115.4,68.1,110.9,68.8,104.7,71.3z"/>
	<path id="Shape_9" class="st2" d="M109.4,83.9c0.4,0,0.7,0.1,1.1,0.1c7.3,0,9.5-8.7,10.9-14.6c0-0.1,0.1-0.2,0.1-0.3
		c0.2-1,0.5-1.9,0.7-2.7c0-0.1,0-0.2-0.1-0.3c-0.1-0.1-0.2-0.1-0.3-0.1c-2,0.6-3.8,1-5.6,1.5l0,0c-4,0.9-7.9,2.1-11.7,3.6
		c-0.1,0-0.1,0.1-1.2,1.3c-0.4,0.4-0.9,1-1,1.1c-0.1,0.1-0.2,0.2-0.1,0.4l0.2,0.7l0,0C103.5,78.4,104.8,83.4,109.4,83.9z
		 M103.1,74.2l-0.1-0.5h0c0.2-0.2,0.4-0.5,0.9-1.1c0.4-0.4,0.8-1,1-1.1c3.8-1.5,7.6-2.6,11.6-3.5c0.3-0.1,0.6-0.2,0.9-0.2
		c1.3-0.3,2.6-0.7,4.1-1.1c-0.2,0.7-0.4,1.6-0.6,2.4l0,0c-1.6,6.3-3.7,14.8-11.3,14C105.3,82.7,104.1,78.2,103.1,74.2L103.1,74.2z"
		/>
	<path id="Path_12" class="st3" d="M113.7,23.4c-1.4-0.1-2.2,0.5-3.4,1c-2.3,0.8-3.4-1.1-5.3-2.1c-6.4-3.3-14.3-1.7-18.8,3.9
		c-1.4,1.6-2.3,3.6-2.6,5.7c-0.3,2.4,0.4,4.8,0,7.2c-0.5,2.7-2.4,5-5,6c2.2,0.2,4.4,0,6.5-0.6c-1.2,1.5-3,2.3-5,2.4
		c2.2,1.7,4.9,2.6,7.6,2.6l-4.8,1.1c4.1,2.6,9.1,3.4,14,3.2c9.7-0.5,25.8-4.5,25.6-17C122.3,32,119.6,23.7,113.7,23.4z"/>
	<path id="Shape_10" class="st2" d="M82.7,50.9c4.1,2.6,8.8,3.3,12.5,3.3c0.6,0,1.1,0,1.7-0.1c2.9-0.2,10.4-0.9,16.6-4
		c6.3-3.1,9.4-7.6,9.2-13.3c-0.1-5.4-3.1-13.4-9-13.7c-0.9,0-1.9,0.2-2.7,0.6c0,0-0.1,0-0.1,0.1c-0.2,0.1-0.5,0.2-0.7,0.3
		c-1.4,0.5-2.3-0.2-3.4-1c-0.5-0.4-1.1-0.8-1.7-1.1c-6.6-3.4-14.6-1.7-19.3,4c-1.4,1.7-2.3,3.7-2.6,5.9c-0.1,1.1-0.1,2.3,0,3.4
		c0.1,1.2,0.1,2.5,0,3.7c-0.5,2.6-2.3,4.8-4.8,5.8c-0.2,0.1-0.2,0.2-0.2,0.4c0,0.2,0.1,0.3,0.3,0.3c1.8,0.1,3.7,0,5.4-0.3
		c-1.1,0.9-2.5,1.4-3.9,1.4c-0.1,0-0.3,0.1-0.3,0.2c0,0.1,0,0.3,0.1,0.4c1.6,1.3,3.6,2.1,5.6,2.5l-2.7,0.6c-0.1,0-0.2,0.1-0.3,0.3
		C82.5,50.6,82.6,50.8,82.7,50.9z M96.8,53.5c-3.6,0.2-8.6-0.2-13.1-2.7l4-1c0.2,0,0.3-0.2,0.3-0.4c0-0.2-0.2-0.3-0.3-0.3
		c-2.4,0-4.7-0.7-6.7-1.9c1.7-0.3,3.2-1.1,4.3-2.4c0.1-0.1,0.1-0.3,0-0.4c-0.1-0.1-0.2-0.2-0.4-0.1c-1.6,0.5-3.4,0.7-5.1,0.7
		c2.1-1.2,3.5-3.3,4-5.7c0.2-1.3,0.2-2.6,0.1-3.9c-0.1-1.1-0.1-2.2,0-3.3c0.3-2,1.2-3.9,2.5-5.5c4.4-5.5,12.1-7.1,18.4-3.9
		c0.5,0.3,1.1,0.6,1.6,1c1.2,0.9,2.3,1.7,4.1,1.1c0.3-0.1,0.6-0.2,0.8-0.3c0,0,0.1,0,0.1,0c0.7-0.4,1.6-0.6,2.4-0.6
		c5.5,0.3,8.2,7.9,8.4,13c0.1,5.4-2.9,9.7-8.9,12.7C107,52.6,99.7,53.3,96.8,53.5z"/>
	<path id="Path_13" class="st3" d="M101.9,61.8l0.7,11.8c0,0,5.4,6.2,12.3,2.4c7-3.8,6.7-9.8,6.7-9.8L117.1,44c0,0-6.3-1.5-7.9-13.9
		c-5.4,4.3-11.8,7-18.6,7.9c0,0,0.1,13.9,2.6,19.4C95.6,63,101.9,61.8,101.9,61.8z"/>
	<path id="Shape_11" class="st2" d="M102.3,73.9c0,0.1,3.3,3.7,8,3.7c1.7,0,3.3-0.5,4.7-1.3c7-3.8,6.9-9.9,6.9-10.2c0,0,0,0,0,0
		l-4.6-22.2c0-0.1-0.1-0.2-0.3-0.3c-1.3-0.4-2.4-1.2-3.2-2.2c-1.6-1.7-3.6-5.1-4.4-11.4c0-0.1-0.1-0.2-0.2-0.3c-0.1,0-0.3,0-0.3,0.1
		c-5.3,4.2-11.7,6.9-18.4,7.8c-0.2,0-0.3,0.2-0.3,0.3l0,0c0,0.7,0.2,14.1,2.6,19.6c2.2,4.9,7.3,4.8,8.8,4.6l0.7,11.5
		C102.3,73.7,102.3,73.8,102.3,73.9z M114.8,75.7c-6.3,3.4-11.2-1.5-11.9-2.2l-0.7-11.7c0-0.1-0.1-0.2-0.1-0.3
		c-0.1-0.1-0.2-0.1-0.3-0.1l0,0c-0.3,0-6.1,1-8.4-4.2c-2.2-4.9-2.5-16.9-2.5-19c6.5-1,12.7-3.6,18-7.6c1.6,10.8,6.7,13.1,7.9,13.5
		l4.5,22c0,0,0,0,0,0C121.3,66.4,121.4,72.1,114.8,75.7z"/>
	<path id="Path_14" class="st3" d="M114.5,50.2c1.6,0.2,3.3-0.2,4.6-1.1c1.8-1.4,2.7-3.7,2.5-6c0-0.8-0.3-1.7-0.7-2.4
		c-0.4-0.7-1.1-1.3-1.9-1.5c-1-0.1-2,0.2-2.9,0.8c-1.3,0.7-1.4,1.4-2.1,2.6c0.1-0.1,0.1-0.4,0.2-0.5"/>
	<path id="Path_15" class="st1" d="M115.4,50.7c-0.3,0-0.7,0-1-0.1c-0.2,0-0.3-0.2-0.3-0.4c0-0.1,0.1-0.2,0.1-0.2
		c0.1-0.1,0.2-0.1,0.3-0.1c1.5,0.2,3.1-0.2,4.3-1.1c1.7-1.4,2.6-3.5,2.3-5.7c0-0.8-0.2-1.6-0.6-2.3c-0.4-0.6-1-1.1-1.7-1.3
		c-0.8-0.2-1.7,0.2-2.6,0.7c-0.7,0.3-1.2,0.9-1.4,1.5c-0.1,0.3-0.3,0.6-0.5,0.9c0,0,0,0.1-0.1,0.1c-0.1,0.1-0.3,0.2-0.5,0.1
		c-0.2-0.1-0.2-0.3-0.1-0.5c0,0,0-0.1,0-0.1c0-0.1,0.1-0.2,0.2-0.4c0,0,0.1-0.1,0.1-0.1l0.1-0.2c0.3-0.8,1-1.4,1.7-1.8
		c0.8-0.4,1.9-1,3.1-0.8c0.9,0.2,1.8,0.8,2.2,1.6c0.4,0.8,0.7,1.7,0.7,2.5c0.3,2.4-0.7,4.8-2.6,6.3
		C118.1,50.2,116.8,50.7,115.4,50.7z"/>
	<path id="Path_16" class="st1" d="M102.3,68.1c2.7-0.2,5.2-1.7,6.6-4.1c2.4-4,1.5-6.6,1.5-6.6s-3.3,4.2-8.4,4.5L102.3,68.1z"/>
	<path id="Shape_12" class="st2" d="M101.9,68.1c0,0.2,0.2,0.3,0.3,0.3l0,0c2.9-0.2,5.4-1.8,6.9-4.2c2.5-4.1,1.5-6.8,1.5-6.9
		c0-0.1-0.1-0.2-0.3-0.2c-0.1,0-0.2,0-0.3,0.1c0,0,0,0,0,0c-0.1,0.1-3.3,4.1-8.2,4.4c-0.1,0-0.2,0-0.2,0.1c-0.1,0.1-0.1,0.2-0.1,0.2
		L101.9,68.1z M102.6,67.7l-0.3-5.5c3-0.4,5.8-1.8,7.8-4.1c0.1,1,0.1,3-1.6,5.7C107.3,65.9,105.1,67.4,102.6,67.7z"/>
	<path id="Path_17" class="st3" d="M101,43c0,0-2.6,6.8-1.4,7.6c1.2,0.8,3.6-0.5,3.6-0.5"/>
	<path id="Path_18" class="st1" d="M100.6,51.2c-0.4,0-0.9-0.1-1.2-0.3c-1.3-0.9,0.7-6.3,1.3-8c0.1-0.2,0.3-0.3,0.4-0.2
		c0.1,0,0.2,0.1,0.2,0.2c0,0.1,0,0.2,0,0.3c-1.2,3.2-2.1,6.8-1.5,7.2c0.8,0.6,2.6-0.2,3.3-0.5c0.2-0.1,0.4,0,0.5,0.1
		c0.1,0.2,0,0.4-0.2,0.5C102.5,50.9,101.6,51.2,100.6,51.2z"/>
	
		<ellipse id="Oval_2" transform="matrix(0.9515 -0.3075 0.3075 0.9515 -7.6537 34.4957)" class="st1" cx="105.6" cy="41.5" rx="1" ry="1.4"/>
	
		<ellipse id="Oval_3" transform="matrix(0.9999 -1.361315e-02 1.361315e-02 0.9999 -0.5861 1.3169)" class="st1" cx="96.4" cy="43.7" rx="1" ry="1.4"/>
	<path id="Shape_13" class="st2" d="M100,58.8c0.5,0.4,1.2,0.6,1.9,0.5c0.4,0,0.8-0.1,1.2-0.2c1.6-0.5,3-1.8,3.6-3.4
		c0.5-1.3,0.7-2.7,0.6-4.1c0-0.1-0.1-0.2-0.1-0.2c-0.2-0.1-0.3-0.2-9.1,1.8c-0.2,0-0.3,0.2-0.3,0.4v0C97.6,53.7,97.8,57.2,100,58.8z
		 M100.4,58.2c-1.6-1.1-1.9-3.6-2-4.4v0c2.8-0.6,7-1.5,8.2-1.7c0.1,1.2-0.1,2.3-0.5,3.4c-0.5,1.4-1.7,2.5-3.2,3
		C102,58.8,101.1,58.7,100.4,58.2z"/>
	<path id="Path_19" class="st1" d="M106.3,55.7c-1.3,3.2-4.6,3.9-6.2,2.8c0.3-1.2,1-2.5,2.2-2.9C103.6,55.2,105,55.2,106.3,55.7z"/>
	<path id="Shape_14" class="st2" d="M100,58.8c0.5,0.4,1.2,0.6,1.9,0.5c0.4,0,0.8-0.1,1.2-0.2c1.6-0.5,3-1.7,3.6-3.4
		c0-0.1,0-0.2,0-0.3c0-0.1-0.1-0.2-0.2-0.2c-1.4-0.5-2.8-0.6-4.2-0.1c-1.1,0.4-1.9,1.5-2.4,3.2C99.8,58.6,99.8,58.7,100,58.8z
		 M102.8,58.5c-0.7,0.2-1.6,0.2-2.3-0.1c0.4-1.3,1-2.1,1.9-2.5c1.1-0.4,2.3-0.4,3.4,0C105.3,57.1,104.2,58.1,102.8,58.5z"/>
	<path id="Shape_15" class="st2" d="M88.2,46.9c0.2,0.9,1,1.6,2,1.6c0.1,0,0.3,0,0.4-0.1l7.7-1.7c1.1-0.3,1.8-1.3,1.5-2.4l-0.7-3.3
		c-0.1-0.5-0.4-1-0.9-1.3c-0.5-0.3-1-0.4-1.6-0.3l-7.7,1.7c-1.1,0.2-1.8,1.3-1.6,2.5L88.2,46.9z M96.9,40.2c0.1,0,0.2,0,0.3,0l0,0
		c0.6,0,1.2,0.4,1.3,1.1l0.7,3.3c0.1,0.7-0.3,1.4-1,1.6l-7.7,1.7c-0.7,0.1-1.4-0.3-1.6-1l-0.7-3.3c-0.1-0.7,0.3-1.4,1-1.6L96.9,40.2
		z"/>
	<path id="Shape_16" class="st2" d="M102.7,45.2c0.3,0.2,0.7,0.3,1.1,0.3c0.2,0,0.3,0,0.5,0l7.6-1.7c1.1-0.3,1.8-1.4,1.5-2.5
		l-0.7-3.3c-0.1-0.5-0.4-1-0.9-1.3c-0.5-0.3-1-0.4-1.6-0.3l-7.6,1.7c-0.5,0.1-1,0.4-1.3,0.9c-0.3,0.5-0.4,1-0.3,1.6l0.7,3.3
		C102,44.4,102.3,44.9,102.7,45.2z M110.5,37.2c0.1,0,0.2,0,0.3,0c0.6,0,1.2,0.4,1.3,1.1l0.7,3.3c0.1,0.4,0,0.7-0.2,1
		c-0.2,0.3-0.5,0.5-0.9,0.6l-7.7,1.7c-0.7,0.1-1.4-0.3-1.6-1l-0.7-3.3c-0.1-0.4,0-0.7,0.2-1c0.2-0.3,0.5-0.5,0.9-0.6L110.5,37.2z"/>
	<path id="Path_20" class="st1" d="M98.8,41.5c-0.1,0-0.1,0-0.2,0c-0.2-0.1-0.2-0.3-0.1-0.5c0.3-0.6,1.4-1.4,3.1-0.7
		c0.2,0.1,0.3,0.3,0.2,0.5c-0.1,0.2-0.3,0.3-0.5,0.2c-1.5-0.6-2.2,0.3-2.2,0.4C99.1,41.5,98.9,41.5,98.8,41.5z"/>
	<path id="Path_21" class="st3" d="M30.5,132.9h141.1l22.6,41.4H7.8L30.5,132.9z"/>
	<path id="Shape_17" class="st5" d="M7.8,174.6h186.3c0.1,0,0.2-0.1,0.3-0.2c0.1-0.1,0.1-0.2,0-0.3l-22.6-41.4
		c-0.1-0.1-0.2-0.2-0.3-0.2h-141c-0.1,0-0.2,0.1-0.3,0.2L7.5,174.1c-0.1,0.1-0.1,0.2,0,0.3C7.6,174.5,7.7,174.6,7.8,174.6z
		 M193.6,173.9H8.4l22.3-40.7h140.7L193.6,173.9z"/>
	<path id="Path_22" class="st3" d="M32.7,106.2l0.3-1.3c0.7-1.3,1.4-2.2,3.2-2.2h67.2c1.7,0,3.1,1.1,3.6,2.7l10.9,37.5
		c0.6,1.7-0.2,3.5-1.9,4.2l-1.2,0.3L32.7,106.2z"/>
	<path id="Shape_18" class="st2" d="M114.6,147.7c0,0,0.1,0,0.2,0l0.1,0l1.2-0.3c1.8-0.8,2.7-2.8,2.1-4.6l-10.9-37.6
		c-0.5-1.7-2.1-2.9-3.9-3H36.1c-2,0-2.8,1.1-3.5,2.4c0,0,0,0.1,0,0.1l-0.3,1.3c0,0.2,0,0.3,0.2,0.4L114.6,147.7z M114.9,147
		l-81.8-41l0.2-1c0.7-1.3,1.4-2,2.9-2h67.2c1.5,0,2.8,1,3.3,2.5l10.9,37.5c0.4,1.4,0,3.1-1.6,3.8L114.9,147z"/>
	<path id="Path_23" class="st1" d="M114.8,147.4H46.3c-1,0-1.8-0.6-2.1-1.6l-11.5-39.6c-0.1-0.3,0-0.6,0.2-0.9
		c0.2-0.3,0.5-0.4,0.8-0.4H104l11.9,41c0.1,0.4,0,0.7-0.2,1C115.5,147.2,115.2,147.4,114.8,147.4z"/>
	<path id="Shape_19" class="st2" d="M46.3,147.8h68.5c0.5,0,0.9-0.2,1.2-0.6c0.3-0.4,0.4-0.9,0.2-1.3l-11.9-41
		c0-0.1-0.2-0.2-0.3-0.2H33.6c-0.4,0-0.8,0.2-1.1,0.5c-0.3,0.3-0.3,0.8-0.2,1.2l11.5,39.6C44.2,147,45.2,147.7,46.3,147.8z
		 M33.1,105.5c0.1-0.2,0.3-0.3,0.5-0.3h70.1l11.9,40.8c0.1,0.3,0,0.5-0.1,0.7c-0.2,0.2-0.4,0.3-0.7,0.3H46.3c-0.8,0-1.5-0.5-1.8-1.3
		L33,106.1C32.9,105.9,33,105.7,33.1,105.5z"/>
	<path id="Path_24" class="st3" d="M103.3,130.5l-4.2,17.7c-0.5,2-2.2,3.3-4.2,3.3H51.6c-1.3,0-2.6-0.6-3.4-1.6
		c-0.8-1-1.1-2.4-0.8-3.7l3.7-15.7h-3.6L44,145.4c-0.5,2.3,0,4.8,1.5,6.6c1.5,1.9,3.7,3,6.1,3H95c3.6,0,6.8-2.5,7.6-6l4.3-18.5
		H103.3z"/>
	<path id="Shape_20" class="st2" d="M51.6,155.4h43.3c3.8,0,7.1-2.6,8-6.3l4.4-18.5c0-0.1,0-0.2-0.1-0.3c-0.1-0.1-0.2-0.1-0.3-0.1
		h-3.6c-0.2,0-0.3,0.1-0.3,0.3l-4.2,17.7c-0.4,1.8-2,3.1-3.9,3.1H51.6c-1.2,0-2.4-0.6-3.1-1.5c-0.8-1-1-2.2-0.8-3.4l3.7-15.7
		c0-0.1,0-0.2-0.1-0.3c-0.1-0.1-0.2-0.1-0.3-0.1h-3.6c-0.2,0-0.3,0.1-0.3,0.3l-3.5,14.9c-0.6,2.4,0,5,1.6,7
		C46.7,154.3,49.1,155.4,51.6,155.4z M44.3,145.5l3.4-14.7h2.9l-3.6,15.3c-0.3,1.4,0,2.8,0.9,4c0.9,1.1,2.2,1.8,3.7,1.8H95
		c2.2,0,4.1-1.5,4.5-3.6l4.1-17.4h2.9l-4.3,18.1c-0.8,3.4-3.8,5.8-7.3,5.8H51.6c-2.3,0-4.5-1-5.9-2.8
		C44.3,150.1,43.8,147.8,44.3,145.5z"/>
	<path id="Path_25" class="st3" d="M159.2,94.4c0,0,6.1,27.3,1.1,34.2c-5,7-40.1,5.9-40.1,5.9s-5.7,6.8-10.6,6.4
		c-4.9-0.5-2.1-9.8,3.8-13.7l-0.8-3.2l30.9-5l-4.1-19.6"/>
	<path id="Path_26" class="st1" d="M110,141.2c-0.2,0-0.3,0-0.5,0c-1.3-0.1-2.4-1-2.7-2.3c-0.8-3,1.7-8.8,6.1-11.9l-0.7-3
		c0-0.1,0-0.2,0-0.3c0.1-0.1,0.1-0.1,0.2-0.2l30.6-4.9l-4-19.2c0-0.1,0-0.2,0.1-0.3c0-0.1,0.1-0.1,0.2-0.1c0.1,0,0.2,0,0.3,0
		c0.1,0,0.1,0.1,0.1,0.2l4.1,19.6c0,0.1,0,0.2-0.1,0.3c-0.1,0.1-0.1,0.1-0.2,0.1l-30.6,4.9l0.7,2.9c0,0.1,0,0.3-0.1,0.4
		c-4.2,2.8-6.7,8.5-6,11.3c0.2,1,1,1.7,2.1,1.8c4.7,0.4,10.3-6.2,10.3-6.3c0.1-0.1,0.2-0.1,0.3-0.1c0.3,0,35,1,39.8-5.7
		c4.8-6.7-1.1-33.6-1.2-33.9c0-0.1,0-0.3,0.1-0.3c0.1-0.1,0.2-0.1,0.3-0.1c0.1,0,0.2,0.1,0.2,0.3c0.3,1.1,6.1,27.5,1,34.5
		c-4.9,6.9-37.3,6.1-40.2,6C119.5,135.7,114.6,141.2,110,141.2z"/>
	<path id="Path_27" class="st1" d="M122.4,80.9c-0.1,0-0.1,0-0.2,0c-0.1,0-0.2-0.1-0.2-0.2s0-0.2,0-0.3c5-10.3,17.8-17.2,17.9-17.3
		c0.1,0,0.2-0.1,0.3,0c0.1,0,0.2,0.1,0.2,0.2c0,0.1,0.1,0.2,0,0.3c0,0.1-0.1,0.2-0.2,0.2c-0.1,0.1-12.7,6.9-17.6,17
		C122.7,80.8,122.5,80.9,122.4,80.9z"/>
	<path id="Path_28" class="st1" d="M101.3,80.4c0,0-0.1,0-0.2,0c-12-5.5-13.4-17.6-13.4-17.7c0-0.2,0.1-0.4,0.3-0.4
		c0.1,0,0.2,0,0.3,0.1c0.1,0.1,0.1,0.1,0.1,0.2c0,0.1,1.4,11.8,13,17.1c0.2,0.1,0.3,0.3,0.2,0.5C101.6,80.3,101.4,80.4,101.3,80.4z"
		/>
	<path id="Path_29" class="st1" d="M46.8,96c-0.2,0-0.3-0.2-0.3-0.3s0.1-0.3,0.3-0.3c5.2-0.2,7.7-3.1,7.7-3.1
		c0.1-0.1,0.1-0.1,0.2-0.1s0.2,0,0.3,0.1c0.2,0.1,0.2,0.3,0,0.5C54.9,92.8,52.3,95.8,46.8,96L46.8,96z"/>
	<path id="Path_30" class="st1" d="M139.3,99.7c-0.2,0-0.3-0.1-0.3-0.3c0-0.1-3.2-12.8-3.7-20.4c0-0.1,0-0.2,0.1-0.3
		c0.1-0.1,0.1-0.1,0.2-0.1c0.2,0,0.4,0.1,0.4,0.3c0.4,7.5,3.6,20.1,3.7,20.2C139.7,99.5,139.6,99.6,139.3,99.7L139.3,99.7z"/>
	<path id="Path_31" class="st1" d="M84,102c-0.1,0-0.2,0-0.2-0.1c-0.1-0.1-0.1-0.2-0.1-0.3l1.7-26.7c0-0.1,0-0.2,0.1-0.2
		c0.1-0.1,0.2-0.1,0.3-0.1c0.1,0,0.2,0,0.2,0.1c0.1,0.1,0.1,0.2,0.1,0.3l-1.7,26.7C84.3,101.8,84.2,102,84,102z"/>
	<path id="Path_32" class="st1" d="M144.7,87c-0.1,0-0.2-0.1-0.3-0.2l-3.3-6.2c0-0.1,0-0.2,0-0.3c0-0.1,0.1-0.2,0.2-0.2l10.3-4.9
		c0.1,0,0.2,0,0.3,0c0.1,0,0.2,0.1,0.2,0.2c0.1,0.2,0,0.4-0.2,0.5l-10,4.7l3,5.6l10.1-3.1c0.1,0,0.3,0,0.3,0.1s0.1,0.2,0.1,0.3
		c0,0.1-0.1,0.2-0.2,0.3l-10.4,3.2L144.7,87z"/>
	<ellipse id="Oval_4" class="st3" cx="153.7" cy="160.3" rx="16.9" ry="5.1"/>
	<path id="Shape_21" class="st5" d="M136.4,160.3c0,3.1,7.6,5.4,17.3,5.4c9.7,0,17.3-2.4,17.3-5.4c0-3.1-7.6-5.4-17.3-5.4
		C144,154.8,136.4,157.2,136.4,160.3z M137.1,160.3c0-2.3,6.7-4.8,16.6-4.8c9.9,0,16.6,2.5,16.6,4.8s-6.7,4.8-16.6,4.8
		C143.7,165,137.1,162.6,137.1,160.3z"/>
	<path id="Path_33" class="st3" d="M140.9,145.7l-0.4,0.1c-1.2,0.2-2.3,0.8-3.1,1.8c-0.9,1.4-0.9,3.2-0.1,4.6
		c1.8,3.2,6.2,4.1,9.6,4.5c0.5,0.1,1,0,1.4-0.1c0.5-0.2,0.8-0.6,0.8-1.1c-0.1-0.4-0.3-0.7-0.7-0.9c-0.4-0.2-0.7-0.3-1.1-0.3
		c-2.1-0.3-4.3-0.6-6.2-1.6c-1.1-0.6-2.7-1.9-1.9-3.3c0.3-0.4,0.7-0.8,1.2-1c1.9-0.9,3.8-0.2,5.7,0.3c0.1,0,0.3,0.1,0.4,0.1
		c0.4-0.1,0.6-0.5,0.6-0.9c-0.1-0.8-0.9-1.4-1.7-1.7C143.9,145.7,142.4,145.5,140.9,145.7z"/>
	<path id="Shape_22" class="st2" d="M146.8,156.9c0.2,0,0.4,0,0.6,0c0.3,0,0.7,0,1-0.2c0.6-0.1,1-0.6,1.1-1.2c0-0.6-0.3-1.2-0.9-1.4
		c-0.4-0.2-0.8-0.3-1.2-0.4l-0.8-0.1c-1.8-0.2-3.7-0.7-5.4-1.4c-0.8-0.4-1.5-1-1.9-1.8c-0.1-0.3-0.1-0.7,0.1-1
		c0.2-0.4,0.6-0.7,1-0.9c1.6-0.8,3.2-0.3,4.9,0.2l0.5,0.2c0.2,0.1,0.4,0.1,0.6,0.1c0.6-0.1,0.9-0.7,0.9-1.2c-0.1-1.1-1.2-1.7-1.9-2
		c-1.5-0.6-3-0.7-4.6-0.5l-0.4,0.1c-1.3,0.2-2.5,0.9-3.3,1.9c-1,1.5-1,3.4-0.1,4.9C138.4,154.9,141.6,156.4,146.8,156.9z
		 M140.6,146.1l0.4-0.1v0c1.4-0.2,2.9-0.1,4.2,0.5c0.4,0.2,1.4,0.6,1.5,1.4c0,0.2-0.1,0.5-0.3,0.5c-0.1,0-0.2,0-0.3,0l-0.5-0.2
		c-1.7-0.5-3.5-1.1-5.4-0.2c-0.5,0.2-1,0.6-1.3,1.1c-0.3,0.5-0.4,1-0.2,1.5c0.4,1,1.2,1.8,2.2,2.2c1.8,0.8,3.6,1.3,5.6,1.5l0.8,0.1
		c0.3,0,0.7,0.1,1,0.3c0.3,0.1,0.4,0.4,0.5,0.6c0,0.3-0.3,0.6-0.6,0.7c-0.4,0.1-0.8,0.2-1.3,0.1c-4.9-0.5-7.9-1.9-9.3-4.3
		c-0.8-1.3-0.8-2.9,0.1-4.2C138.4,146.9,139.4,146.3,140.6,146.1z"/>
	<path id="Path_34" class="st3" d="M142.5,142.2c0,0,3.2,15.8,3.4,16.8c0.3,1,7.8,4.9,13.7,1l5.2-16.2L142.5,142.2z"/>
	<path id="Shape_23" class="st2" d="M148.5,161.1c1.7,0.6,3.4,1,5.2,1c2.1,0,4.2-0.6,6-1.7c0.1,0,0.1-0.1,0.1-0.2l5.2-16.2
		c0-0.1,0-0.2,0-0.3c-0.1-0.1-0.2-0.1-0.3-0.1l-22.4-1.7c-0.1,0-0.2,0-0.3,0.1c-0.1,0.1-0.1,0.2-0.1,0.3c0.1,0.7,3.2,15.9,3.4,16.8
		C145.7,159.7,147.2,160.5,148.5,161.1z M146.2,158.9c-0.2-0.8-2.8-13.7-3.3-16.3l21.5,1.6l-5.1,15.6c-3.6,2.3-7.5,1.5-9.6,0.9
		C147.6,160.1,146.3,159.2,146.2,158.9z"/>
	
		<ellipse id="Oval_5" transform="matrix(4.100371e-02 -0.9992 0.9992 4.100371e-02 4.8169 290.4127)" class="st1" cx="153.7" cy="142.7" rx="4.9" ry="11.2"/>
	<path id="Shape_24" class="st2" d="M153.5,147.9h1.1c2.4,0.1,4.8-0.3,7-1.1c2.3-0.9,3.6-2.2,3.6-3.6c0.1-2.9-4.9-5.4-11.3-5.7
		c-6.5-0.3-11.6,1.8-11.8,4.7C142,145.2,147,147.7,153.5,147.9z M142.8,142.3c0.1-2.3,4.6-4.1,10-4.1l1.1,0c5.9,0.2,10.8,2.5,10.7,5
		c0,1.1-1.2,2.2-3.2,3c-2.5,0.9-5.2,1.3-7.9,1.1C147.6,147,142.7,144.7,142.8,142.3z"/>
	<path id="Shape_25" class="st6" d="M90.5,98.3h36.3c0.2,0,0.3-0.1,0.3-0.3V87.2c0-0.2-0.2-0.3-0.3-0.3H90.5c-0.2,0-0.3,0.2-0.3,0.3
		v10.7C90.2,98.1,90.4,98.3,90.5,98.3z M126.5,97.6H90.9v-10h35.6V97.6z"/>
	<rect id="Rectangle" x="7.8" y="174.2" class="st3" width="186.3" height="7.2"/>
	<path id="Shape_26" class="st5" d="M7.8,181.8h186.3c0.2,0,0.3-0.2,0.3-0.3v-7.2c0-0.2-0.2-0.3-0.3-0.3H7.8c-0.2,0-0.3,0.2-0.3,0.3
		v7.2C7.5,181.6,7.6,181.8,7.8,181.8z M193.8,181.1H8.2v-6.5h185.7V181.1z"/>
	<path id="Path_35" class="st3" d="M164.8,107.1c-0.2,0-0.3-0.2-0.3-0.3c0-0.8,0.5-19.4,2.6-25.8c2.1-6.4,5.9-9.1,6.1-9.2
		c0.2-0.1,0.4-0.1,0.5,0.1c0.1,0.2,0.1,0.4-0.1,0.5c0,0-3.8,2.6-5.8,8.9c-2,6.3-2.5,25.5-2.5,25.7c0,0.1,0,0.2-0.1,0.2
		C165,107.1,164.9,107.1,164.8,107.1z"/>
</g>
</svg>
