<?xml version="1.0" encoding="utf-8"?>
<!-- Generator: Adobe Illustrator 28.0.0, SVG Export Plug-In . SVG Version: 6.00 Build 0)  -->
<svg version="1.1" id="Layer_1" xmlns="http://www.w3.org/2000/svg" xmlns:xlink="http://www.w3.org/1999/xlink" x="0px" y="0px"
	 viewBox="0 0 202 202" style="enable-background:new 0 0 202 202;" xml:space="preserve">
<style type="text/css">
	.st0{opacity:0.2027;fill:#A6B1E1;enable-background:new    ;}
	.st1{fill:#FFFFFF;}
	.st2{fill-rule:evenodd;clip-rule:evenodd;fill:#231F20;}
	.st3{fill:#231F20;}
	.st4{fill:#A6B1E1;}
	.st5{fill-rule:evenodd;clip-rule:evenodd;fill:#D1D3D4;}
	.st6{fill:#D1D3D4;}
</style>
<g>
	<circle id="Oval_Copy_3" class="st0" cx="101" cy="101" r="101"/>
	<path id="Path" class="st1" d="M173.2,39.5c-1-0.1-2,0.1-2.9,0.4c-1.4,0.6-2.8,3.9-3.7,9c-0.8,4.5-1.2,9-1.1,13.5
		c0,0.8,0.4,1.6,1.1,2c4.4,3.1,19.1-0.7,20.7-1.1c0.7-1.4,7.6-14.8,4.2-18.4C188.5,41.7,178.6,39.5,173.2,39.5z"/>
	<path id="Shape" class="st2" d="M166.2,64.9c1.4,1,3.6,1.3,6.2,1.3c6,0,13.5-1.9,15-2.3c0.1,0,0.2,0,0.2-0.1c0.1,0,0.2-0.1,0.2-0.2
		l0,0c0.4-0.7,8-15.1,4.2-19.3c-3.9-4.2-18.3-6.8-21.9-5.2c-3.6,1.6-5.6,16.2-5.2,23.2C164.9,63.5,165.4,64.4,166.2,64.9z
		 M170.3,39.9c0.9-0.3,1.9-0.4,2.9-0.4c5.4,0,15.3,2.3,18.3,5.4c3.4,3.6-3.5,17-4.2,18.4c-1.6,0.4-16.3,4.2-20.7,1.1
		c-0.7-0.5-1.1-1.2-1.1-2c-0.1-4.5,0.2-9.1,1.1-13.5C167.5,43.8,168.9,40.5,170.3,39.9z"/>
	<path id="Path_2" class="st1" d="M131.4,147.1c10.4-4.6,17.4-14.5,18.3-25.8l-10.3-11l-14.2,27.3"/>
	<path id="Path_3" class="st3" d="M131.4,147.4c-0.2,0-0.3-0.1-0.3-0.3c0-0.1,0.1-0.3,0.2-0.4c10.2-4.5,17.1-14.2,18.1-25.3
		l-9.9-10.6l-13.9,26.9c-0.1,0.1-0.3,0.2-0.4,0.1c-0.1-0.1-0.2-0.2-0.2-0.4l14.2-27.3c0-0.1,0.1-0.2,0.2-0.2c0.1,0,0.2,0,0.3,0.1
		l10.3,11.1c0.1,0.1,0.1,0.2,0.1,0.2c-1,11.4-8,21.4-18.5,26C131.5,147.4,131.5,147.4,131.4,147.4z"/>
	<path id="Path_4" class="st3" d="M163.4,164l31.2-0.6l-0.4-39.2l-45.7,1.6L142,164H163.4z"/>
	<path id="Shape_2" class="st2" d="M142,164.3h21.4h0l31.2-0.6c0.1,0,0.2,0,0.2-0.1c0.1-0.1,0.1-0.1,0.1-0.2l-0.4-39.1
		c0-0.1,0-0.2-0.1-0.2c-0.1-0.1-0.1-0.1-0.2-0.1l-45.7,1.6c-0.1,0-0.3,0.1-0.3,0.3l-6.4,38.1c0,0.1,0,0.2,0.1,0.2
		C141.8,164.2,141.9,164.3,142,164.3z M163.4,163.7h-21l6.3-37.5l45.2-1.6l0.4,38.5L163.4,163.7z"/>
	<path id="Path_5" class="st4" d="M200.5,80.7c-2.8-3.8-9.5-5.8-14-6.5c-4.3-0.7-8.7,0-13-0.4c-4-0.2-8,0.2-11.8,1.2
		c-14.5,4-28,25-28,25l14.8,0.8c0,0-2.1,15.4-8.3,49.2c25.7,0.9,55.5,3.5,55.5,3.5s0.1-7.1,0.5-14c2.3-2.2,2.2-5.6,2.7-7.6
		c0.5-2.6-0.6-30.4-0.6-30.4l3.4-1.2C201.7,100.1,201.7,82.4,200.5,80.7z"/>
	<path id="Path_6" class="st3" d="M166,80.3l-11.3,73.9l13.4,1.3l15.3-75.4L166,80.3z"/>
	<path id="Shape_3" class="st2" d="M168.2,155.9L168.2,155.9c0.2,0,0.3-0.1,0.3-0.3l15.3-75.4c0-0.1,0-0.2-0.1-0.3
		c-0.1-0.1-0.1-0.1-0.2-0.1L166,80c-0.2,0-0.3,0.1-0.3,0.3l-11.3,73.9c0,0.1,0,0.2,0.1,0.2c0.1,0.1,0.1,0.1,0.2,0.1L168.2,155.9z
		 M168,155.3l-12.8-1.3l11.2-73.4l16.8-0.1L168,155.3z"/>
	<path id="Path_7" class="st1" d="M168,71.1l-1.9,9.3c0,0,2.1,6.2,8.3,5.5c3.7-0.4,7.1-2.5,9.1-5.7l2.2-17c0,0-4.2-3-1.5-12.5
		c-5.2,1.5-10.8,1.5-16,0.1c0,0-4.2,10.2-4.1,14.9C164.2,70.3,168,71.1,168,71.1z"/>
	<path id="Shape_4" class="st2" d="M165.8,80.4c0.1,0.3,2.1,5.8,7.7,5.8c0.3,0,0.6,0,1-0.1c3.8-0.4,7.3-2.6,9.3-5.8c0,0,0-0.1,0-0.1
		l2.2-17c0-0.1,0-0.2-0.1-0.3c0,0-4-3-1.4-12.2c0-0.1,0-0.2-0.1-0.3c-0.1-0.1-0.2-0.1-0.3-0.1c-5.2,1.4-10.6,1.4-15.8,0.1
		c-0.2,0-0.3,0-0.4,0.2c-0.2,0.4-4.2,10.3-4.1,15.1c0.1,4.1,2.9,5.4,3.8,5.7l-1.9,9C165.7,80.3,165.7,80.4,165.8,80.4
		C165.8,80.4,165.8,80.4,165.8,80.4z M174.3,85.5c-5.6,0.6-7.7-4.5-7.9-5.2l1.9-9.2c0-0.1,0-0.2-0.1-0.2c0-0.1-0.1-0.1-0.2-0.1l0,0
		c-0.2,0-3.5-0.7-3.6-5.1c-0.1-4.1,3.2-12.5,3.9-14.4c0,0,0-0.1,0-0.1c5,1.3,10.3,1.3,15.3,0c-2.1,8.3,0.9,11.6,1.7,12.2l-2.2,16.8
		C181.2,83.1,177.9,85.1,174.3,85.5z"/>
	<path id="Path_8" class="st1" d="M182.2,62.4c0.3-0.8,0.9-1.5,1.6-1.9c0.7-0.4,1.5-0.6,2.3-0.8c0.4-0.1,0.9-0.1,1.3-0.1
		c0.3,0.1,0.6,0.2,0.8,0.4c0.6,0.4,1,1,1.2,1.7c0.1,0.6,0,1.2-0.2,1.7c-0.2,0.6-0.4,1.2-0.7,1.8c-0.7,1.1-1.7,1.9-3,2.2
		c-1.3,0.3-2.6,0.1-3.7-0.6"/>
	<path id="Path_9" class="st3" d="M184.4,67.9c-1,0-1.9-0.3-2.7-0.8c-0.2-0.1-0.2-0.3-0.1-0.4c0-0.1,0.1-0.1,0.2-0.1
		c0.1,0,0.2,0,0.2,0c1,0.6,2.3,0.8,3.4,0.5c1.2-0.3,2.2-1,2.8-2.1c0.3-0.5,0.5-1.1,0.7-1.7c0.2-0.5,0.2-1,0.1-1.6
		c-0.2-0.6-0.6-1.2-1.1-1.5c-0.2-0.2-0.5-0.3-0.7-0.4c-0.4-0.1-0.8,0-1.2,0.1c-0.8,0.1-1.5,0.4-2.2,0.7c-0.7,0.4-1.2,1-1.5,1.8
		c-0.1,0.2-0.3,0.3-0.4,0.2c-0.2-0.1-0.3-0.3-0.2-0.4c0.3-0.9,1-1.6,1.8-2.1c0.8-0.4,1.6-0.7,2.4-0.8c0.5-0.1,1-0.1,1.4-0.1
		c0.3,0.1,0.7,0.3,0.9,0.5c0.7,0.4,1.2,1.1,1.4,1.9c0.1,0.6,0,1.3-0.2,1.9c-0.2,0.7-0.4,1.3-0.7,1.9c-0.7,1.2-1.9,2-3.2,2.4
		C185.3,67.9,184.9,67.9,184.4,67.9z"/>
	<path id="Path_10" class="st3" d="M167.3,75.7c2.2,0.6,4.6,0.1,6.5-1.2c3-2.2,3-3.7,3-3.7s-4.6,1.8-8.5,0.5L167.3,75.7z"/>
	<path id="Shape_5" class="st2" d="M167.2,76c0.7,0.2,1.4,0.3,2.1,0.3c1.7,0,3.3-0.5,4.7-1.5c3.1-2.3,3.1-3.9,3.1-4
		c0-0.1-0.1-0.2-0.1-0.2c-0.1,0-0.2,0-0.3,0c0,0-4.6,1.7-8.3,0.4c-0.1,0-0.2,0-0.2,0c-0.1,0-0.1,0.1-0.1,0.2l-1,4.5
		C166.9,75.8,167,76,167.2,76z M173.5,74.3c-1.7,1.2-3.9,1.6-5.9,1.2l0.8-3.8c3.1,0.9,6.5,0,7.8-0.4C176,71.9,175.4,72.9,173.5,74.3
		z"/>
	<path id="Path_11" class="st1" d="M173.6,57.2c0,0-4,4.2-3.3,5.1c0.6,0.9,2.8,0.8,2.8,0.8"/>
	<path id="Path_12" class="st3" d="M172.6,63.4c-0.7,0-2.1-0.1-2.6-0.9c-0.7-1,2.1-4.2,3.4-5.5c0.1-0.1,0.1-0.1,0.2-0.1
		c0.1,0,0.2,0,0.2,0.1c0.1,0.1,0.1,0.1,0.1,0.2c0,0.1,0,0.2-0.1,0.2c-2,2.1-3.6,4.3-3.3,4.7c0.4,0.6,2,0.7,2.5,0.6
		c0.2,0,0.3,0.1,0.3,0.3c0,0.1,0,0.2-0.1,0.2c-0.1,0.1-0.1,0.1-0.2,0.1C173,63.4,172.8,63.4,172.6,63.4z"/>
	
		<ellipse id="Oval" transform="matrix(0.3733 -0.9277 0.9277 0.3733 58.3423 202.3154)" class="st3" cx="178.9" cy="58" rx="1.1" ry="0.8"/>
	
		<ellipse id="Oval_2" transform="matrix(0.3733 -0.9277 0.9277 0.3733 54.4471 193.8708)" class="st3" cx="170.7" cy="56.6" rx="1.1" ry="0.8"/>
	<path id="Path_13" class="st3" d="M173,68.6c-0.3,0-0.6,0-0.9-0.1c-4.3-1-4.2-6.1-4.2-6.1c0-0.2,0.2-0.3,0.3-0.3
		c0.1,0,0.2,0,0.2,0.1s0.1,0.1,0.1,0.2c0,0.2-0.1,4.6,3.7,5.5c3.8,0.9,5.7-5.1,5.7-5.2c0-0.1,0.1-0.2,0.2-0.2c0.1,0,0.2,0,0.3,0.1
		c0.1,0.1,0.1,0.2,0.1,0.3C178.4,63.2,176.7,68.6,173,68.6z"/>
	<path id="Path_14" class="st1" d="M37,83l23.3,26l32.5,11.4l-4.2,8.6c0,0-21.1-3.2-29.4-4.1c-8.3-0.9-18.8-13.4-18.8-13.4L37,83z"
		/>
	<path id="Shape_6" class="st2" d="M88.6,129.3L88.6,129.3c0.2,0,0.3-0.1,0.3-0.2l4.2-8.6c0-0.1,0-0.2,0-0.3c0-0.1-0.1-0.1-0.2-0.2
		l-32.5-11.3l-23.2-26c-0.1-0.1-0.2-0.1-0.4-0.1c-0.1,0.1-0.2,0.2-0.2,0.3l3.4,28.5c0,0.1,0,0.1,0.1,0.2c0.4,0.5,10.7,12.6,19,13.5
		c6.2,0.7,19.6,2.7,26,3.6C87.2,129.1,88.6,129.3,88.6,129.3z M59.2,124.5c-7.8-0.9-17.7-12.2-18.6-13.2l-3.2-27.4L60,109.2
		c0,0,0.1,0.1,0.1,0.1l32.2,11.3l-3.9,8.1C86.2,128.3,67,125.4,59.2,124.5z"/>
	<path id="Path_15" class="st1" d="M48.3,70.1c-0.3-2.2-1.2-4.2-1.9-6.3c-1.7-5.1-1.9-10.3-3.7-15.4c-2.3-6.5-6.6-11.2-14.2-11
		c-3.1,0-5.9,1.9-7.1,4.8c-3.6-2-8.4,2-8.5,5.7c-0.2,5.4,0.1,10.1-2.3,15.2C8.8,67,6,70.6,5.8,74.9c-0.2,4.3,2.2,8.3,5.7,10.7
		c3.5,2.4,7.9,3.2,12.1,2.8c4.2-0.3,8.3-1.7,12.2-3.3c1.9-0.7,3.8-1.7,5.5-2.8C45.2,79.7,49.1,75.1,48.3,70.1z"/>
	<path id="Shape_7" class="st2" d="M11.3,85.8c3.1,2,6.8,3,10.5,3c0.6,0,1.2,0,1.7,0c4.6-0.3,9-1.9,12.3-3.3
		c1.9-0.7,3.8-1.7,5.6-2.8c4-2.7,8-7.4,7.2-12.6c-0.3-1.7-0.8-3.3-1.4-4.8c-0.2-0.5-0.4-1-0.5-1.6c-0.7-2.4-1.3-4.9-1.8-7.5
		c-0.5-2.7-1.1-5.3-1.9-7.9c-2.6-7.6-7.6-11.4-14.5-11.2c-3.1,0-5.9,1.8-7.2,4.6c-1.6-0.7-3.4-0.5-4.8,0.4c-2.2,1.2-3.8,3.6-3.9,5.7
		c0,0.1,0,0.2,0,0.3c0,0.8-0.1,1.7-0.1,2.5c-0.1,4.3-0.2,8.1-2.1,12.3c-0.5,1.1-1.1,2.1-1.6,3.1l0,0.1c-1.5,2.7-3,5.6-3.2,8.7
		C5.3,79,7.6,83.3,11.3,85.8z M16.8,42.7c0.8-0.5,1.7-0.7,2.6-0.7l0,0c0.7,0,1.3,0.2,1.9,0.5c0.1,0,0.2,0,0.2,0
		c0.1,0,0.1-0.1,0.2-0.2c1.1-2.8,3.8-4.6,6.8-4.6c6.7-0.2,11.3,3.4,13.9,10.8c0.8,2.6,1.4,5.2,1.9,7.8c0.4,2.5,1,5.1,1.8,7.5
		c0.1,0.4,0.3,0.8,0.4,1.2c0,0.1,0.1,0.2,0.1,0.3c0.6,1.5,1,3.1,1.3,4.7c0.7,5-3.1,9.5-6.9,12c-1.7,1.1-3.5,2-5.4,2.7
		c-3.2,1.3-7.6,2.9-12.1,3.2c-4.5,0.3-8.7-0.7-11.9-2.8c-3.6-2.4-5.8-6.5-5.6-10.4c0.2-3,1.7-5.8,3.1-8.5l0,0
		c0.6-1.1,1.2-2.1,1.7-3.2c2-4.3,2.1-8.3,2.2-12.5l0,0c0-0.9,0-1.8,0.1-2.8C13.3,46,14.7,43.8,16.8,42.7z"/>
	<path id="Path_16" class="st4" d="M48.4,86.9c-0.3-1-0.5-2.1-0.9-3.1c-0.8-2.7-1.8-6.7-3.7-8.8c-3.2-3.5-10.3-3.6-14.6-3.6
		c-6.7,0-13.5,1.5-19,5.4c-8.4,5.9-10,14.5-9,24c1.1,10.7,2.5,21.4,4,32c0.1,1.1,1.9,17.4,2.8,17.4c0.1,0,55.4,0,53.6,1.3
		c-2.5-8.6-4.4-17.4-6.4-26.1c-0.4-1.9-1.2-3.6-1.6-5.4c-0.7-2.6-0.4-5.5-0.6-8.2c-0.5-6.2-1.9-12.3-3.2-18.4
		C49.4,91.2,49,89,48.4,86.9z"/>
	<path id="Path_17" class="st3" d="M64.1,164.2l-6.3-27.8l-51.2,4.2l-0.7,23.6H64.1z"/>
	<path id="Shape_8" class="st2" d="M5.9,164.5h58.2c0.1,0,0.2-0.1,0.2-0.1c0.1-0.1,0.1-0.2,0.1-0.3L58,136.3c0-0.1-0.2-0.2-0.3-0.2
		l-51.2,4.2c-0.2,0-0.3,0.1-0.3,0.3l-0.6,23.6c0,0.1,0,0.2,0.1,0.2C5.7,164.4,5.8,164.5,5.9,164.5z M63.7,163.9H6.2l0.6-23l50.7-4.2
		L63.7,163.9z"/>
	<path id="Path_18" class="st3" d="M33.7,94.8c0.2,0.1,0.4,0.1,0.5,0.1c1.2,0.1,2.1-1,2.6-2.1c1.1-2.4,1.1-5.1,0.9-7.6
		c0-1.5-0.4-3-1-4.4c-0.6-1.1-1.3-2.1-2.3-2.9c-1.7-1.5-3.7-2.8-5.9-3.1c-2.2-0.3-5.5,0.9-6.2,3.4c-0.7,2.7,2.1,5.3,3.4,7.3
		c2,2.8,4.1,5.5,6.4,8.1C32.6,94.1,33.1,94.5,33.7,94.8z"/>
	<path id="Shape_9" class="st2" d="M34.2,95.2h0.2c1.6,0,2.5-1.7,2.7-2.2c1.1-2.5,1.1-5.3,0.9-7.8c0-1.6-0.4-3.1-1-4.6
		c-0.6-1.1-1.4-2.1-2.3-3c-2-1.9-4.1-2.9-6.1-3.2c-2.6-0.3-5.8,1.1-6.5,3.6c-0.6,2.3,1.1,4.5,2.5,6.3c0.3,0.4,0.7,0.9,0.9,1.2
		c2,2.8,4.1,5.5,6.4,8.1c0.4,0.6,1,1,1.7,1.3C33.8,95.2,34,95.2,34.2,95.2z M34.3,94.6c-0.2,0-0.3,0-0.4-0.1c-0.6-0.3-1-0.7-1.4-1.2
		c-2.3-2.5-4.4-5.2-6.4-8c-0.3-0.4-0.6-0.7-0.9-1.2c0,0,0-0.1-0.1-0.1c-1.3-1.7-3-3.8-2.4-5.8c0.6-2.2,3.6-3.4,5.9-3.2
		c1.9,0.2,3.8,1.2,5.8,3c0.9,0.8,1.6,1.7,2.2,2.8c0.6,1.4,0.9,2.9,0.9,4.3c0.2,2.4,0.2,5.1-0.9,7.5C36.1,93.7,35.3,94.7,34.3,94.6z"
		/>
	<rect id="Rectangle" x="60.6" y="45.3" class="st1" width="87.5" height="93.3"/>
	<path id="Shape_10" class="st2" d="M60.6,138.8h87.5c0.2,0,0.3-0.1,0.3-0.3V45.3c0-0.2-0.1-0.3-0.3-0.3H60.6
		c-0.2,0-0.3,0.1-0.3,0.3v93.2C60.3,138.7,60.4,138.8,60.6,138.8z M147.7,138.2H60.9V45.6h86.9V138.2z"/>
	<rect id="Rectangle_2" x="66.2" y="52.4" class="st1" width="76.2" height="68.5"/>
	<path id="Shape_11" class="st5" d="M66.2,121.2h76.2c0.1,0,0.2,0,0.2-0.1s0.1-0.1,0.1-0.2V52.4c0-0.2-0.1-0.3-0.3-0.3H66.2
		c-0.2,0-0.3,0.1-0.3,0.3v68.5C65.9,121.1,66.1,121.2,66.2,121.2z M142.1,120.6H66.5V52.8h75.6V120.6z"/>
	<path id="Path_19" class="st4" d="M133.9,76.4c-1.1,1.2-2.1,2.5-3.3,3.6c-3,3-6,6-9,9.1c-0.1,0.1-0.2,0.2-0.3,0.3
		c-0.5,0.2-1.2,0.8-1.6,0.6c-0.5-0.4-0.8-1-0.8-1.6c-0.1-2.3,0-4.7,0-7.2c-1,0-1.9,0-2.8,0c-3.5,0.2-6.9,0.9-9.9,2.7
		c-3.8,2.1-6.2,6-6.3,10.3c0,1.2,0.2,2.3,0.6,3.4c0.1,0.6,0.5,1.2-0.3,1.5c-0.6,0-1.1-0.3-1.4-0.7c-0.9-1.9-1.7-3.8-2.3-5.9
		c-2.1-9.5,3.1-18.1,12.5-21.1c2.7-0.9,5.5-1.3,8.4-1.3h1.4c0-1.8,0-3.6,0-5.3c0-0.8,0-1.7,0.2-2.5c0.2-0.9,0.8-1.2,1.6-0.7
		c0.3,0.2,0.7,0.5,0.9,0.8c3.8,3.8,7.6,7.6,11.4,11.4c0.4,0.4,0.7,0.9,1,1.4L133.9,76.4z"/>
	<path id="Path_20" class="st4" d="M86.5,110.5c-2.1-0.4-4.1-1.5-5.5-3.1c-1.4-1.6-2.2-3.7-2.1-5.8c0-8.2,0-16.5,0-24.7
		c0-2.3,0.9-4.6,2.6-6.3c1.7-1.7,3.9-2.6,6.3-2.6c1.5,0,3.1,0,4.6,0c1.2,0,2,0.7,2,1.8c0,1.1-0.8,1.7-2,1.7c-1.5,0-3,0-4.5,0
		c-1.4,0-2.8,0.5-3.9,1.5c-1,1-1.6,2.4-1.6,3.8c0,8.3,0,16.6,0,24.9c0,1.4,0.6,2.8,1.6,3.7c1,1,2.4,1.5,3.8,1.5c8.2,0,22.3,0,30.5,0
		c1.5,0.1,2.9-0.5,3.9-1.5c1-1,1.6-2.4,1.6-3.9c0-2.6,0-5.2,0-7.8c0-1.2,0.5-1.9,1.5-2c0.8-0.1,1.9,0.5,1.9,1.3
		c0,3.5,0.3,7-0.2,10.4c-0.5,3.7-3.4,6.2-7.1,6.9c-0.1,0-0.3,0.1-0.4,0.2L86.5,110.5z"/>
	<path id="Path_21" class="st6" d="M141.8,127.8H77.3c-0.2,0-0.3-0.1-0.3-0.3c0-0.2,0.1-0.3,0.3-0.3h64.5c0.2,0,0.3,0.1,0.3,0.3
		C142.2,127.7,142,127.8,141.8,127.8z"/>
	<path id="Path_22" class="st6" d="M125.8,132.6H77.3c-0.2,0-0.3-0.1-0.3-0.3c0-0.2,0.1-0.3,0.3-0.3h48.5c0.2,0,0.3,0.1,0.3,0.3
		C126.1,132.5,126,132.6,125.8,132.6z"/>
	<ellipse id="Oval_3" class="st1" cx="69.8" cy="128.7" rx="3.6" ry="3.6"/>
	<path id="Shape_12" class="st5" d="M66.2,130.2c0.6,1.5,2,2.4,3.6,2.4c2.2,0,3.9-1.7,3.9-3.9c0-1.6-1-3-2.4-3.6
		c-1.5-0.6-3.1-0.3-4.3,0.8C65.9,127.1,65.6,128.8,66.2,130.2z M66.8,127.5c0.5-1.2,1.7-2,3-2c1.8,0,3.3,1.5,3.3,3.3
		c0,1.3-0.8,2.5-2,3c-1.2,0.5-2.6,0.2-3.6-0.7C66.6,130.1,66.3,128.7,66.8,127.5z"/>
	<path id="Path_23" class="st1" d="M40.2,51.2c0,0,3.1,7.2,2.2,12.9c-0.4,3.3-2.8,5.9-5.9,6.8l0.6,10c0,0,0.4,5.1-5.9,4.7
		c-3.7-0.2-7-2.4-8.8-5.6l-1.9-18.3c0,0,6.8-4.5,5.8-11.1C26.3,50.7,35,54.2,40.2,51.2z"/>
	<path id="Shape_13" class="st2" d="M31.2,86h0.7c1.9,0,3.3-0.5,4.3-1.5c0.9-1,1.4-2.3,1.3-3.6l-0.6-9.7c3.2-1,5.4-3.7,5.9-7
		c0.9-5.7-2.1-12.8-2.2-13.1c0-0.1-0.1-0.1-0.2-0.2c-0.1,0-0.2,0-0.3,0c-4.7,2.7-12.3-0.1-13.5-0.5c-0.1,0-0.1-0.1-0.1-0.1
		c-0.1,0-0.2,0-0.3,0c-0.1,0.1-0.1,0.2-0.1,0.3c1,6.3-5.6,10.7-5.7,10.8c-0.1,0.1-0.1,0.2-0.1,0.3l1.9,18.3c0,0,0,0.1,0,0.1
		C23.9,83.6,27.4,85.8,31.2,86z M31.2,85.4c-3.6-0.2-6.8-2.3-8.5-5.4l-1.8-18c1-0.7,6.4-4.9,5.8-10.8c1.9,0.7,8.8,2.9,13.4,0.5
		c0.6,1.4,2.9,7.6,2.1,12.5c-0.4,3.1-2.7,5.7-5.7,6.6c-0.1,0-0.3,0.2-0.2,0.3l0.6,9.9c0,1.1-0.4,2.3-1.2,3.1
		C34.7,85.1,33.2,85.5,31.2,85.4z"/>
	<path id="Path_24" class="st1" d="M23.9,60.3c0,0-3.6-6.7-6.7-2.1c-3.2,4.6,2.2,9,5.2,8.4"/>
	<path id="Path_25" class="st3" d="M21.8,66.9c-1.7,0-3.8-1.2-5-3c-1.3-1.8-1.2-4.2,0.1-6c0.8-1.2,1.8-1.8,2.9-1.7
		c2.4,0.1,4.4,3.7,4.4,3.9c0.1,0.1,0,0.3-0.1,0.4c-0.1,0.1-0.3,0-0.4-0.1c0,0-1.9-3.4-3.9-3.6c-0.8,0-1.6,0.4-2.3,1.5
		c-1.2,1.5-1.2,3.7-0.1,5.3c1.2,1.8,3.4,3,5,2.7c0.2,0,0.3,0.1,0.4,0.2c0,0.1,0,0.2,0,0.2c0,0.1-0.1,0.1-0.2,0.1
		C22.2,66.9,22,66.9,21.8,66.9z"/>
	<path id="Path_26" class="st3" d="M37.6,64.1c-0.5,0-1,0-1.5-0.1c-0.1,0-0.2-0.1-0.2-0.1c0-0.1-0.1-0.2,0-0.2
		c0-0.1,0.1-0.2,0.1-0.2c0.1,0,0.2-0.1,0.2,0c0,0,2,0.4,3-0.2c0.1-0.8-1.8-3.4-3.2-5c-0.1-0.1-0.1-0.1-0.1-0.2c0-0.1,0-0.2,0.1-0.2
		c0.1-0.1,0.3-0.1,0.4,0c0.6,0.7,3.5,4.2,3.3,5.5c0,0.2-0.1,0.4-0.3,0.5C38.9,64,38.2,64.2,37.6,64.1z"/>
	<path id="Path_27" class="st3" d="M36.5,71c0,0-5.3,1-8.4,0.4c0,0,3.9,7.6,8.9,7.3L36.5,71z"/>
	<path id="Shape_14" class="st2" d="M27.8,71.6c0.1,0.3,3.8,7.5,8.8,7.5c0.1,0,0.3,0,0.4,0c0.2,0,0.3-0.2,0.3-0.3L36.8,71
		c0-0.1,0-0.2-0.1-0.2c-0.1-0.1-0.2-0.1-0.2-0.1c-0.1,0-5.3,1-8.3,0.4c-0.1,0-0.3,0-0.3,0.1C27.7,71.4,27.7,71.5,27.8,71.6z
		 M36.6,78.4c-3.9,0-7-4.9-8-6.6c2.7,0.3,6.4-0.3,7.5-0.5L36.6,78.4z"/>
	
		<ellipse id="Oval_4" transform="matrix(0.9929 -0.1193 0.1193 0.9929 -6.5665 4.3412)" class="st3" cx="33" cy="57" rx="0.8" ry="1.4"/>
	
		<ellipse id="Oval_5" transform="matrix(0.9929 -0.1193 0.1193 0.9929 -6.4885 5.1532)" class="st3" cx="39.8" cy="56.8" rx="0.8" ry="1.4"/>
	<path id="Path_28" class="st3" d="M34.4,67.1c-0.5,0-0.9-0.1-1.3-0.3c-1.5-0.7-2.5-2.5-2.9-5.5c0-0.2,0.1-0.3,0.3-0.4
		c0.2,0,0.3,0.1,0.4,0.3c0.4,2.7,1.2,4.4,2.5,5c1.6,0.7,3.3-0.5,3.4-0.5c0.1-0.1,0.2-0.1,0.3,0c0.1,0,0.2,0.1,0.2,0.3
		c0,0.1,0,0.2-0.1,0.3C36.3,66.8,35.4,67.1,34.4,67.1z"/>
	<path id="Path_29" class="st1" d="M118,138.8c-0.1-0.7-0.2-1.4-0.2-2.1c0-1.4,0.2-2.9,0.7-4.2c0.1-0.6,0.5-1.2,1-1.6
		c0.5-0.4,1.2-0.3,1.7,0.1c0.2,0.5,0.3,1.1,0.1,1.6c-0.3,1.4-0.4,2.9-0.2,4.4c0.2-2,0.5-4,1.6-5.7c0.2-0.4,0.5-0.7,0.9-1
		c0.4-0.2,0.9-0.2,1.3,0c0.6,0.4,0.5,1.2,0.4,1.9c-0.2,1.7-0.1,3.5,0.1,5.2c-0.1-1.5,0-3.1,0.3-4.5c0.2-1,0.7-2.1,1.6-2.4
		c0.2-0.1,0.4-0.1,0.6,0c0.4,0.1,0.8,0.5,0.8,1c0.1,0.4,0.1,0.9,0,1.3c-0.2,1.8-0.1,3.5,0.2,5.3c-0.2-1.5-0.2-3.1,0.2-4.6
		c0.1-0.6,0.3-1.2,0.7-1.7c0.4-0.5,1-0.7,1.6-0.5c0.4,0.2,0.7,0.6,0.8,1.1c0.1,0.5,0.1,0.9,0.1,1.4c0,1.8,0.3,3.5,1,5.2
		c0.6,1.4,1.3,2.9,1.2,4.4c-0.2,1.6-1.3,3-2.9,3.5c-1.5,0.5-3.2,0.6-4.7,0.2c-5.1-1-9.4-3.5-11.2-8.4"/>
	<path id="Path_30" class="st3" d="M128.9,147.9c-0.7,0-1.5-0.1-2.2-0.2c-5.9-1.2-9.8-4.1-11.5-8.6c-0.1-0.2,0-0.4,0.2-0.4
		c0.2-0.1,0.4,0,0.4,0.2c1.6,4.3,5.3,7.1,11,8.2c1.5,0.4,3.1,0.3,4.5-0.2c1.4-0.5,2.4-1.8,2.7-3.2c0.1-1.3-0.4-2.6-1-3.8l-0.2-0.4
		c-0.7-1.7-1-3.5-1-5.3v-0.2c0-0.4,0-0.7,0-1.1c-0.1-0.4-0.3-0.7-0.6-0.9c-0.5-0.1-0.9,0-1.2,0.4c-0.3,0.4-0.5,1-0.6,1.5
		c-0.3,1.5-0.4,3-0.2,4.5c0,0.2-0.1,0.3-0.3,0.4c-0.2,0-0.3-0.1-0.3-0.2c-0.3-1.8-0.3-3.6-0.2-5.3v-0.1c0.1-0.4,0.1-0.8,0-1.1
		c-0.1-0.3-0.3-0.6-0.6-0.7c-0.2,0-0.3,0-0.5,0c-0.7,0.2-1.1,0.9-1.4,2.1c-0.3,1.5-0.4,3-0.3,4.4c0,0.1-0.1,0.3-0.3,0.3
		c-0.1,0-0.3-0.1-0.3-0.2c-0.2-1.8-0.3-3.5-0.1-5.3c0.1-0.6,0.1-1.3-0.3-1.6c-0.3-0.2-0.6-0.2-0.9,0c-0.3,0.2-0.6,0.5-0.8,0.8
		c-1.1,1.6-1.3,3.7-1.5,5.6c0,0.2-0.2,0.3-0.3,0.3c-0.2,0-0.3-0.1-0.3-0.3c-0.2-1.5-0.1-3,0.2-4.5c0.2-0.4,0.2-0.9,0-1.3
		c-0.1-0.1-0.3-0.2-0.4-0.2c-0.3,0-0.6,0-0.8,0.2c-0.4,0.4-0.7,0.9-0.8,1.4c-0.5,1.3-0.7,2.7-0.7,4.1c0,0.2,0,0.4,0,0.6
		c0,0.5,0.1,1,0.2,1.5c0,0.2-0.1,0.3-0.3,0.3c-0.1,0-0.3-0.1-0.4-0.2c-0.1-0.5-0.1-1-0.2-1.5c0-0.2,0-0.4,0-0.6
		c-0.1-1.5,0.2-3,0.7-4.3c0.2-0.7,0.5-1.3,1.1-1.7c0.4-0.3,0.8-0.4,1.2-0.3c0.3,0,0.6,0.2,0.9,0.5c0.3,0.6,0.4,1.3,0.1,1.9
		c0,0,0,0.1,0,0.1c0.2-0.6,0.5-1.1,0.8-1.6c0.3-0.4,0.6-0.8,1.1-1.1c0.5-0.3,1.1-0.3,1.6,0c0.6,0.5,0.6,1.3,0.6,1.9
		c0.2-0.8,0.8-1.5,1.6-1.8c0.3-0.1,0.5-0.1,0.8,0c0.6,0.2,1,0.7,1.1,1.2c0.1,0.3,0.1,0.6,0.1,0.9c0.1-0.2,0.2-0.4,0.4-0.6
		c0.5-0.6,1.3-0.8,2-0.6c0.5,0.3,0.9,0.8,1,1.3c0.1,0.4,0.1,0.8,0.1,1.2v0.2c0,1.7,0.3,3.4,0.9,5l0.2,0.4c0.5,1.2,1.1,2.7,1,4.1
		c-0.2,1.7-1.4,3.2-3.1,3.8C130.7,147.8,129.8,147.9,128.9,147.9z"/>
	<path id="Path_31" class="st1" d="M183.2,104.1l-0.9,14.3c0,0-29.2-23-34.1-24v4c0,0-8.1-1-8.8,0.6c-0.6,1.6,0.5,7.8,2.6,9
		c1.2,0.8,11.8,0.8,11.8,0.8s1.5,3.6,16,17c14.5,13.3,28.1,20.5,29,8c0.9-12.5,1.9-33.6,1.9-33.6"/>
	<path id="Path_32" class="st3" d="M193.2,140.6c-5.1,0-13.6-5.1-23.8-14.5c-12.8-11.7-15.5-16-16-16.9c-1.7,0-10.5-0.1-11.7-0.9
		c-2.3-1.4-3.4-7.7-2.7-9.4c0.7-1.7,6.8-1.1,8.8-0.9v-3.7c0-0.1,0-0.2,0.1-0.2c0.1-0.1,0.2-0.1,0.3-0.1c4.6,0.9,29.9,20.6,33.8,23.7
		l0.9-13.6c0-0.1,0-0.3,0.2-0.3c0.1-0.1,0.3-0.1,0.4,0s0.1,0.2,0.1,0.4l-0.9,14.2c0,0.1-0.1,0.2-0.2,0.3c-0.1,0.1-0.2,0-0.3,0
		c-0.3-0.2-27.9-21.9-33.6-23.8v3.6c0,0.1,0,0.2-0.1,0.2c-0.1,0.1-0.2,0.1-0.3,0.1c-3.3-0.4-8.1-0.5-8.4,0.4
		c-0.6,1.5,0.5,7.5,2.4,8.6c0.9,0.5,7.4,0.7,11.6,0.8c0.1,0,0.2,0.1,0.3,0.2c0,0,1.7,3.8,15.9,16.9c11.6,10.7,20.8,15.8,25.3,14
		c1.9-0.7,2.9-2.7,3.1-5.8c0.8-12.3,1.9-33.3,1.9-33.6c0-0.1,0-0.2,0.1-0.2c0.1-0.1,0.1-0.1,0.2-0.1c0.1,0,0.2,0,0.2,0.1
		c0.1,0.1,0.1,0.1,0.1,0.2c0,0.2-1.1,21.2-1.9,33.6c-0.2,3.4-1.4,5.6-3.5,6.4C194.7,140.5,194,140.6,193.2,140.6z"/>
	<path id="Path_33" class="st1" d="M182.2,118.4l7,5.2L182.2,118.4z"/>
	<path id="Path_34" class="st3" d="M189.2,123.9c-0.1,0-0.1,0-0.2-0.1l-7-5.2c-0.1-0.1-0.2-0.3-0.1-0.5c0.1-0.1,0.3-0.2,0.4-0.1
		l7,5.2c0.1,0.1,0.2,0.2,0.1,0.4C189.5,123.8,189.4,123.9,189.2,123.9z"/>
	<path id="Path_35" class="st1" d="M20,92.6c0,0,12,22.2,12.3,23.1C32.4,116,57,102.9,58,101.1c-0.3-2-0.1-4.1,0.6-6
		c0.4-1.1,1.1-1.2,2-1.9c-0.1,1.3-0.1,2.6-0.1,3.9c1.7-1.7,3.4-3.4,5.3-4.8c0.4-0.4,1-0.6,1.6-0.5c0.3,0.1,0.5,0.3,0.6,0.6
		c2.6,3.6,0.4,7.9-1.4,11.2c-3.4,6.3-8.6,10.2-14.1,14.6c-3.7,2.9-7.5,5.6-11.4,8.2c-3,2.1-6.3,3.8-9.7,5.2c-2,0.8-4.8,1.9-7,0.9
		c-7.8-3.6-16.8-22.1-19.2-30.2"/>
	<path id="Path_36" class="st3" d="M26.5,133.3c-0.7,0-1.5-0.1-2.1-0.4c-4.4-2-8.8-8.5-11.8-13.5c-3.1-5.3-5.7-11-7.6-16.9
		c0-0.2,0.1-0.3,0.2-0.4c0.2,0,0.3,0,0.4,0.2c2.5,8.4,11.5,26.6,19,30c2,0.9,4.5,0,6.7-0.9c3.4-1.4,6.6-3.2,9.6-5.2
		c3.9-2.5,7.7-5.2,11.4-8.2l0.9-0.8c5.1-4.1,9.9-7.9,13.1-13.8c1.9-3.5,3.8-7.6,1.4-10.9c-0.1-0.2-0.3-0.4-0.5-0.5
		c-0.4-0.2-0.9,0.2-1.2,0.5c-1.9,1.5-3.7,3.1-5.3,4.8c-0.1,0.1-0.2,0.1-0.3,0.1c-0.1,0-0.2-0.1-0.2-0.3c0-0.6,0-2.2,0-3.3L59.9,94
		c-0.5,0.3-0.9,0.7-1.1,1.2c-0.7,1.9-0.8,3.9-0.6,5.8c0,0.1,0,0.1,0,0.2c-0.5,1-7.4,5-13.1,8.1c-3.2,1.8-12.3,6.7-12.9,6.7
		c-0.1,0-0.2-0.1-0.3-0.2c-0.2-0.7-8.2-15.4-12.3-23.1c-0.1-0.2,0-0.3,0.1-0.4c0.2-0.1,0.3,0,0.4,0.1c0.5,0.9,10.9,20.3,12.2,22.9
		c2.7-1.1,23.8-12.7,25.1-14.4c-0.3-2-0.1-4.1,0.6-6c0.3-0.6,0.7-1.2,1.4-1.5c0.3-0.2,0.5-0.3,0.7-0.5c0.1-0.1,0.2-0.1,0.4,0
		c0.1,0.1,0.2,0.2,0.2,0.3c-0.1,1-0.1,2.1-0.1,3.2c1.5-1.6,3.1-3,4.9-4.3c0.5-0.4,1.2-0.8,1.9-0.6c0.3,0.1,0.6,0.4,0.8,0.7
		c2.8,3.9,0.2,8.7-1.4,11.6c-3.3,6-8.1,9.9-13.2,14l-1,0.8c-3.7,2.9-7.5,5.7-11.4,8.2c-3.1,2.1-6.3,3.8-9.7,5.3
		C30,132.7,28.2,133.1,26.5,133.3z"/>
	<path id="Path_37" class="st3" d="M20,92.9c-0.1,0-0.2-0.1-0.3-0.2l-6-10.3c-0.1-0.1,0-0.3,0.1-0.4c0.1-0.1,0.3,0,0.4,0.1l6,10.3
		c0,0.1,0.1,0.2,0,0.2c0,0.1-0.1,0.1-0.1,0.2C20.1,92.9,20.1,92.9,20,92.9z"/>
	<path id="Path_38" class="st3" d="M183.2,104.5c-0.1,0-0.2,0-0.2-0.1c-0.1-0.1-0.1-0.1-0.1-0.2l1.3-14.4c0-0.2,0.2-0.3,0.3-0.3
		c0.1,0,0.2,0,0.2,0.1c0.1,0.1,0.1,0.2,0.1,0.2l-1.3,14.4c0,0.1,0,0.2-0.1,0.2C183.3,104.5,183.2,104.5,183.2,104.5z"/>
</g>
</svg>
