<?xml version="1.0" encoding="utf-8"?>
<!-- Generator: Adobe Illustrator 28.0.0, SVG Export Plug-In . SVG Version: 6.00 Build 0)  -->
<svg version="1.1" id="Layer_1" xmlns="http://www.w3.org/2000/svg" xmlns:xlink="http://www.w3.org/1999/xlink" x="0px" y="0px"
	 viewBox="0 0 202 202" style="enable-background:new 0 0 202 202;" xml:space="preserve">
<style type="text/css">
	.st0{opacity:0.2027;fill:#A6B1E1;enable-background:new    ;}
	.st1{fill:#D1D3D4;}
	.st2{fill:#FFFFFF;}
	.st3{fill-rule:evenodd;clip-rule:evenodd;fill:#231F20;}
	.st4{fill:#231F20;}
	.st5{fill-rule:evenodd;clip-rule:evenodd;fill:#A7A9AC;}
	.st6{fill:#A7A9AC;}
	.st7{fill-rule:evenodd;clip-rule:evenodd;fill:#D1D3D4;}
	.st8{fill:#A6B1E1;}
</style>
<circle id="Oval_Copy_2" class="st0" cx="101" cy="101" r="101"/>
<path id="Path" class="st1" d="M192,166.5H10c-0.2,0-0.4-0.2-0.4-0.4c0-0.2,0.2-0.4,0.4-0.4H192c0.2,0,0.4,0.2,0.4,0.4
	C192.4,166.3,192.2,166.5,192,166.5z"/>
<rect id="Rectangle" x="136.1" y="104.1" class="st2" width="40.6" height="70.1"/>
<path id="Shape" class="st3" d="M136.1,174.6h40.6c0.1,0,0.2,0,0.3-0.1c0.1-0.1,0.1-0.2,0.1-0.3v-70c0-0.2-0.2-0.4-0.4-0.4h-40.6
	c-0.2,0-0.4,0.2-0.4,0.4v70.1C135.8,174.4,135.9,174.6,136.1,174.6z M176.4,173.8h-39.9v-69.3h39.9V173.8z"/>
<rect id="Rectangle_2" x="24.2" y="104.1" class="st2" width="40.6" height="70.1"/>
<path id="Shape_2" class="st3" d="M24.2,174.6h40.6c0.1,0,0.2,0,0.3-0.1c0.1-0.1,0.1-0.2,0.1-0.3v-70c0-0.2-0.2-0.4-0.4-0.4H24.2
	c-0.2,0-0.4,0.2-0.4,0.4v70.1C23.8,174.4,24,174.6,24.2,174.6z M64.5,173.8H24.5v-69.3h39.9V173.8z"/>
<path id="Path_2" class="st4" d="M143.7,83.8l8,16.2H130L143.7,83.8z"/>
<path id="Shape_3" class="st3" d="M130,100.4h21.7c0.1,0,0.3-0.1,0.3-0.2c0.1-0.1,0.1-0.2,0-0.3l-8-16.2c-0.1-0.1-0.2-0.2-0.3-0.2
	c-0.1,0-0.2,0-0.3,0.1l-13.7,16.2c-0.1,0.1-0.1,0.3-0.1,0.4C129.8,100.3,129.9,100.4,130,100.4z M151.2,99.7h-20.4l12.9-15.2
	L151.2,99.7z"/>
<path id="Path_3" class="st4" d="M81.9,100h51.8l18.8-27.7h-48.9L81.9,100z"/>
<path id="Shape_4" class="st3" d="M81.9,100.4h51.8c0.1,0,0.2-0.1,0.3-0.2l18.8-27.6c0.1-0.1,0.1-0.3,0-0.4
	c-0.1-0.1-0.2-0.2-0.3-0.2h-48.9c-0.1,0-0.2,0-0.3,0.1L81.6,99.8c-0.1,0.1-0.1,0.3,0,0.4C81.6,100.3,81.8,100.4,81.9,100.4z
	 M133.6,99.7H82.6l21.1-26.9h48.1L133.6,99.7z"/>
<path id="Path_4" class="st2" d="M105.2,75.1L89.7,95.2h38.4l14.5-20.1H105.2z"/>
<path id="Shape_5" class="st3" d="M89.7,95.6h38.4c0.1,0,0.2-0.1,0.3-0.1l14.6-20.1c0.1-0.1,0.1-0.3,0-0.4c-0.1-0.1-0.2-0.2-0.3-0.2
	h-37.5c-0.1,0-0.2,0-0.3,0.1L89.4,95c-0.1,0.1-0.1,0.3,0,0.4C89.4,95.5,89.5,95.6,89.7,95.6z M127.9,94.9H90.4l14.9-19.4H142
	L127.9,94.9z"/>
<path id="Path_5" class="st1" d="M116.2,91.6c-0.2,0-0.3-0.1-0.3-0.2c-1.9-5.5-4.5-11.5-5.4-11.7c-1.1,0-8.3,6-14.8,11.8
	c-0.1,0.1-0.2,0.1-0.3,0.1c-0.1,0-0.2-0.1-0.2-0.3c0-0.1,0-0.3,0.1-0.3c2.2-2,13.3-12,15.3-12h0.1c1.8,0.3,5,9.4,6,12.2
	c0,0.1,0,0.2,0,0.3c0,0.1-0.1,0.1-0.2,0.2C116.3,91.6,116.2,91.6,116.2,91.6z"/>
<path id="Path_6" class="st1" d="M127.7,92.3c-0.2,0-0.3-0.1-0.3-0.3c-1.2-4.4-3-9.2-3.9-9.4s-4.7,3.3-7.9,6.7
	c-0.1,0.1-0.4,0.1-0.5,0c-0.1-0.1-0.1-0.4,0-0.5c1.6-1.7,7-7.3,8.6-6.8c1.6,0.5,3.9,8.3,4.3,9.9C128.1,92.1,128,92.3,127.7,92.3
	L127.7,92.3z"/>
<path id="Shape_6" class="st5" d="M137.5,85.1c0,0.5,0.7,1,1.6,1s1.6-0.4,1.6-1c0-0.5-0.7-0.9-1.6-0.9S137.5,84.6,137.5,85.1z
	 M137.7,85.1c0-0.4,0.7-0.8,1.4-0.8v0c0.8,0,1.4,0.3,1.4,0.7c0,0.4-0.6,0.8-1.4,0.8S137.7,85.5,137.7,85.1z"/>
<path id="Path_7" class="st6" d="M145.3,78h-3.1c0,0-0.1,0-0.1-0.1c0,0,0-0.1,0.1-0.1h3.1c0,0,0,0,0.1,0
	C145.4,77.9,145.4,77.9,145.3,78C145.4,78,145.3,78,145.3,78z"/>
<path id="Path_8" class="st2" d="M133.7,100.4c-0.1,0-0.1,0-0.2-0.1c-0.2-0.1-0.2-0.3-0.1-0.5l10-13.8c0.1-0.1,0.1-0.1,0.2-0.1
	c0.1,0,0.2,0,0.3,0.1c0.2,0.1,0.2,0.3,0.1,0.5l-10,13.9C133.9,100.4,133.8,100.4,133.7,100.4z"/>
<path id="Shape_7" class="st7" d="M114.6,78.6c0,0.9,0.7,1.6,1.6,1.6c0.9,0,1.6-0.7,1.6-1.6c0-0.9-0.7-1.6-1.6-1.6
	C115.3,77.1,114.6,77.8,114.6,78.6z M115.3,78.6c0-0.5,0.4-0.9,0.8-0.9c0.2,0,0.4,0.1,0.6,0.2c0.2,0.2,0.2,0.4,0.2,0.6
	c0,0.5-0.4,0.9-0.8,0.9C115.7,79.5,115.3,79.1,115.3,78.6z"/>
<rect id="Rectangle_3" x="18.8" y="100.7" class="st2" width="159.7" height="6.8"/>
<path id="Shape_8" class="st3" d="M18.8,107.8h159.7c0.2,0,0.4-0.2,0.4-0.4v-6.8c0-0.2-0.2-0.4-0.4-0.4H18.8c-0.2,0-0.4,0.2-0.4,0.4
	v6.8C18.4,107.6,18.6,107.8,18.8,107.8z M178.1,107.1h-159V101h159V107.1z"/>
<path id="Path_9" class="st2" d="M78.9,137.4c0.1,0.5-8.8,32.7-8.8,32.7l12.5,2l14.8-44.5L78.9,137.4z"/>
<path id="Shape_9" class="st3" d="M82.5,172.5L82.5,172.5c0.2,0,0.3-0.1,0.4-0.2l14.8-44.5c0-0.1,0-0.3-0.1-0.4
	c-0.1-0.1-0.3-0.1-0.4,0l-18.5,9.8c-0.1,0.1-0.2,0.2-0.2,0.3c-0.1,1.1-5.3,20-8.8,32.6c0,0.1,0,0.2,0,0.3c0.1,0.1,0.1,0.1,0.2,0.2
	L82.5,172.5z M82.3,171.8l-11.8-1.9h0c5.4-19.3,8.3-30.1,8.7-32.2l17.6-9.3L82.3,171.8z"/>
<path id="Path_10" class="st4" d="M69.3,168.8l-1.9,6l29.9,2.3c-1.4-2.8-3.8-5-6.8-6.1c-3.1-1.1-6.5-2.4-6.5-2.4l-1.5,3.6
	L69.3,168.8z"/>
<path id="Shape_10" class="st3" d="M67.4,175.1l29.9,2.3c0.1,0,0.3,0,0.4-0.1c0.1-0.1,0.1-0.2,0-0.3c-1.4-2.9-3.9-5.2-7-6.3
	c-2.2-0.8-4.6-1.7-5.7-2.1c-0.4-0.2-0.7-0.3-0.7-0.3c-0.1,0-0.2,0-0.3,0s-0.2,0.1-0.2,0.2l-1.4,3.3l-13-3.3c-0.2,0-0.4,0.1-0.4,0.2
	l-1.9,6c0,0.1,0,0.2,0,0.3S67.3,175.1,67.4,175.1z M96.7,176.7l-28.8-2.2l1.7-5.2l12.9,3.3c0.2,0,0.3,0,0.4-0.2l1.4-3.3
	c0,0,0.1,0,0.1,0c1,0.4,3.6,1.4,6,2.2C93.1,172.3,95.3,174.2,96.7,176.7z"/>
<path id="Path_11" class="st4" d="M48.3,137.9l-2.1,33.9c0,0-7.2,0.2-9,1.5c-1.8,1.3-3.3,7-3.3,7h2.2c0,0,1.3-4.3,2.7-4.8
	c1.4-0.5,9.6-0.7,9.6-0.7s3.9,1.5,4.6,4.1c0.5,2.1,0.4,2.5,0.4,2.5h2.5c0-1.2-0.2-2.3-0.5-3.5c-0.5-1.4-2.4-3.1-2.4-3.1
	s4.1,0.1,5.5,0.1c1.4,0,2.8,2.6,2.8,2.6h2.7c0,0-2.8-4.7-4.6-5.1s-6.4-1.1-6.4-1.1l-1.3-31.6L48.3,137.9z"/>
<path id="Shape_11" class="st3" d="M53.4,181.8h2.5c0.2,0,0.3-0.2,0.3-0.3c0-1.2-0.2-2.4-0.5-3.6c-0.4-1-1-1.9-1.8-2.6
	c0.2,0,0.4,0,0.7,0c1.3,0,3.1,0.1,3.9,0.1c0.8,0,2,1.5,2.5,2.4c0.1,0.1,0.2,0.2,0.3,0.2h2.7c0.1,0,0.2-0.1,0.3-0.2
	c0.1-0.1,0.1-0.2,0-0.4c-0.3-0.5-2.9-4.9-4.8-5.2c-1.5-0.3-5.1-0.9-6.2-1.1L52,139.8c0-0.1-0.1-0.2-0.2-0.3l-3.4-1.9
	c-0.1-0.1-0.2-0.1-0.3,0c-0.1,0.1-0.2,0.2-0.2,0.3l-2.1,33.6c-1.4,0.1-7.2,0.4-8.8,1.6c-1.9,1.3-3.3,7-3.4,7.2c0,0.1,0,0.2,0.1,0.3
	c0.1,0.1,0.2,0.1,0.3,0.1h2.3c0.2,0,0.3-0.1,0.3-0.3c0.5-1.6,1.6-4.2,2.5-4.5c1.1-0.4,7.1-0.7,9.4-0.7c0.5,0.2,3.7,1.6,4.2,3.9
	c0.2,0.8,0.4,1.5,0.4,2.3c0,0.1,0,0.2,0,0.3C53.2,181.8,53.3,181.8,53.4,181.8z M55.5,181.1h-1.7c-0.1-0.8-0.2-1.5-0.4-2.3
	c-0.7-2.8-4.6-4.3-4.8-4.4h-0.1c-0.3,0-8.3,0.2-9.7,0.7c-1.3,0.5-2.5,3.8-2.8,4.8h-1.5c0.5-1.8,1.7-5.4,3-6.3c1.4-1,6.8-1.3,8.8-1.4
	c0.2,0,0.3-0.2,0.3-0.3l2.1-33.4l2.7,1.6l1.2,31.4c0,0.2,0.1,0.3,0.3,0.3c0.1,0,4.6,0.8,6.4,1.1c1.2,0.2,3.1,2.8,4,4.3h-1.8
	c-0.4-0.7-1.6-2.6-3-2.6c-1.1,0-4.3-0.1-5.2-0.1c-0.2,0-0.3,0-0.3,0c-0.1,0-0.3,0.1-0.3,0.2c-0.1,0.1,0,0.3,0.1,0.4c0,0,0,0,0,0
	c0.2,0.1,1.8,1.7,2.3,3C55.3,179.1,55.5,180.1,55.5,181.1z"/>
<path id="Path_12" class="st2" d="M89.2,116.2c0,0,28.3,1.5,30,5.6c1.8,4-11.3,48.5-11.3,48.5s13.8,4.8,11.6,5.8
	c-2.3,1-24.9-1-24.9-1l10.7-41.2l-28-1.9L89.2,116.2z"/>
<path id="Shape_12" class="st3" d="M94.6,175.4c1.8,0.2,14.7,1.3,21.4,1.3c1.3,0.1,2.5,0,3.7-0.3c0.3-0.1,0.5-0.3,0.5-0.6
	c-0.1-1.5-8-4.4-11.7-5.7c1.3-4.4,12.9-44.4,11.2-48.4c-0.3-0.7-1.2-2.7-16-4.5c-7.2-0.9-14.3-1.3-14.4-1.3c-0.1,0-0.2,0-0.3,0.1
	l-11.9,15.8c-0.1,0.1-0.1,0.2,0,0.4c0.1,0.1,0.2,0.2,0.3,0.2l27.5,1.9L94.3,175c0,0.1,0,0.2,0,0.3C94.4,175.4,94.5,175.4,94.6,175.4
	z M119.4,175.8c-1.7,0.8-17.8-0.4-24.3-1l10.6-40.8c0-0.1,0-0.2-0.1-0.3c-0.1-0.1-0.2-0.1-0.3-0.1l-27.3-1.9l11.3-15.1
	c7.9,0.4,28.1,2.1,29.6,5.3c1.4,3.2-7.7,35.9-11.3,48.3c-0.1,0.2,0,0.4,0.2,0.4C113.1,172.5,118.9,174.9,119.4,175.8z"/>
<path id="Path_13" class="st2" d="M79.6,91c0,0,14.5,18.2,20.7,17.7c6.2-0.5,24-22.9,24-22.9c3.2-3.9,6.8-8.7,4.5-14
	c-0.2-0.5-0.6-1.1-1.2-1c-0.2,0-0.5,0.1-0.6,0.3l-2,1.2c0.1-0.5-0.6-0.9-1.2-0.8c-0.5,0.2-0.9,0.6-1.2,1.1c-2.1,2.9-3.4,5.7-3.3,9.4
	L98.6,92.4l-8.2-9.2"/>
<path id="Path_14" class="st4" d="M100.1,109c-6.4,0-20.2-17.1-20.8-17.8c-0.1-0.2-0.1-0.4,0.1-0.5c0.1-0.1,0.4-0.1,0.5,0
	c0.1,0.2,14.1,17.6,20.2,17.6h0.2c6-0.5,23.5-22.6,23.7-22.8c3.3-4,6.7-8.6,4.5-13.7c-0.1-0.2-0.4-0.8-0.8-0.8
	c-0.2,0-0.3,0.1-0.5,0.2l-2,1.2c-0.1,0.1-0.3,0.1-0.4,0c-0.1-0.1-0.2-0.2-0.2-0.3c0-0.1,0-0.2-0.1-0.3c-0.2-0.1-0.4-0.2-0.6-0.1
	c-0.4,0.2-0.8,0.5-1,0.9c-1.7,2.5-3.3,5.3-3.2,9.2c0,0.1-0.1,0.3-0.2,0.3L98.8,92.8c-0.1,0.1-0.3,0-0.4-0.1l-8.2-9.2
	C90,83.4,90,83.4,90,83.3c0-0.1,0-0.2,0.1-0.3c0.1-0.1,0.4-0.1,0.5,0l8.1,8.9L119,81.5c-0.1-3.9,1.6-6.8,3.3-9.4
	c0.3-0.6,0.8-1,1.4-1.2c0.4-0.1,0.9,0,1.2,0.3c0.1,0.1,0.2,0.2,0.2,0.3l1.6-1c0.2-0.2,0.5-0.3,0.8-0.3c0.6,0,1.2,0.4,1.5,1.2
	c2.6,5.9-2.1,11.4-4.6,14.4c-0.7,0.9-17.9,22.5-24.2,23.1L100.1,109z"/>
<path id="Path_15" class="st2" d="M32.1,87.8c0,0-7.5,17-4.7,18.8c2.8,1.8,19.7,0,19.7,0l-1.5-22"/>
<path id="Path_16" class="st4" d="M33.8,107.8c-3,0-5.7-0.2-6.6-0.9c-0.5-0.3-2-1.3,1.2-10.5c1.5-4.4,3.4-8.7,3.4-8.8
	c0-0.1,0.2-0.2,0.3-0.2c0.1,0,0.3,0,0.3,0.2c0.1,0.1,0.1,0.3,0,0.4c-2.8,6.5-6.7,17.2-4.8,18.4c2.1,1.4,14.2,0.5,19.1,0l-1.4-21.7
	c0-0.2,0.1-0.4,0.3-0.4c0.2,0,0.4,0.1,0.4,0.3l1.5,22c0,0.2-0.1,0.4-0.3,0.4C46.6,107.1,39.5,107.8,33.8,107.8z"/>
<path id="Path_17" class="st2" d="M38.2,116.7c0,0-3.7,8.2,0.2,13.3c3.9,5.1,58,5.8,58,5.8l3.9-19.5l-22.6-3.1l-1.3-6.8L38.2,116.7z
	"/>
<path id="Shape_13" class="st3" d="M68.9,135.2c13.9,0.8,27.5,1,27.6,1c0.2,0,0.3-0.1,0.3-0.3l3.8-19.6c0-0.1,0-0.2-0.1-0.3
	c-0.1-0.1-0.1-0.1-0.2-0.1L78,112.8l-1.3-6.5c0-0.1-0.1-0.2-0.2-0.2c-0.1-0.1-0.2-0.1-0.3,0l-38.2,10.3c-0.1,0-0.2,0.1-0.2,0.2
	c-0.2,0.3-3.7,8.4,0.3,13.7C39.8,132.4,50.2,134.1,68.9,135.2z M38.7,129.8c-3.4-4.5-0.7-11.7-0.3-12.8l37.7-10.2l1.2,6.4
	c0,0.1,0.1,0.3,0.3,0.3l22.2,3l-3.8,18.9C77.4,135.2,41.7,133.7,38.7,129.8z"/>
<path id="Path_18" class="st2" d="M60.4,48c-0.6-0.3-1-0.8-1.4-1.3c-0.5-0.8-0.9-1.6-1.1-2.5c-1.9-7-1.9-15.9,4.2-20.6
	c3.7-2.8,8.5-3.7,13-2.3c3,1,5.5,5.1,6.9,7.8c1.1,2.2,1.8,4.6,3.1,6.6c1.3,2.1,3.4,3.9,5.8,4c-2,1.1-4.3,1.2-6.4,0.4
	c1,1.3,2.6,1.9,4.2,1.6c-1.4,1.1-3.4,1.1-5.2,0.7c-1.8-0.4-3.5-0.9-5.4-0.7c-2.8,0.3-4.7,2.4-6.9,3.9C68.4,47.4,63.6,49.8,60.4,48z"
	/>
<path id="Shape_14" class="st3" d="M60.2,48.3c0.9,0.5,1.8,0.7,2.8,0.7c3.2,0,6.8-2.1,8.4-3.3c0.6-0.4,1.1-0.8,1.7-1.2
	c0.1-0.1,0.1-0.1,0.2-0.2c1.5-1.1,2.9-2.2,4.9-2.5c1.3-0.1,2.7,0.1,4,0.5l0,0c0.4,0.1,0.8,0.2,1.3,0.3c2.4,0.5,4.2,0.2,5.5-0.8
	c0.1-0.1,0.2-0.3,0.1-0.4c-0.1-0.2-0.2-0.2-0.4-0.2c-1,0.2-1.9,0-2.8-0.5c1.8,0.3,3.6,0,5.2-0.8c0.1-0.1,0.2-0.2,0.2-0.4
	c0-0.2-0.2-0.3-0.3-0.3c-2.9-0.1-4.8-2.7-5.5-3.8c-0.8-1.3-1.4-2.6-2-4c-0.4-0.9-0.7-1.7-1.2-2.6c-1.3-2.5-3.9-6.9-7.1-8
	c-4.6-1.4-9.5-0.6-13.3,2.4c-7.7,6-5.3,17.6-4.4,21c0.2,1,0.6,1.9,1.2,2.7C59.1,47.4,59.6,47.9,60.2,48.3z M62.3,23.8
	c2.5-1.9,5.4-2.9,8.5-2.9c1.4,0,2.8,0.2,4.2,0.6c3.1,1,5.7,5.6,6.7,7.6c0.4,0.7,0.7,1.4,0.9,2.1c0.1,0.2,0.1,0.3,0.2,0.5
	c0.6,1.4,1.2,2.8,2,4.1c1.1,1.9,2.8,3.3,4.9,4c-1.6,0.6-3.4,0.5-5-0.1c-0.1-0.1-0.3,0-0.4,0.1c-0.1,0.1-0.1,0.3,0,0.4
	c0.7,1,1.8,1.6,2.9,1.8c-1.2,0.3-2.4,0.3-3.6,0c-0.3-0.1-0.6-0.1-0.9-0.2c-0.1,0-0.2,0-0.3-0.1c-1.4-0.4-2.8-0.6-4.2-0.5
	c-2.2,0.2-3.8,1.5-5.4,2.8c-0.5,0.4-1.1,0.8-1.6,1.2c-1.6,1.1-7.1,4.5-10.5,2.5c-0.5-0.3-1-0.7-1.3-1.2c-0.5-0.7-0.9-1.6-1.1-2.4
	C57.3,40.7,54.9,29.5,62.3,23.8z"/>
<path id="Path_19" class="st2" d="M79.6,42.9c0,0,1.9,6.1,0.9,6.9c-1,0.9-3.1-0.5-3.1-0.5"/>
<path id="Path_20" class="st4" d="M79.6,50.5c-0.9-0.1-1.7-0.4-2.4-0.8c-0.1-0.1-0.2-0.2-0.2-0.3c0-0.1,0.1-0.2,0.2-0.3
	c0.1-0.1,0.3,0,0.4,0c0.5,0.3,2,1.1,2.7,0.5c0.5-0.4-0.1-3.7-1-6.5c-0.1-0.2,0-0.4,0.2-0.4c0.2-0.1,0.4,0,0.4,0.2
	c0.5,1.5,1.9,6.4,0.8,7.3C80.4,50.4,80,50.5,79.6,50.5z"/>
<path id="Path_21" class="st2" d="M80.7,36c1.6,2.4,0,5.9-0.7,8.3c-1,3.4-2,6.8-3.2,10.1c-0.7,2.1-6.3,0.6-7.1-0.3l-1.5,8.7
	l-11.7-4.1l3.8-10.6c0,0,3.8,1.1,7.2-2.7c3.4-3.8,5.8-13.4,5.8-13.4S79.1,33.6,80.7,36z"/>
<path id="Shape_15" class="st3" d="M68.1,63.1h0.1c0.1,0,0.1,0,0.1,0c0.1,0,0.2-0.1,0.2-0.2l1.4-8.2c1.7,0.9,3.6,1.2,5.5,1
	c0.7-0.1,1.3-0.5,1.6-1.2c1.1-3.3,2.2-6.7,3.2-10.1c0.1-0.4,0.3-0.8,0.4-1.3l0,0c0.8-2.3,1.7-5.2,0.2-7.3c-1.6-2.3-7.3-3.9-7.7-4.1
	c0,0,0,0,0,0c-0.1,0-0.2,0-0.3,0c-0.1,0-0.1,0.1-0.2,0.2c0,0.1-2.5,9.7-5.7,13.2c-3.1,3.5-6.5,2.6-6.8,2.6c0,0,0,0,0,0
	c-0.2-0.1-0.4,0-0.4,0.2l-3.7,10.6c0,0.1,0,0.2,0,0.3c0,0.1,0.1,0.1,0.2,0.2L68.1,63.1z M68,62.3l-11-3.8l3.5-10
	c1,0.2,4.2,0.4,7.2-2.8c3.1-3.4,5.3-11.4,5.8-13.2c1.3,0.4,5.7,1.9,6.9,3.7c1.3,1.8,0.4,4.5-0.3,6.6l0,0.1c0,0.2-0.1,0.3-0.1,0.4
	c-0.1,0.3-0.2,0.6-0.3,0.9c-1,3.4-2,6.8-3.2,10.1c-0.1,0.4-0.5,0.6-1.1,0.8c-1.8,0.4-4.9-0.6-5.4-1.2c-0.1-0.1-0.2-0.1-0.4-0.1
	c-0.1,0-0.2,0.1-0.3,0.3L68,62.3z"/>
<path id="Path_22" class="st2" d="M77.5,51.8c0,0-3.1,0.9-3.7-2.2L77.5,51.8z"/>
<path id="Path_23" class="st4" d="M76.5,52.3c-0.6,0-1.2-0.1-1.7-0.4c-0.8-0.5-1.3-1.3-1.4-2.2c0-0.2,0.1-0.4,0.3-0.4
	c0.2,0,0.4,0.1,0.4,0.3c0.1,0.7,0.5,1.3,1.1,1.7c0.7,0.3,1.5,0.4,2.2,0.2c0.1,0,0.3,0,0.4,0.1c0.1,0.1,0.1,0.2,0.1,0.4
	c0,0.1-0.1,0.2-0.3,0.3C77.2,52.2,76.9,52.3,76.5,52.3z"/>
<path id="Path_24" class="st2" d="M72.5,43.3c0.1-0.9,0-1.8-0.3-2.6c-0.2-0.7-0.4-1.3-0.8-1.9c-0.4-0.6-1-1-1.7-1.1
	c-0.6,0-1.2,0.2-1.6,0.7c-0.4,0.4-0.7,1-0.9,1.6c-0.8,2.6-0.2,5.4,1.5,7.4l-0.1-0.3"/>
<path id="Path_25" class="st4" d="M68.7,47.7c-0.1,0-0.2,0-0.3-0.1c-1.9-2.1-2.5-5.1-1.6-7.8c0.2-0.6,0.5-1.2,1-1.7
	c0.5-0.5,1.2-0.8,1.9-0.8c0.8,0.1,1.5,0.5,1.9,1.2c0.4,0.6,0.7,1.3,0.8,2c0.4,0.9,0.5,1.9,0.3,2.8c-0.1,0.2-0.2,0.3-0.4,0.3
	c-0.2-0.1-0.3-0.2-0.2-0.4c0.1-0.8,0-1.6-0.3-2.4c-0.2-0.6-0.4-1.2-0.8-1.8c-0.3-0.5-0.8-0.8-1.4-0.9c-0.5,0-1,0.2-1.3,0.6
	c-0.4,0.4-0.7,0.9-0.8,1.4c-0.7,2.3-0.3,4.8,1.2,6.7c0.1,0,0.2,0.1,0.2,0.2l0.1,0.3c0.1,0.2,0,0.4-0.1,0.5
	C68.9,47.7,68.8,47.7,68.7,47.7z"/>
<ellipse id="Oval" transform="matrix(0.2183 -0.9759 0.9759 0.2183 22.9644 108.6396)" class="st4" cx="79.3" cy="40" rx="1.3" ry="0.5"/>
<path id="Path_26" class="st4" d="M69.8,54c-1.5-1-3-2.1-4.4-3.3c0,0-0.7,6.2,3.5,7.6L69.8,54z"/>
<path id="Shape_16" class="st3" d="M68.7,58.7c0,0,0.1,0,0.1,0c0.1,0,0.1,0,0.2,0c0.1-0.1,0.1-0.1,0.2-0.2l0.9-4.3
	c0-0.1,0-0.3-0.2-0.4c-1.5-1-3-2.1-4.4-3.3c-0.1-0.1-0.2-0.1-0.4-0.1c-0.1,0.1-0.2,0.2-0.2,0.3C65,51,64.3,57.2,68.7,58.7z
	 M68.6,57.8c-2.7-1.2-2.9-4.8-2.9-6.4c1.2,1,2.4,1.9,3.7,2.7L68.6,57.8z"/>
<path id="Path_27" class="st8" d="M36,119.4c0,0,0.6-43.5,7.1-53.5s23.4-12.3,31.4-6.3c8,6,4.2,51.6,4.2,51.6S53.1,119.4,36,119.4z"
	/>
<path id="Path_28" class="st8" d="M68.9,57c4.3,1.7,8.3,4.1,11.9,7c5.6,4.6,17.3,24.6,17.3,24.6l-15.5,9.4L68.7,80.8L68.9,57z"/>
<path id="Path_29" class="st8" d="M49.8,59.7c0,0-8.1,0.9-12.4,9.8c-2.3,4.8-8.3,20.5-8.3,20.5l17.9,2.1L49.8,59.7z"/>
<path id="Path_30" class="st4" d="M81.4,97c-0.1,0-0.2-0.1-0.3-0.1L67.3,77.9c-0.1-0.1-0.1-0.2-0.1-0.3c0-0.1,0.1-0.2,0.1-0.2
	c0.2-0.1,0.4-0.1,0.5,0.1l13.8,18.9c0.1,0.1,0.1,0.3,0,0.4C81.7,96.9,81.6,97,81.4,97z"/>
<path id="Path_31" class="st4" d="M122.7,75.6l3.5-10.8l1.1,0.3L125,75.8C125,75.8,123.5,77.3,122.7,75.6z"/>
<path id="Shape_17" class="st3" d="M123.5,76.8h0.2c0.6,0,1.1-0.3,1.5-0.7c0,0,0.1-0.1,0.1-0.2l2.2-10.7c0-0.2-0.1-0.4-0.2-0.4
	l-1.1-0.3c-0.2,0-0.4,0.1-0.4,0.2l-3.4,10.8c0,0.1,0,0.2,0,0.3C122.5,76.3,123,76.7,123.5,76.8z M123.6,76c-0.2-0.1-0.4-0.2-0.6-0.5
	l3.3-10.3l0.4,0.1l-2.1,10.2C124.4,75.9,124,76.1,123.6,76z"/>
<path id="Path_32" class="st8" d="M57.3,51.3c-6.4-1.4-13.4-0.4-18.6,3.6c-2.2,1.6-3.8,3.8-4.7,6.4c-0.8,2.6-0.3,5.5,1.3,7.7
	c4.9,5.9,15.6,5.9,22.2,3.9c4.5-1.3,17.9-7.7,14.2-14C69.2,54.4,62.1,52.3,57.3,51.3z"/>
<path id="Path_33" class="st4" d="M49.2,73.3c-4.2-0.1-8.3-1.3-12-3.5c-0.1,0-0.1-0.1-0.2-0.2c0-0.1,0-0.2,0-0.3
	c0.1-0.2,0.3-0.2,0.5-0.1c0.1,0.1,8.8,5.5,17.1,2.4c4-1.5,6.4-4.2,8.7-6.8c2.5-2.8,4.9-5.5,9-5.9c0.1,0,0.2,0,0.3,0.1
	c0.1,0.1,0.1,0.1,0.1,0.2c0,0.1,0,0.2-0.1,0.3c-0.1,0.1-0.1,0.1-0.2,0.1c-3.8,0.3-6,2.8-8.6,5.7c-2.3,2.5-4.8,5.4-8.9,7
	C53.2,73,51.2,73.4,49.2,73.3z"/>
<path id="Path_34" class="st4" d="M36.6,103.8c-0.1,0-0.2,0-0.2-0.1c-0.1-0.1-0.1-0.2-0.1-0.3c0.5-11.2,2.8-27.4,2.8-27.6
	c0-0.2,0.2-0.3,0.4-0.3c0.2,0,0.3,0.2,0.3,0.4c0,0.2-2.3,16.3-2.8,27.5C37,103.7,36.8,103.8,36.6,103.8z"/>
<path id="Path_35" class="st4" d="M90.9,174.3h15c0,0,1.6-3.7,5.2-4.2c0,0,13.7,5.8,11.7,7c-2,1.2-33,1.1-33,1.1L90.9,174.3z"/>
<path id="Shape_18" class="st3" d="M89.8,178.6H93c8.2,0,28.3-0.1,30-1.1c0.2-0.1,0.4-0.4,0.4-0.7c-0.1-1.8-9.3-5.8-12.1-7
	c-0.1,0-0.1,0-0.2,0c-3.2,0.5-4.9,3.3-5.3,4.2H90.9c-0.2,0-0.3,0.1-0.3,0.3l-1.1,3.9c0,0.1,0,0.2,0.1,0.3
	C89.6,178.5,89.7,178.6,89.8,178.6z M122.6,176.9c-1.4,0.8-19.9,1.1-32.3,1l0.9-3.2H106c0.1,0,0.3-0.1,0.3-0.2c0,0,1.6-3.4,4.8-3.9
	C116.6,172.9,122.6,176,122.6,176.9z"/>
<path id="Path_36" class="st4" d="M79.5,139.4c9.6-2,16-6.5,12.2-12.6c-3.8-6.1-30.8-2.1-36.1-6.6c-5.3-4.5-3.4-28.4-9.2-32.4
	c-5.8-4.1-30.7-8.2-33.5-3.1c-2.8,5.2,0,42.7,8.1,51C29.2,144,70.2,141.3,79.5,139.4z"/>
<path id="Shape_19" class="st3" d="M49.9,141.7h1.6c11.4,0,23.3-1,28.2-2.1c7.1-1.5,11.8-4.1,13.2-7.4c0.8-1.8,0.5-3.7-0.7-5.7
	c-2.1-3.4-11-3.8-19.6-4.1l0,0c-7-0.3-14.2-0.6-16.5-2.6c-2.5-2.1-3.4-8.9-4.2-15.5l0,0l0,0c-0.9-7.2-1.9-14.7-5-16.9
	c-5-3.5-22.7-6.8-30.4-5c-1.8,0.5-3,1.2-3.5,2.1c-3,5.6,0.1,43.2,8.1,51.5C25.3,140.6,39.1,141.7,49.9,141.7z M16.4,83.1
	c1.7-0.4,3.5-0.5,5.2-0.5c8.5,0,20.8,2.7,24.6,5.4c2.9,2,3.8,9.4,4.7,16.4c0.9,7,1.8,13.7,4.5,16c2.5,2.2,9.6,2.5,17,2.7l0,0
	c8.4,0.3,17.1,0.7,19,3.8c1.1,1.8,1.3,3.5,0.7,5c-1.3,3-5.9,5.6-12.7,7c-9.4,2-50.2,4.6-58.1-3.6c-7.8-8-10.8-45.5-8-50.6
	C13.7,84.1,14.8,83.5,16.4,83.1z"/>
<path id="Path_37" class="st1" d="M97.3,119.7L97.3,119.7l-22.9-4c-0.2,0-0.3-0.2-0.3-0.4c0-0.2,0.2-0.3,0.4-0.3l22.8,4
	c0.2,0,0.3,0.2,0.3,0.4C97.7,119.6,97.5,119.8,97.3,119.7z"/>
<path id="Path_38" class="st4" d="M163.1,166.4l-0.7-0.1c0-0.2,2.2-20.8-4.9-29.9l0.6-0.4c3.1,3.9,4.8,10.3,5.3,18.8
	C163.6,158.6,163.5,162.5,163.1,166.4z"/>
<path id="Path_39" class="st4" d="M160.7,169c0-0.2,0-0.5,0.1-0.7c1.7-10.8-1.2-15.8-3.9-18.1l0.5-0.5c2.8,2.4,5.9,7.7,4.1,18.8
	c0,0.3-0.1,0.4-0.1,0.5L160.7,169z"/>
<path id="Path_40" class="st4" d="M157,145.6c-0.6-0.3-1.2-0.5-1.9-0.6c-1.2-0.2-2.4,0.2-3.3,0.9c-0.2,0.2-0.4,0.6-0.2,0.9
	c0.1,0.1,0.3,0.2,0.5,0.2c0.9,0.3,1.7,1,1.9,2c-0.5-0.4-0.9-0.8-1.4-1.2c-0.5-0.4-1.1-0.6-1.7-0.6c-0.7,0.2-1.3,0.6-1.6,1.1
	c-0.5,0.5-0.8,1-1.1,1.7c-0.3,0.6-0.4,1.3-0.3,2c0.6-0.2,1.3-0.2,2-0.1c0.5,0,0.9,0.2,1.3,0.5c0.1,0.1,0.2,0.2,0.2,0.3
	c0,0.3-0.2,0.5-0.4,0.6c-0.3,0.1-0.6,0.1-0.8,0c-0.6-0.1-1.2-0.2-1.7-0.2c-0.2,0-0.4,0-0.7,0c-0.5,0.3-0.8,0.9-0.7,1.5
	c0,0.2,0.1,0.5,0.2,0.6c0.3,0.2,0.7,0.1,1-0.1c0.6-0.2,1.2-0.4,1.9-0.4c0.1,0,0.1,0,0.2,0c0.1,0.1,0.1,0.1,0.1,0.2s0,0.2-0.1,0.2
	c-0.1,0.1-0.3,0.2-0.5,0.3c-0.5,0.2-1,0.3-1.5,0.3c-0.3,0-0.6,0.1-0.8,0.4c-0.1,0.1-0.1,0.2-0.1,0.4c0,1,0.2,1.9,0.8,2.7
	c0.1,0.1,0.2,0.3,0.3,0.4c0.2,0.1,0.4,0.2,0.6,0.2c1.7,0.2,3.4-0.1,5-0.7c0.1,0,0.2-0.1,0.2-0.1c0.1-0.2-0.1-0.4-0.2-0.5
	c-0.5-0.6-0.4-1.6-0.3-2.4c0-0.2,0.1-0.3,0.2-0.4c0.2-0.1,0.5-0.1,0.6,0.1c0.1,0.2,0.2,0.4,0.2,0.7c0.1,0.8,0,1.7-0.2,2.5
	c0.8-0.2,1.6-0.5,2.4-0.8c0.6-0.2,1.2-0.6,1.7-1c0.5-0.4,0.9-1,1.1-1.6c0-0.1,0-0.2,0-0.4c-0.1-0.1-0.1-0.1-0.2-0.2
	c-0.7-0.5-1.3-1.2-1.7-2c-0.1-0.2-0.1-0.4,0.1-0.5c0.1,0,0.1,0,0.2,0c0.9,0.1,1.3,1.2,2.1,1.7c0.1,0,0.1,0.1,0.2,0.1
	c0.1,0,0.2,0,0.2-0.1c0.3-0.3,0.5-0.6,0.6-1c0.2-0.8,0.2-1.6-0.1-2.4c-0.3-0.8-0.9-1.3-1.7-1.6c-0.4-0.1-0.7-0.1-1.1,0
	c-0.1,0-0.8,0.2-0.9,0.2c-0.1-0.1,0.3-0.6,0.4-0.8C158.5,147.5,157.8,146.2,157,145.6z"/>
<path id="Path_41" class="st4" d="M167.7,139.2c-1.1,0-2.2,0.5-2.8,1.5c-0.4,0.7-0.6,1.6-0.5,2.5c0.1,0.8,0.3,1.7,0.6,2.5
	c0.6-1,1.6-1.7,2.7-1.8c1.2-0.1-0.2,1-0.4,1.3c-0.7,0.8-1.3,1.6-1.9,2.4c-0.2,0.2-0.3,0.4-0.3,0.7c0,0.3,0.1,0.6,0.2,0.8
	c0.5,1.1,1.2,2,2.1,2.7c0.3,0.2,0.6,0.3,0.9,0.1c0.1-0.1,0.3-0.3,0.3-0.5c0.3-0.7,0.8-1.4,1.3-2c0.1-0.2,0.3-0.3,0.5-0.2
	c0.2,0.1,0.1,0.3,0.1,0.4l-0.1,1.6c-0.1,0.6-0.1,1.2,0.1,1.7c0.4,1,1.5,1.5,2.6,1.7c0.3,0.1,0.6,0.1,0.9,0c0.6-0.2,0.8-0.9,0.9-1.5
	c0.1-0.8,0.4-1.5,0.9-2.1c0.1,1,0.5,2,1,2.9c0.3,0.5,0.6,0.9,1,1.3c0.5,0.3,1,0.5,1.5,0.6c0.9,0.2,1.9,0.2,2.8,0.2
	c0.7,0,1.3-0.1,1.9-0.2c0.6-0.2,1.2-0.6,1.5-1.2c0.6-1,0.1-2.3-0.6-3.2c-0.7-0.9-1.7-1.6-2.4-2.4c0.9,0.3,1.8,0.7,2.6,1.3
	c0.2,0.2,0.4,0.3,0.7,0.3c0.1,0,0.2-0.1,0.3-0.2c1.1-1.1-0.2-3-0.8-4c-0.3-0.7-0.9-1.3-1.6-1.6c-0.4-0.1-0.9-0.1-1.3,0
	c-0.6,0.1-3.8,1.5-2.4-0.3c0.7-0.9,1.8-1.3,2.9-1.3c0.5,0,1.4,0.5,1.4-0.5c0-0.4-0.2-0.7-0.4-1c-0.4-0.7-0.9-1.3-1.4-1.9
	c-0.1-0.2-0.3-0.3-0.5-0.4c-0.2,0-0.4,0-0.5,0.1c-1.3,0.8-2.7,1.3-4.2,1.6c-0.3,0-0.8-0.1-0.8-0.4c0-0.1,0.1-0.2,0.2-0.3
	c0.9-0.7,2.2-0.4,3.2-1.1c0.3-0.2,0.5-0.5,0.5-0.8c0-0.5-0.4-0.9-0.8-1.1c-1-0.8-2.1-1.4-3.4-1.6c-1.9-0.1-3.5,1.1-4.8,2.5
	c-0.4,0.5-0.7,1.7-1.4,1.6c-0.4-0.1-0.8-0.3-1.2-0.5C168.5,139.2,168.1,139.2,167.7,139.2z"/>
<path id="Path_42" class="st4" d="M158.7,129.4c-0.1-0.7-0.4-1.4-0.9-1.9c-0.9-0.9-2.4-0.9-3.6-0.7c-1,0.2-1.9,0.5-2.8,0.8
	c-0.9,0.3-1.2,0.5-0.4,1.2c0.6,0.5,2.1,2.4,1.4,3.3c-0.7,0.9-1.9-1.4-2.4-1.8c-0.6-0.6-1.4-0.9-2.2-1c-0.7,0.1-1.4,0.5-1.9,1
	c-0.6,0.5-1.1,1-1.6,1.6c-0.1,0.1-0.1,0.2-0.2,0.3c-0.1,0.4,0.4,0.7,0.9,0.7c1.2,0.2,2.5,0.8,2.8,2c-1.2,0.3-2.4-0.9-3.7-0.8
	c-0.9,0.2-1.7,0.9-2,1.8c-0.3,0.8-0.4,1.7-0.3,2.5c1.1-0.4,2.2-0.5,3.3-0.3c0.1,0,0.3,0.1,0.4,0.2c0.1,0.2,0,0.4-0.2,0.6
	c-0.2,0.1-0.4,0.1-0.6,0.1h-2.1c-0.2,0-0.4,0-0.6,0.1c-0.1,0.1-0.2,0.3-0.2,0.5c-0.1,0.9-0.1,1.9,0,2.8c0,0.6,0.2,1.1,0.6,1.6
	c0.3,0.2,0.7,0.4,1.1,0.5c1,0.2,2.1,0.4,3.2,0.4c-0.5-0.7-0.6-1.5-0.3-2.3c0.4-1,1.1-0.4,1.2,0.5c0,0.4-0.1,0.8-0.1,1.3
	c0,0.1,0,0.2,0,0.2c0,0.1,0.1,0.1,0.2,0.1c0.6,0.3,1.2,0.4,1.8,0.2c0.2,0,0.3-0.1,0.5-0.2c0.3-0.4,0.4-0.9,0.3-1.4l-0.3-2.6
	c0-0.1,0-0.2,0.1-0.3c0.1-0.1,0.4,0,0.5,0.1c0.5,0.5,0.8,1.2,0.8,1.9c0,0.4-0.2,0.8-0.2,1.2c-0.1,0.4,0.1,0.8,0.4,1.1
	c0.3,0.2,0.7,0.2,1.1,0.1c0.5-0.1,0.9-0.3,1.2-0.6c0.3-0.4,0.4-1,0.2-1.5c-0.1-0.5-0.2-1-0.3-1.5c0-1.1,1.1-2.6,1.3-0.7
	c0,0.6,0,1.2-0.1,1.8c0,0.1,0,0.2,0,0.2c0.1,0.1,0.2,0.2,0.4,0.2c0.8,0.1,1.7-0.1,2.4-0.5c0.5-0.2,1-0.6,1.3-1.1
	c0.3-0.4,0.5-0.8,0.7-1.2c0.9-1.8,2.2-3.3,0.6-5.2c-0.5-0.7-1.6-0.8-2.1-1.5c-0.6-0.8,0.3-2.1,0.4-3.1
	C158.7,129.8,158.7,129.6,158.7,129.4z"/>
<path id="Path_43" class="st2" d="M153.6,164.2h18l-1.4,13.6c-0.2,2.1-1.9,3.6-4,3.6H159c-2.1,0-3.8-1.6-4-3.6L153.6,164.2z"/>
<path id="Shape_20" class="st3" d="M159,181.9h7.2c2.2,0,4.1-1.7,4.3-4l1.4-13.6c0-0.1,0-0.2-0.1-0.3c-0.1-0.1-0.2-0.1-0.3-0.1h-18
	c-0.1,0-0.2,0-0.3,0.1c-0.1,0.1-0.1,0.2-0.1,0.3l1.4,13.6C154.8,180.1,156.7,181.9,159,181.9z M155.3,177.8l-1.3-13.2h17.2
	l-1.4,13.2c-0.2,1.9-1.8,3.3-3.7,3.3H159C157.1,181.1,155.5,179.7,155.3,177.8z"/>
<path id="Path_44" class="st4" d="M165.1,164.5c0-0.1-1.4-13.1,5-23.6l0.6,0.4c-6.2,10.3-4.8,23-4.8,23.2L165.1,164.5z"/>
<path id="Path_45" class="st2" d="M148.7,139.8c-0.1,0-0.2,0-0.2-0.1c-0.1-0.1-0.1-0.2-0.1-0.3c0-0.1,0-0.2,0.1-0.3
	c3.7-3.9,9.5-6.3,9.8-6.4c0.2-0.1,0.4,0,0.5,0.2c0.1,0.2,0,0.4-0.2,0.5c-0.1,0-5.9,2.4-9.5,6.2C148.9,139.8,148.8,139.8,148.7,139.8
	z"/>
<path id="Path_46" class="st2" d="M151.2,157.9c-0.1,0-0.2-0.1-0.3-0.2c-0.1-0.1-0.1-0.2,0-0.3c1.3-2.5,3-4.9,5.1-6.9
	c0.1-0.1,0.2-0.1,0.2-0.1s0.2,0,0.2,0.1c0.1,0.1,0.1,0.4,0,0.5c-1.9,2-3.6,4.3-4.9,6.7C151.5,157.8,151.3,157.9,151.2,157.9z"/>
<path id="Path_47" class="st2" d="M181.3,152.9c-0.1,0-0.2-0.1-0.3-0.2c-0.2-0.3-4.2-6.4-9.1-10c-0.2-0.1-0.2-0.3-0.1-0.5
	c0.1-0.2,0.3-0.2,0.5-0.1c4.8,3.7,8.8,9.5,9.2,10.2c0.1,0.2,0.1,0.4-0.1,0.5C181.4,152.8,181.3,152.9,181.3,152.9z"/>
<rect id="Rectangle_4" x="136.4" y="29.5" class="st2" width="43" height="30.3"/>
<path id="Shape_21" class="st7" d="M136.4,60.1h43c0.2,0,0.4-0.2,0.4-0.4V29.5c0-0.2-0.2-0.4-0.4-0.4h-43c-0.2,0-0.4,0.2-0.4,0.4
	v30.3C136.1,59.9,136.2,60.1,136.4,60.1z M179,59.4h-42.2V29.8H179V59.4z"/>
<path id="Path_48" class="st4" d="M164.2,88.5c-0.2,0-0.3-0.1-0.4-0.3l-1.7-11.3l-3,1.3c-0.1,0-0.2,0-0.3,0s-0.2-0.1-0.2-0.2
	c0-0.1,0-0.2,0-0.3c0-0.1,0.1-0.2,0.2-0.2l3.5-1.5c0.1,0,0.2,0,0.3,0c0.1,0.1,0.2,0.1,0.2,0.3l1.8,11.8c0,0.1,0,0.2-0.1,0.3
	C164.4,88.4,164.3,88.4,164.2,88.5L164.2,88.5z"/>
<path id="Path_49" class="st2" d="M170.2,100.7h-8.9l-0.5-19.1h9.8L170.2,100.7z"/>
<path id="Shape_22" class="st3" d="M161.3,101h8.9c0.2,0,0.3-0.1,0.3-0.3l0.5-19.2c0-0.2-0.2-0.4-0.4-0.4h-9.8c-0.1,0-0.2,0-0.3,0.1
	c-0.1,0.1-0.1,0.2-0.1,0.3l0.5,19.1C161,100.9,161.1,101,161.3,101z M169.8,100.3h-8.2l-0.5-18.4h9.1L169.8,100.3z"/>
<rect id="Rectangle_5" x="159.9" y="79.6" class="st2" width="11.6" height="1.9"/>
<path id="Shape_23" class="st3" d="M159.9,81.9h11.6c0.2,0,0.4-0.2,0.4-0.4v-1.9c0-0.2-0.2-0.4-0.4-0.4h-11.6
	c-0.2,0-0.4,0.2-0.4,0.4v1.9C159.6,81.7,159.7,81.9,159.9,81.9z M171.2,81.1h-10.9v-1.2h10.9V81.1z"/>
<path id="Shape_24" class="st7" d="M161.8,91.8c0.8,1.6,2.4,2.5,4.2,2.4c2.2-0.1,4-2,3.9-4.3c0-1.8-1.1-3.3-2.7-4
	c-1.6-0.6-3.5-0.2-4.7,1.1C161.3,88.4,161,90.2,161.8,91.8z M162.4,88.3c0.7-1.3,2.1-2.1,3.5-1.9c1.9,0.1,3.3,1.7,3.2,3.6
	c0,1.5-0.9,2.8-2.3,3.3c-1.4,0.5-2.9,0.1-3.9-0.9C162,91.2,161.8,89.6,162.4,88.3z"/>
<path id="Shape_25" class="st7" d="M146.5,53.3c0.8,0.3,1.7,0.4,2.5,0.4c2-0.1,3.9-0.8,5.5-1.9c1.7-1.1,2.5-2.2,2.3-3.4
	c-0.2-0.7-0.5-1.3-1-1.9c-0.4-0.4-0.7-0.9-0.9-1.5c0-0.7,0.2-1.3,0.6-1.8c1.1-1.8,1.2-4,0.3-5.9c-1-2-3.2-3.3-5.9-3.6
	c-2-0.2-3.9,0.6-5.3,2.1c-1.2,1.4-1.7,3.3-1.3,5.2c0.1,0.3,0.1,0.6,0.2,0.9l0,0c0.3,1.2,0.5,2.3-0.2,3c-0.3,0.3-0.7,0.5-1.1,0.7
	c-0.6,0.2-1.2,0.6-1.6,1.2c-0.2,0.5-0.3,1-0.2,1.5c0.3,1.4,1.1,2.6,2.3,3.4l0,0c0.2,0.2,0.5,0.3,0.7,0.4
	C144.4,52.5,145.4,53,146.5,53.3z M146.7,52.6c-1-0.3-2-0.8-3-1.3v0c-0.2-0.1-0.4-0.3-0.6-0.4c-1-0.7-1.8-1.7-2-2.9
	c-0.1-0.4,0-0.7,0.1-1c0.3-0.4,0.8-0.7,1.3-0.9c0.5-0.2,0.9-0.5,1.3-0.9c1-1,0.6-2.4,0.3-3.7v0c-0.1-0.3-0.1-0.6-0.2-0.8
	c-0.3-1.6,0.1-3.3,1.2-4.6c1.2-1.3,2.9-2,4.6-1.8c2.5,0.3,4.5,1.5,5.4,3.3c0.8,1.7,0.7,3.7-0.3,5.3c-0.4,0.7-0.7,1.4-0.7,2.2
	c0.2,0.7,0.5,1.4,1,1.9c0.4,0.4,0.7,0.9,0.9,1.5c0.1,0.9-0.5,1.7-2,2.7C152.1,52.5,149.7,53.6,146.7,52.6z"/>
<path id="Shape_26" class="st7" d="M163,52.4c1.7,0.7,3.5,1.1,5.3,1.1c1.1,0,2.1-0.1,3.1-0.4c2.1-0.7,3.8-2.4,4.5-4.5
	c0.5-1.7,0-3.4-1.2-4.7c-2.2-2.4-7.6-3.3-10.5-2.4c-0.6,0.2-1.2,0.5-1.8,0.8c-0.9,0.5-1.8,0.8-2.8,1c-1.3,0.1-2.6-0.1-3.8-0.6
	c-1.7-0.5-3.4-1-5.1-0.3c-1.7,0.8-2.7,2.7-2.4,4.6c0.2,1.5,0.9,2.9,1.9,4.1c1.2,1.5,3.1,2.4,5.1,2.2c0.9-0.1,1.7-0.4,2.5-0.8
	c1.4-1,3.3-1,4.8-0.2L163,52.4z M160.7,51h-0.2c-1,0.1-2,0.4-2.9,0.9c-0.7,0.4-1.5,0.6-2.2,0.8c-2.1,0.3-3.7-1.1-4.4-2
	c-0.9-1-1.6-2.3-1.8-3.7c-0.2-1.6,0.5-3.1,1.9-3.8c1.4-0.6,3-0.2,4.6,0.3l0,0c1.3,0.5,2.7,0.7,4.1,0.6c1.1-0.2,2.1-0.5,3-1.1
	c0.6-0.3,1.1-0.5,1.7-0.7c2.6-0.9,7.8,0,9.7,2.2c1,1.1,1.4,2.6,1,4c-0.6,1.9-2.1,3.4-4,4c-2.6,0.7-5.4,0.5-7.9-0.6l-0.3-0.1
	C162.2,51.3,161.5,51.1,160.7,51z"/>
<path id="Shape_27" class="st7" d="M164.8,47.1c0.6,0.7,1.6,1.1,2.5,1.1l0.4,0c1.9,0,3.7-0.7,5.2-1.8c2.8-2.3,1.9-4.6,1.1-5.7
	c-2.3-3.3-9.2-5.5-12.9-3.3c-1.4,0.8-2.3,2.2-2.6,3.8c-0.2,1.2,0,2.5,0.8,3.4c0.7,0.8,1.6,1.3,2.7,1.3c0.6,0,1.1,0.2,1.6,0.4
	C164.1,46.5,164.5,46.8,164.8,47.1z M161.5,37.9c1-0.5,2.1-0.8,3.3-0.8c3.3,0,7.2,1.7,8.7,3.9c1.1,1.7,0.8,3.3-1,4.8
	c-1.4,1-3,1.6-4.8,1.6c-0.9,0.2-1.8-0.1-2.4-0.8c-0.8-0.9-2-1.5-3.2-1.5c-0.8,0-1.7-0.4-2.2-1c-0.6-0.8-0.9-1.8-0.6-2.8
	C159.5,39.9,160.3,38.7,161.5,37.9z"/>
<path id="Path_50" class="st4" d="M59.3,45.6c0,0,2.3-1.9,0-4.3h-3.7c0,0,0.8,3.1,0,4.3H59.3z"/>
<path id="Shape_28" class="st3" d="M55.6,46h3.7c0.1,0,0.1,0,0.2-0.1c0.6-0.6,1.1-1.3,1.1-2.2c0-1-0.4-1.9-1.1-2.6
	c-0.1-0.1-0.2-0.1-0.3-0.1h-3.7c-0.1,0-0.2,0-0.3,0.1c-0.1,0.1-0.1,0.2-0.1,0.3c0.2,0.8,0.6,3.1,0.1,4c-0.1,0.1-0.1,0.3,0,0.4
	C55.4,45.9,55.5,46,55.6,46z M59.2,45.3h-3c0.2-1.2,0.2-2.4-0.1-3.5h3.1c0.5,0.5,0.8,1.2,0.8,1.9C59.9,44.3,59.6,44.8,59.2,45.3z"/>
<path id="Path_51" class="st2" d="M57.3,44.2c0.1-0.8-0.2-1.7-0.8-2.3c-0.3-0.4-0.6-0.7-0.9-1c-0.7-0.4-1.4-0.7-2.2-0.9
	c-1.7-0.4-3.7,0.1-5.5,0.1c-1.9,0-3.8-0.3-5.5-1c-0.6-0.2-1.1-0.6-1.6-1c-0.4,2.6-0.4,5.4,1.1,7.6c1.3,1.6,3,2.8,5,3.4
	c2.7,1.1,5.7,0.6,7.9-1.2c1-0.8,1.8-1.8,2.3-3C57.2,44.8,57.3,44.5,57.3,44.2z"/>
<path id="Shape_29" class="st3" d="M46.7,49.6c1,0.4,2.1,0.6,3.2,0.6c1.9,0,3.7-0.7,5.1-1.8c1.1-0.8,1.9-1.9,2.4-3.1
	c0.1-0.3,0.2-0.6,0.3-1c0.1-0.9-0.2-1.9-0.9-2.6c-0.3-0.4-0.6-0.7-1-1c-0.7-0.5-1.5-0.8-2.3-0.9c-1.2-0.2-2.5-0.2-3.8,0
	c-0.1,0-0.2,0-0.2,0c-0.5,0.1-1.1,0.1-1.6,0.1c-1.8,0.1-3.7-0.3-5.4-0.9c-0.5-0.2-1-0.5-1.4-0.9c-0.1-0.1-0.2-0.2-0.4-0.1
	c-0.1,0-0.2,0.1-0.3,0.3c-0.6,3.2-0.2,5.9,1.1,7.8C42.9,47.7,44.7,49,46.7,49.6z M42.2,45.6c-1.1-1.7-1.5-3.9-1.1-6.7
	c0.4,0.3,0.7,0.5,1.2,0.7c1.8,0.7,3.7,1.1,5.7,1c0.6,0,1.2-0.1,1.7-0.1c0,0,0.1,0,0.1,0c1.2-0.2,2.4-0.2,3.5,0
	c0.7,0.1,1.4,0.4,2.1,0.8c0.3,0.2,0.6,0.5,0.9,0.8c0.5,0.5,0.8,1.3,0.7,2c-0.1,0.3-0.1,0.6-0.2,0.8c-0.4,1.1-1.2,2.1-2.1,2.8
	c-2.2,1.7-5.1,2.1-7.6,1.1C45.1,48.3,43.4,47.2,42.2,45.6z"/>
<rect id="Rectangle_6" x="101" y="25.7" class="st2" width="30" height="19.9"/>
<path id="Shape_30" class="st7" d="M101,46h30c0.2,0,0.4-0.2,0.4-0.4V25.7c0-0.2-0.2-0.4-0.4-0.4h-30c-0.2,0-0.4,0.2-0.4,0.4v19.9
	C100.6,45.8,100.8,46,101,46z M130.7,45.3h-29.4l0-19.2h29.4V45.3z"/>
<rect id="Rectangle_7" x="101" y="45.6" class="st2" width="30" height="3.9"/>
<path id="Shape_31" class="st7" d="M101,49.9h30c0.2,0,0.4-0.2,0.4-0.4v-3.9c0-0.2-0.2-0.4-0.4-0.4h-30c-0.2,0-0.4,0.2-0.4,0.4v3.9
	C100.6,49.8,100.8,49.9,101,49.9z M130.7,49.2h-29.4l0-3.2h29.4V49.2z"/>
<path id="Path_52" class="st1" d="M104.4,41c-0.1,0-0.3-0.1-0.3-0.2c-0.1-0.1,0-0.3,0.1-0.4c0.3-0.4,8.5-10.5,16.1-9.9
	c3,0.2,5.1,1.8,5.5,4.3c0.4,2.1-0.7,4.3-2.6,5.2c-2.1,1-4.1,1-5.5,0c-1.2-1-1.8-2.6-1.5-4.1c0.1-1.3,0.9-2.5,2.2-2.8
	c1.3-0.3,2.7,0,3.6,1c0.4,0.5,0.5,1.2,0.2,1.7c-0.5,1-1.2,1.6-1.9,1.6c-1.2,0-2-1.3-2-1.4c0-0.1-0.1-0.2,0-0.3
	c0-0.1,0.1-0.2,0.2-0.2c0.1,0,0.2-0.1,0.3,0c0.1,0,0.2,0.1,0.2,0.2c0.2,0.3,0.8,1.1,1.4,1c0.6,0,1-0.7,1.3-1.2
	c0.2-0.3,0.1-0.7-0.2-1c-0.7-0.8-1.8-1.1-2.9-0.8c-1,0.3-1.7,1.2-1.7,2.3c-0.3,1.3,0.2,2.6,1.2,3.4c1.2,0.9,2.9,0.9,4.7,0
	c1.7-0.8,2.6-2.7,2.2-4.5c-0.4-2.1-2.2-3.5-4.9-3.7c-7.2-0.6-15.4,9.5-15.5,9.6C104.6,40.9,104.5,41,104.4,41z"/>
<path id="Shape_32" class="st7" d="M104.6,64.1h11.6c0.2,0,0.4-0.2,0.4-0.4v-9.2c0-0.2-0.2-0.4-0.4-0.4h-11.6
	c-0.2,0-0.4,0.2-0.4,0.4v9.2C104.2,64,104.4,64.1,104.6,64.1z M115.8,63.4h-10.9v-8.5h10.9V63.4z"/>
<path id="Path_53" class="st1" d="M110.4,56.2c-0.2,0-0.4-0.2-0.4-0.4v-2.2c0-0.2,0.2-0.4,0.4-0.4s0.4,0.2,0.4,0.4v2.2
	c0,0.1,0,0.2-0.1,0.3C110.6,56.2,110.5,56.2,110.4,56.2z"/>
</svg>
