<?xml version="1.0" encoding="utf-8"?>
<!-- Generator: Adobe Illustrator 28.0.0, SVG Export Plug-In . SVG Version: 6.00 Build 0)  -->
<svg version="1.1" id="Layer_1" xmlns="http://www.w3.org/2000/svg" xmlns:xlink="http://www.w3.org/1999/xlink" x="0px" y="0px"
	 viewBox="0 0 24 24" style="enable-background:new 0 0 24 24;" xml:space="preserve">
<style type="text/css">
	.st0{fill:#F4EEFF;}
</style>
<path class="st0" d="M15.5,8.9L15.5,8.9c0,0-0.1,0.1-0.2,0.2c-0.2,0.2-5.7,5.1-5.7,5.1l-0.4,3.4l0.4-3.3c0,0,1.4-1.2,2.8-2.5
	c1.4-1.3,2.8-2.5,2.9-2.6C15.6,8.9,15.5,8.9,15.5,8.9z M15.5,8.9L15.5,8.9c0,0-0.1,0.1-0.2,0.2c-0.2,0.2-5.7,5.1-5.7,5.1l-0.4,3.4
	l0.4-3.3c0,0,1.4-1.2,2.8-2.5c1.4-1.3,2.8-2.5,2.9-2.6C15.6,8.9,15.5,8.9,15.5,8.9z M15.5,8.9L15.5,8.9c0,0-0.1,0.1-0.2,0.2
	c-0.2,0.2-5.7,5.1-5.7,5.1l-0.4,3.4l0.4-3.3c0,0,1.4-1.2,2.8-2.5c1.4-1.3,2.8-2.5,2.9-2.6C15.6,8.9,15.5,8.9,15.5,8.9z M15.5,8.9
	L15.5,8.9c0,0-0.1,0.1-0.2,0.2c-0.2,0.2-5.7,5.1-5.7,5.1l-0.4,3.4l0.4-3.3c0,0,1.4-1.2,2.8-2.5c1.4-1.3,2.8-2.5,2.9-2.6
	C15.6,8.9,15.5,8.9,15.5,8.9z M12,0C5.4,0,0,5.4,0,12c0,6.6,5.4,12,12,12s12-5.4,12-12C24,5.4,18.6,0,12,0z M15.7,17.7
	c0,0-0.3,0.8-1.1,0.4l-4.9-3.8H9.6l1.9,1.5l-2,1.8c0,0-0.2,0.1-0.3,0c0,0-0.1,0-0.3-0.6c-0.2-0.5-0.9-3-1.1-3.5l0,0l-2.9-1
	c0,0-0.5-0.2-0.5-0.5s0.5-0.6,0.5-0.6l12-4.7c0,0,0.9-0.4,0.9,0.3L15.7,17.7z M15.3,9.2c0.3-0.3,0.2-0.3,0.2-0.3v0
	C15.5,8.9,15.4,9,15.3,9.2c-0.2,0.1-5.7,5-5.7,5l-0.4,3.4l0.4-3.3c0,0,1.4-1.2,2.8-2.5C13.8,10.6,15.2,9.3,15.3,9.2z M15.5,8.9
	L15.5,8.9c0,0-0.1,0.1-0.2,0.2c-0.2,0.2-5.7,5.1-5.7,5.1l-0.4,3.4l0.4-3.3c0,0,1.4-1.2,2.8-2.5c1.4-1.3,2.8-2.5,2.9-2.6
	C15.6,8.9,15.5,8.9,15.5,8.9z M15.5,8.9L15.5,8.9c0,0-0.1,0.1-0.2,0.2c-0.2,0.2-5.7,5.1-5.7,5.1l-0.4,3.4l0.4-3.3
	c0,0,1.4-1.2,2.8-2.5c1.4-1.3,2.8-2.5,2.9-2.6C15.6,8.9,15.5,8.9,15.5,8.9z M15.5,8.9L15.5,8.9c0,0-0.1,0.1-0.2,0.2
	c-0.2,0.2-5.7,5.1-5.7,5.1l-0.4,3.4l0.4-3.3c0,0,1.4-1.2,2.8-2.5c1.4-1.3,2.8-2.5,2.9-2.6C15.6,8.9,15.5,8.9,15.5,8.9z"/>
</svg>
