<?xml version="1.0" encoding="utf-8"?>
<!-- Generator: Adobe Illustrator 28.0.0, SVG Export Plug-In . SVG Version: 6.00 Build 0)  -->
<svg version="1.1" id="Layer_1" xmlns="http://www.w3.org/2000/svg" xmlns:xlink="http://www.w3.org/1999/xlink" x="0px" y="0px"
	 viewBox="0 0 640 512" style="enable-background:new 0 0 640 512;" xml:space="preserve">
<style type="text/css">
	.st0{fill:#FFFFFF;}
</style>
<path class="st0" d="M144,0c44.2,0,80,35.8,80,80s-35.8,80-80,80s-80-35.8-80-80S99.8,0,144,0z M512,0c44.2,0,80,35.8,80,80
	s-35.8,80-80,80s-80-35.8-80-80S467.8,0,512,0z M0,298.7C0,239.8,47.8,192,106.7,192h42.7c15.9,0,31,3.5,44.6,9.7
	c-1.3,7.2-1.9,14.7-1.9,22.3c0,38.2,16.8,72.5,43.3,96c-0.2,0-0.4,0-0.7,0H21.3C9.6,320,0,310.4,0,298.7z M405.3,320
	c-0.2,0-0.4,0-0.7,0c26.6-23.5,43.3-57.8,43.3-96c0-7.6-0.7-15-1.9-22.3c13.6-6.3,28.7-9.7,44.6-9.7h42.7
	c58.9,0,106.7,47.8,106.7,106.7c0,11.8-9.6,21.3-21.3,21.3H405.3z M224,224c0-53,43-96,96-96s96,43,96,96s-43,96-96,96
	S224,277,224,224z M128,485.3c0-73.6,59.7-133.3,133.3-133.3h117.4c73.6,0,133.3,59.7,133.3,133.3c0,14.7-11.9,26.7-26.7,26.7H154.7
	C140,512,128,500.1,128,485.3z"/>
</svg>
