<?xml version="1.0" encoding="utf-8"?>
<!-- Generator: Adobe Illustrator 28.0.0, SVG Export Plug-In . SVG Version: 6.00 Build 0)  -->
<svg version="1.1" id="Layer_1" xmlns="http://www.w3.org/2000/svg" xmlns:xlink="http://www.w3.org/1999/xlink" x="0px" y="0px"
	 viewBox="0 0 32 32" style="enable-background:new 0 0 32 32;" xml:space="preserve">
<style type="text/css">
	.st0{fill:#FFFFFF;}
</style>
<g>
	<g>
		<path class="st0" d="M16,30c-0.2,0-0.4-0.1-0.6-0.2C14.8,29.4,2,19.4,2,11c0-4.4,3.6-8,8-8s8,3.6,8,8c0,0.6-0.4,1-1,1s-1-0.4-1-1
			c0-3.3-2.7-6-6-6s-6,2.7-6,6c0,6.5,9.5,14.7,12,16.7c2.5-2.1,12-10.3,12-16.7c0-3.3-2.7-6-6-6c-0.9,0-1.8,0.2-2.6,0.6
			c-0.5,0.2-1.1,0-1.3-0.5c-0.2-0.5,0-1.1,0.5-1.3C19.7,3.3,20.8,3,22,3c4.4,0,8,3.6,8,8c0,8.4-12.8,18.4-13.4,18.8
			C16.4,29.9,16.2,30,16,30z"/>
	</g>
</g>
</svg>
