<?xml version="1.0" encoding="UTF-8"?>
<svg id="Layer_2" data-name="Layer 2" xmlns="http://www.w3.org/2000/svg" viewBox="0 0 150.1 35">
  <defs>
    <style>
      .cls-1 {
        fill: #a6b1e1;
      }

      .cls-1, .cls-2, .cls-3 {
        stroke-width: 0px;
      }

      .cls-2 {
        fill: #1f2121;
      }

      .cls-3 {
        fill: #fff;
      }

      .cls-4 {
        stroke-width: 3.71px;
      }

      .cls-4, .cls-5 {
        fill: none;
        stroke: #fff;
        stroke-linecap: round;
        stroke-miterlimit: 10;
      }

      .cls-5 {
        stroke-width: 1.39px;
      }
    </style>
  </defs>
  <g id="Layer_1-2" data-name="Layer 1">
    <g>
      <circle class="cls-1" cx="17.5" cy="17.5" r="17.5"/>
      <line class="cls-5" x1="14.02" y1="12.4" x2="14.02" y2="26.34"/>
      <line class="cls-5" x1="11.72" y1="13.39" x2="11.72" y2="27.08"/>
      <line class="cls-5" x1="9.39" y1="18.52" x2="9.39" y2="22.78"/>
      <line class="cls-5" x1="4.97" y1="19.04" x2="4.97" y2="22.78"/>
      <line class="cls-5" x1="7.18" y1="20.58" x2="7.18" y2="21.28"/>
      <line class="cls-5" x1="20.94" y1="13.08" x2="20.94" y2="26.51"/>
      <line class="cls-4" x1="17.48" y1="8.34" x2="17.48" y2="29.36"/>
      <line class="cls-5" x1="23.24" y1="13.39" x2="23.24" y2="27.08"/>
      <line class="cls-5" x1="25.57" y1="18.52" x2="25.57" y2="22.78"/>
      <line class="cls-5" x1="29.99" y1="19.04" x2="29.99" y2="22.78"/>
      <line class="cls-5" x1="27.78" y1="20.58" x2="27.78" y2="21.28"/>
      <circle class="cls-3" cx="2.89" cy="21.6" r=".52"/>
      <circle class="cls-3" cx="7.64" cy="26.93" r=".52"/>
      <circle class="cls-3" cx="27.24" cy="26.93" r=".52"/>
      <circle class="cls-3" cx="31.99" cy="21.61" r=".52"/>
      <circle class="cls-3" cx="9.46" cy="8.26" r=".8"/>
      <path class="cls-3" d="m26.62,7.84c-1.05,0-1.9.84-1.9,1.9s.85,1.9,1.9,1.9,1.9-.85,1.9-1.9-.84-1.9-1.9-1.9Zm0,.6c.36,0,.65.29.65.65s-.29.65-.65.65-.65-.3-.65-.65.3-.65.65-.65Zm1.04,1.96c0,.07-.03.15-.06.2-.2.28-.53.42-.97.42s-.77-.14-.96-.42c-.05-.06-.07-.13-.07-.2v-.12c0-.16.14-.29.3-.29h1.49c.16,0,.29.13.29.29v.12Z"/>
      <rect class="cls-1" x="17.02" y="8.31" width=".92" height="21.07" rx=".46" ry=".46"/>
      <g>
        <polygon class="cls-2" points="49.71 24.87 49.71 29.77 48.85 29.77 48.85 26.53 47.24 29.21 46.83 29.21 45.22 26.57 45.22 29.77 44.35 29.77 44.35 24.87 45.1 24.87 47.04 28.12 48.96 24.87 49.71 24.87"/>
        <path class="cls-2" d="m53.64,24.87h-.9l-2.2,4.9h.94l.48-1.13h2.45l.49,1.13h.95l-2.21-4.9Zm-1.37,3.06l.92-2.14.92,2.14h-1.84Z"/>
        <polygon class="cls-2" points="61.15 29.77 60.09 29.77 58.37 27.72 57.58 28.52 57.58 29.77 56.67 29.77 56.67 24.87 57.58 24.87 57.58 27.38 60 24.87 61.03 24.87 58.96 27.07 61.15 29.77"/>
        <polygon class="cls-2" points="65.65 29.01 65.65 29.77 61.97 29.77 61.97 24.87 65.55 24.87 65.55 25.64 62.88 25.64 62.88 26.91 65.25 26.91 65.25 27.66 62.88 27.66 62.88 29.01 65.65 29.01"/>
        <polygon class="cls-2" points="73.02 24.87 71.1 28.05 71.1 29.77 70.19 29.77 70.19 28.07 68.26 24.87 69.24 24.87 70.67 27.26 72.12 24.87 73.02 24.87"/>
        <path class="cls-2" d="m75.9,29.85c-.38,0-.74-.06-1.06-.19-.32-.13-.6-.3-.84-.53-.24-.23-.42-.49-.55-.8s-.2-.64-.2-1,.07-.7.2-1,.32-.57.55-.8c.24-.23.52-.4.84-.53.32-.13.67-.19,1.05-.19s.73.06,1.05.19c.32.13.6.3.84.53s.42.49.55.8c.13.31.2.64.2,1s-.07.7-.2,1.01c-.13.31-.31.57-.55.8s-.52.4-.84.52c-.32.13-.67.19-1.05.19Zm0-.8c.25,0,.48-.04.69-.13s.39-.2.55-.36c.15-.16.27-.34.36-.55.09-.21.13-.44.13-.69s-.04-.48-.13-.69c-.09-.21-.21-.39-.36-.55-.15-.16-.34-.28-.55-.36s-.44-.13-.69-.13-.48.04-.68.13c-.21.08-.39.2-.55.36s-.28.34-.36.55c-.09.21-.13.44-.13.69s.04.48.13.69.21.39.36.55.34.28.55.36.44.13.69.13Z"/>
        <path class="cls-2" d="m81.8,29.85c-.67,0-1.2-.19-1.58-.57-.38-.38-.57-.92-.57-1.64v-2.77h.91v2.73c0,.5.11.87.33,1.1.22.23.52.34.92.34s.7-.11.92-.34c.21-.23.32-.6.32-1.1v-2.73h.9v2.77c0,.71-.19,1.26-.57,1.64-.38.38-.9.57-1.57.57Z"/>
        <path class="cls-2" d="m88.47,28.17s.05-.02.07-.03c.31-.14.55-.34.72-.59.16-.26.25-.57.25-.93s-.09-.67-.25-.93c-.17-.26-.41-.47-.72-.61s-.68-.21-1.12-.21h-2.01v4.9h.91v-1.42h1.1c.07,0,.13,0,.19,0l1,1.43h.98l-1.12-1.6Zm-2.15-2.53h1.06c.4,0,.7.09.91.26.2.16.3.4.3.72s-.1.55-.3.72c-.21.17-.51.26-.91.26h-1.06v-1.96Z"/>
        <polygon class="cls-2" points="97.33 24.87 95.19 29.77 94.3 29.77 92.15 24.87 93.14 24.87 94.77 28.65 96.42 24.87 97.33 24.87"/>
        <path class="cls-2" d="m100.29,29.85c-.38,0-.74-.06-1.06-.19-.32-.13-.6-.3-.84-.53-.24-.23-.42-.49-.55-.8s-.2-.64-.2-1,.07-.7.2-1,.32-.57.55-.8c.24-.23.52-.4.84-.53.32-.13.67-.19,1.05-.19s.73.06,1.05.19c.32.13.6.3.84.53s.42.49.55.8c.13.31.2.64.2,1s-.07.7-.2,1.01c-.13.31-.31.57-.55.8s-.52.4-.84.52c-.32.13-.67.19-1.05.19Zm0-.8c.25,0,.48-.04.69-.13s.39-.2.55-.36c.15-.16.27-.34.36-.55.09-.21.13-.44.13-.69s-.04-.48-.13-.69c-.09-.21-.21-.39-.36-.55-.15-.16-.34-.28-.55-.36s-.44-.13-.69-.13-.48.04-.68.13c-.21.08-.39.2-.55.36s-.28.34-.36.55c-.09.21-.13.44-.13.69s.04.48.13.69.21.39.36.55.34.28.55.36.44.13.69.13Z"/>
        <path class="cls-2" d="m104.09,29.78v-4.9h.91v4.9h-.91Z"/>
        <path class="cls-2" d="m108.78,29.85c-.37,0-.72-.06-1.04-.19-.32-.12-.6-.3-.83-.52-.24-.23-.42-.49-.55-.8s-.2-.64-.2-1.01.07-.7.2-1.01.32-.58.55-.8c.24-.23.52-.4.83-.53.32-.12.67-.19,1.04-.19.4,0,.77.07,1.1.21.33.14.61.34.84.61l-.59.55c-.18-.19-.38-.33-.59-.43-.22-.1-.46-.14-.71-.14s-.49.04-.7.13-.4.2-.55.36-.28.34-.36.55-.13.44-.13.69.04.48.13.69.21.39.36.55c.16.15.34.27.55.36s.45.13.7.13.5-.05.71-.14c.22-.1.42-.24.59-.44l.59.56c-.23.27-.51.47-.84.61-.33.14-.7.21-1.11.21Z"/>
        <polygon class="cls-2" points="115.47 29.01 115.47 29.77 111.8 29.77 111.8 24.87 115.37 24.87 115.37 25.64 112.71 25.64 112.71 26.91 115.07 26.91 115.07 27.66 112.71 27.66 112.71 29.01 115.47 29.01"/>
        <polygon class="cls-2" points="123.16 24.87 123.16 29.77 122.25 29.77 122.25 27.67 119.72 27.67 119.72 29.77 118.81 29.77 118.81 24.87 119.72 24.87 119.72 26.9 122.25 26.9 122.25 24.87 123.16 24.87"/>
        <polygon class="cls-2" points="128.35 29.01 128.35 29.77 124.68 29.77 124.68 24.87 128.25 24.87 128.25 25.64 125.59 25.64 125.59 26.91 127.95 26.91 127.95 27.66 125.59 27.66 125.59 29.01 128.35 29.01"/>
        <path class="cls-2" d="m131.97,24.87h-.9l-2.2,4.9h.94l.48-1.13h2.45l.49,1.13h.95l-2.21-4.9Zm-1.37,3.06l.92-2.14.92,2.14h-1.84Z"/>
        <path class="cls-2" d="m138.06,28.17s.05-.02.07-.03c.31-.14.55-.34.72-.59.17-.26.25-.57.25-.93s-.08-.67-.25-.93-.41-.47-.72-.61-.68-.21-1.11-.21h-2.02v4.9h.91v-1.42h1.11c.07,0,.13,0,.19,0l1,1.43h.98l-1.13-1.6Zm-2.15-2.53h1.06c.41,0,.71.09.91.26.2.16.3.4.3.72s-.1.55-.3.72c-.2.17-.5.26-.91.26h-1.06v-1.96Z"/>
        <path class="cls-2" d="m140.32,29.78v-4.9h2.14c.53,0,1,.1,1.4.31.4.21.71.49.94.85.22.36.34.79.34,1.29s-.11.92-.34,1.28c-.22.37-.54.65-.94.86-.4.21-.87.31-1.4.31h-2.14Zm.91-.77h1.19c.37,0,.69-.07.96-.21.27-.14.48-.34.62-.59.15-.25.22-.55.22-.88s-.07-.64-.22-.89c-.15-.25-.36-.44-.62-.58-.27-.14-.59-.21-.96-.21h-1.19v3.36Z"/>
      </g>
      <polygon class="cls-2" points="57.65 7.2 52.16 19.8 49.86 19.8 44.35 7.2 46.89 7.2 51.08 16.92 55.31 7.2 57.65 7.2"/>
      <path class="cls-2" d="m62.37,19.93c-.98,0-1.86-.21-2.63-.64-.77-.43-1.37-1.01-1.82-1.75-.44-.74-.67-1.59-.67-2.54s.22-1.81.67-2.55c.44-.74,1.05-1.32,1.82-1.74s1.64-.63,2.63-.63,1.88.21,2.66.63c.77.42,1.38,1,1.82,1.73.44.73.66,1.58.66,2.56s-.22,1.79-.66,2.54c-.44.74-1.04,1.33-1.82,1.75-.77.43-1.66.64-2.66.64Zm0-1.93c.55,0,1.04-.12,1.48-.36.43-.24.77-.59,1.02-1.04.25-.46.37-.99.37-1.6s-.12-1.16-.37-1.61-.58-.79-1.02-1.04c-.43-.24-.92-.36-1.46-.36s-1.04.12-1.47.36c-.43.24-.76.58-1.02,1.04s-.38.99-.38,1.61.13,1.15.38,1.6c.25.46.59.8,1.02,1.04.43.24.91.36,1.45.36Z"/>
      <path class="cls-2" d="m70.8,8.61c-.42,0-.77-.13-1.04-.4-.27-.26-.41-.58-.41-.95s.13-.71.41-.96c.27-.26.61-.39,1.04-.39s.76.12,1.03.37c.27.25.41.56.41.93,0,.4-.13.73-.4,1-.26.27-.61.41-1.04.41Zm-1.13,11.2v-9.61h2.25v9.61h-2.25Z"/>
      <path class="cls-2" d="m79.27,19.93c-1.01,0-1.91-.21-2.69-.64-.79-.43-1.4-1.01-1.85-1.75-.44-.74-.67-1.59-.67-2.54s.22-1.81.67-2.55c.44-.74,1.06-1.32,1.85-1.74.79-.42,1.68-.63,2.69-.63.94,0,1.76.19,2.48.57.71.38,1.26.93,1.63,1.67l-1.73,1.01c-.29-.46-.64-.79-1.05-1.01-.41-.22-.86-.32-1.34-.32-.55,0-1.05.12-1.49.36-.44.24-.79.58-1.04,1.04s-.38.99-.38,1.61.13,1.16.38,1.61c.25.45.6.79,1.04,1.03.44.24.94.36,1.49.36.48,0,.93-.11,1.34-.32s.76-.55,1.05-1.01l1.73,1.01c-.37.72-.92,1.28-1.63,1.67-.71.39-1.54.58-2.48.58Z"/>
      <path class="cls-2" d="m93.58,12.42c-.42-.74-.99-1.32-1.73-1.73-.73-.41-1.56-.61-2.5-.61s-1.81.21-2.56.63c-.75.42-1.34,1-1.77,1.74-.42.73-.64,1.58-.64,2.54s.22,1.8.66,2.54c.44.75,1.06,1.33,1.85,1.76.8.42,1.74.64,2.8.64.84,0,1.59-.14,2.24-.41.66-.27,1.2-.66,1.63-1.16l-1.2-1.39c-.34.36-.72.63-1.15.8-.44.16-.92.25-1.46.25-.63,0-1.18-.12-1.66-.36-.48-.24-.85-.58-1.11-1.03-.17-.28-.29-.58-.34-.92h7.54c0-.1.02-.22.02-.34.01-.12.01-.23.01-.32,0-1.01-.21-1.89-.63-2.63Zm-6.96,1.8c.05-.36.15-.69.31-.98.23-.43.56-.76.97-1,.42-.24.9-.36,1.45-.36s1.02.12,1.43.36c.42.24.74.57.98.99.17.29.28.63.33.99h-5.47Z"/>
      <path class="cls-1" d="m106.49,9.29c-.44-.67-1.05-1.19-1.85-1.55s-1.75-.54-2.87-.54h-5.18v12.6h2.34v-3.64h2.84c1.12,0,2.07-.18,2.87-.54s1.41-.87,1.85-1.54c.43-.68.65-1.47.65-2.4s-.22-1.72-.65-2.39Zm-2.5,4.24c-.52.44-1.3.65-2.33.65h-2.73v-5h2.73c1.03,0,1.81.22,2.33.65.53.43.79,1.05.79,1.85s-.26,1.41-.79,1.85Z"/>
      <path class="cls-1" d="m118.75,10.19v9.61h-2.15v-1.23c-.27.35-.63.64-1.04.86-.63.33-1.31.5-2.05.5-.82,0-1.54-.16-2.16-.46-.63-.31-1.11-.78-1.46-1.41-.35-.63-.52-1.42-.52-2.38v-5.49h2.25v5.18c0,.87.19,1.51.58,1.94.39.42.95.64,1.67.64.52,0,.98-.11,1.37-.33.39-.21.7-.54.92-.97.22-.43.34-.97.34-1.6v-4.86h2.25Z"/>
      <path class="cls-1" d="m121.7,19.8V6.45h2.25v13.36h-2.25Z"/>
      <path class="cls-1" d="m129.87,19.93c-.8,0-1.58-.1-2.31-.31s-1.32-.46-1.75-.77l.86-1.71c.43.28.95.5,1.55.68.6.18,1.2.27,1.8.27.71,0,1.22-.1,1.54-.29.32-.19.48-.45.48-.77,0-.26-.11-.46-.32-.6-.22-.14-.5-.24-.85-.31-.35-.07-.73-.14-1.16-.2-.43-.06-.85-.14-1.28-.24s-.81-.25-1.16-.45c-.35-.2-.63-.46-.85-.8s-.32-.78-.32-1.33c0-.61.17-1.14.52-1.59.35-.45.84-.8,1.47-1.04.63-.25,1.38-.37,2.24-.37.65,0,1.3.07,1.96.22.66.14,1.21.35,1.64.61l-.86,1.71c-.46-.28-.92-.46-1.38-.57-.46-.1-.92-.15-1.38-.15-.68,0-1.19.1-1.52.31-.33.2-.5.46-.5.77,0,.29.11.5.32.65.22.14.5.26.85.34.35.08.73.15,1.16.21.43.05.85.13,1.27.24.42.11.81.25,1.16.44.35.19.64.45.85.78.22.34.32.77.32,1.31,0,.6-.18,1.12-.53,1.57-.35.44-.86.79-1.5,1.03-.65.25-1.42.37-2.32.37Z"/>
      <path class="cls-1" d="m144.57,12.42c-.42-.74-.99-1.32-1.72-1.73-.74-.41-1.57-.61-2.51-.61s-1.81.21-2.56.63c-.75.42-1.34,1-1.76,1.74-.43.73-.64,1.58-.64,2.54s.21,1.8.65,2.54c.44.75,1.06,1.33,1.86,1.76.8.42,1.73.64,2.8.64.84,0,1.58-.14,2.24-.41.65-.27,1.19-.66,1.63-1.16l-1.21-1.39c-.34.36-.72.63-1.15.8-.43.16-.92.25-1.46.25-.62,0-1.18-.12-1.66-.36-.48-.24-.85-.58-1.11-1.03-.17-.28-.29-.58-.34-.92h7.54c.01-.1.02-.22.03-.34v-.32c0-1.01-.21-1.89-.63-2.63Zm-6.96,1.8c.05-.36.15-.69.31-.98.24-.43.56-.76.98-1,.41-.24.89-.36,1.44-.36s1.02.12,1.44.36c.41.24.74.57.98.99.17.29.27.63.32.99h-5.47Z"/>
      <path class="cls-1" d="m147.64,10.06c-.35,0-.67-.06-.97-.19-.3-.13-.56-.3-.78-.52-.22-.22-.39-.48-.52-.78s-.18-.62-.18-.96.06-.66.19-.96c.12-.3.3-.56.52-.78.22-.22.48-.4.78-.52.3-.12.62-.19.97-.19s.67.06.97.18.56.3.78.52.39.48.51.77.18.61.18.96-.06.67-.19.97c-.12.3-.3.56-.52.78-.23.22-.49.4-.78.52-.3.12-.62.19-.97.19Zm0-.38c.3,0,.57-.05.82-.16.25-.11.47-.25.66-.44.19-.19.33-.41.43-.66.1-.25.15-.53.15-.82s-.05-.56-.15-.81c-.1-.25-.24-.47-.43-.65s-.4-.33-.65-.43c-.25-.1-.52-.16-.82-.16s-.57.05-.82.16c-.25.1-.47.25-.65.44-.18.19-.33.41-.43.66-.1.25-.16.52-.16.81s.05.56.15.81c.1.25.25.47.43.66.19.19.4.34.65.44.25.1.52.16.81.16Zm.08-.65c-.28,0-.53-.06-.76-.18s-.4-.29-.52-.5c-.13-.21-.19-.46-.19-.74s.06-.52.19-.74c.12-.21.3-.38.52-.5s.47-.18.76-.18c.26,0,.5.05.7.16s.36.26.46.44l-.51.33c-.08-.12-.17-.21-.28-.26s-.24-.08-.38-.08c-.15,0-.28.03-.4.1-.12.07-.21.16-.28.28-.07.12-.11.27-.11.44s.04.32.11.44.17.22.28.28c.12.07.25.1.4.1.14,0,.26-.03.38-.08s.21-.14.28-.26l.51.32c-.11.19-.26.34-.46.45s-.43.17-.7.17Z"/>
    </g>
  </g>
</svg>